<svg width="512" height="512" xmlns="http://www.w3.org/2000/svg">

 <g>
  <title>background</title>
  <rect fill="none" id="canvas_background" height="402" width="582" y="-1" x="-1"/>
 </g>
 <g>
  <title>Layer 1</title>
  <path fill="#de486f" stroke="null" id="svg_4" d="m270.192896,253.23841l196.931912,-196.931912c4.439007,-4.439007 4.439007,-11.636053 0,-16.07506c-4.440428,-4.439007 -11.636053,-4.439007 -16.07648,0l-196.931912,196.930492l-196.931912,-196.931912c-4.439007,-4.439007 -11.636053,-4.439007 -16.07506,0c-4.440428,4.439007 -4.440428,11.636053 0,16.07506l196.930492,196.933333l-196.931912,196.931912c-4.440428,4.440428 -4.440428,11.636053 0,16.07648c2.219503,2.219503 5.128161,3.329255 8.03824,3.329255s5.818737,-1.109752 8.03824,-3.329255l196.931912,-196.931912l196.931912,196.931912c2.220924,2.219503 5.128161,3.329255 8.03824,3.329255s5.818737,-1.109752 8.03824,-3.329255c4.439007,-4.440428 4.439007,-11.636053 0,-16.07648l-196.931912,-196.931912z"/>
 </g>
</svg>