<svg id="Capa_1" enable-background="new 0 0 512 512" height="512" viewBox="0 0 512 512" width="512" xmlns="http://www.w3.org/2000/svg"><g><g><path d="m479.578 84.752h-256.672c-13.764 0-24.922 11.158-24.922 24.922v181.706c0 13.764 11.158 24.922 24.922 24.922h159.92l29.672 51.134c3.021 5.206 10.538 5.206 13.559 0l29.672-51.134h23.848c13.764 0 24.922-11.158 24.922-24.922v-181.707c.001-13.764-11.157-24.921-24.921-24.921z" fill="#e28424"/><path d="m479.578 84.752h-23.922c13.764 0 24.922 11.158 24.922 24.922v181.706c0 13.764-11.158 24.922-24.922 24.922h-1.741c-13.685 0-26.334 7.285-33.203 19.121l-13.395 23.084 5.182 8.929c3.021 5.206 10.538 5.206 13.559 0l29.673-51.134h23.848c13.764 0 24.922-11.158 24.922-24.922v-181.707c-.001-13.764-11.159-24.921-24.923-24.921z" fill="#d56617"/><path d="m289.093 120.66h-91.109v170.72c0 13.764 11.158 24.922 24.922 24.922h111.109v-150.72c0-24.77-20.152-44.922-44.922-44.922z" fill="#d56617"/><path d="m289.094 140.66h-256.672c-13.764 0-24.922 11.158-24.922 24.922v181.707c0 13.764 11.158 24.922 24.922 24.922h23.848l29.673 51.134c3.021 5.206 10.538 5.206 13.559 0l29.673-51.134h159.92c13.764 0 24.922-11.158 24.922-24.922v-181.707c-.002-13.764-11.16-24.922-24.923-24.922z" fill="#f1d333"/><g fill="#eab14d"><path d="m81.697 416.028 4.245 7.316c3.021 5.206 10.538 5.206 13.559 0l29.673-51.134c-13.649 0-26.266 7.266-33.117 19.072z"/><path d="m289.094 140.66h-22.05c13.764 0 24.922 11.158 24.922 24.922v181.707c0 13.764-11.158 24.922-24.922 24.922h22.05c13.764 0 24.922-11.158 24.922-24.922v-181.707c-.001-13.764-11.158-24.922-24.922-24.922z"/></g></g><g><path d="m504.5 225.823c4.143 0 7.5-3.358 7.5-7.5v-108.65c0-17.877-14.544-32.421-32.421-32.421h-256.672c-17.878 0-32.422 14.544-32.422 32.421v23.487h-93.795c-4.143 0-7.5 3.358-7.5 7.5s3.357 7.5 7.5 7.5h192.403c9.606 0 17.422 7.815 17.422 17.422v181.707c0 9.606-7.815 17.422-17.422 17.422h-159.918c-2.674 0-5.145 1.423-6.487 3.735l-29.673 51.134c-.05.086-.098.168-.292.168-.195 0-.243-.082-.293-.169l-29.673-51.134c-1.343-2.313-3.813-3.735-6.487-3.735h-23.848c-9.606 0-17.422-7.815-17.422-17.422v-181.706c0-9.606 7.815-17.422 17.422-17.422h34.281c4.143 0 7.5-3.358 7.5-7.5s-3.357-7.5-7.5-7.5h-34.281c-17.878 0-32.422 14.544-32.422 32.422v181.707c0 17.878 14.544 32.422 32.422 32.422h19.528l27.506 47.398c2.776 4.784 7.736 7.641 13.268 7.64 5.531 0 10.49-2.856 13.266-7.64l27.505-47.398h155.6c17.878 0 32.422-14.544 32.422-32.422v-23.487h56.991l27.505 47.399c2.776 4.783 7.735 7.639 13.266 7.64h.001c5.53 0 10.49-2.856 13.268-7.64l27.504-47.399h19.529c17.877 0 32.421-14.544 32.421-32.421v-43.071c0-4.142-3.357-7.5-7.5-7.5s-7.5 3.358-7.5 7.5v43.071c0 9.605-7.815 17.421-17.421 17.421h-23.851c-2.674 0-5.146 1.423-6.487 3.735l-29.671 51.134c-.051.087-.099.17-.294.17s-.242-.082-.292-.169l-29.673-51.135c-1.343-2.313-3.813-3.735-6.487-3.735h-61.311v-51.256h117.647c4.143 0 7.5-3.357 7.5-7.5s-3.357-7.5-7.5-7.5h-117.646v-30.949h117.647c4.143 0 7.5-3.358 7.5-7.5s-3.357-7.5-7.5-7.5h-117.647v-30.948h117.647c4.143 0 7.5-3.358 7.5-7.5s-3.357-7.5-7.5-7.5h-121.305c-5.411-10.381-16.27-17.489-28.764-17.489h-83.608v-23.487c0-9.606 7.815-17.421 17.422-17.421h256.672c9.605 0 17.421 7.815 17.421 17.421v108.649c-.001 4.143 3.356 7.501 7.499 7.501z"/><path d="m248.679 196.214h-175.842c-4.143 0-7.5 3.358-7.5 7.5s3.357 7.5 7.5 7.5h175.842c4.143 0 7.5-3.358 7.5-7.5s-3.358-7.5-7.5-7.5z"/><path d="m248.679 242.163h-175.842c-4.143 0-7.5 3.358-7.5 7.5s3.357 7.5 7.5 7.5h175.842c4.143 0 7.5-3.357 7.5-7.5s-3.358-7.5-7.5-7.5z"/><path d="m248.679 288.112h-175.842c-4.143 0-7.5 3.357-7.5 7.5s3.357 7.5 7.5 7.5h175.842c4.143 0 7.5-3.357 7.5-7.5s-3.358-7.5-7.5-7.5z"/></g></g></svg>