<svg width="512" height="512" xmlns="http://www.w3.org/2000/svg">

 <g>
  <title>background</title>
  <rect fill="none" id="canvas_background" height="402" width="582" y="-1" x="-1"/>
 </g>
 <g>
  <title>Layer 1</title>
  <g stroke="null" id="svg_8">
   <path fill="#fad000" stroke="null" id="svg_5" d="m260.39603,485.286686c-2.924922,0 -5.848415,-1.115412 -8.07924,-3.346236c-2.230824,-2.230824 -3.346236,-5.154318 -3.346236,-8.07924s1.115412,-5.848415 3.346236,-8.07924l207.578046,-207.576618l-207.578046,-207.576618c-4.463077,-4.461648 -4.463077,-11.695403 0,-16.157051c4.461648,-4.461648 11.695403,-4.461648 16.158479,0l215.655858,215.655858c2.230824,2.230824 3.346236,5.154318 3.346236,8.07924c0,2.924922 -1.115412,5.848415 -3.346236,8.07924l-215.655858,215.655858c-2.230824,2.229396 -5.154318,3.344808 -8.07924,3.344808z"/>
   <path fill="#fad000" stroke="null" id="svg_7" d="m33.314697,485.286686c-2.923494,0 -5.848415,-1.115412 -8.07924,-3.346236c-2.230824,-2.230824 -3.346236,-5.154318 -3.346236,-8.07924s1.115412,-5.848415 3.346236,-8.07924l207.576618,-207.576618l-207.576618,-207.576618c-4.463077,-4.461648 -4.463077,-11.695403 0,-16.157051c4.461648,-4.461648 11.695403,-4.461648 16.157051,0l215.655858,215.655858c2.230824,2.230824 3.346236,5.154318 3.346236,8.07924c0,2.924922 -1.115412,5.848415 -3.346236,8.07924l-215.655858,215.655858c-2.229396,2.229396 -5.154318,3.344808 -8.077811,3.344808z"/>
  </g>
 </g>
</svg>