<svg id="Capa_1" enable-background="new 0 0 512 512" height="512" viewBox="0 0 512 512" width="512" xmlns="http://www.w3.org/2000/svg"><g><g><path d="m215.365 504.5h81.27l41.249-61.606v-92.755h-164.051v107.984z" fill="#5c586f"/><path d="m81.274 159.438c-4.451 15.74-6.835 32.347-6.835 49.512 0 100.274 81.288 181.561 181.561 181.561s181.561-81.288 181.561-181.561c0-17.165-2.384-33.772-6.835-49.512z" fill="#f9f097"/><path d="m114.439 208.95c0-17.165 2.384-33.772 6.835-49.512h-40c-4.451 15.74-6.835 32.347-6.835 49.512 0 100.274 81.288 181.561 181.561 181.561 6.76 0 13.431-.382 20-1.102-90.861-9.958-161.561-86.947-161.561-180.459z" fill="#fccb88"/><path d="m332.391 104.718c-34.91-.428-64.777 21.357-76.391 52.103-11.614-30.746-41.481-52.531-76.391-52.103-43.094.528-78.49 35.477-79.534 78.562-1.101 45.411 35.382 82.57 80.544 82.57 19.711 0 37.765-7.081 51.762-18.836 13.605-11.426 33.633-11.426 47.238 0 13.997 11.756 32.051 18.836 51.762 18.836 45.162 0 81.645-37.158 80.544-82.57-1.044-43.084-36.44-78.033-79.534-78.562z" fill="#5c586f"/><circle cx="180.619" cy="185.281" fill="#e8e8e8" r="38.958"/><circle cx="331.381" cy="185.281" fill="#e8e8e8" r="38.958"/><path d="m391.602 39.759c-9.57-19.731-29.571-32.259-51.5-32.259h-15.807c-12.301 0-24.275 3.963-34.148 11.302-20.271 15.069-48.024 15.069-68.295 0-9.872-7.339-21.846-11.302-34.147-11.302h-15.807c-21.929 0-41.93 12.529-51.5 32.259l-45.96 94.759 181.562 24.92 181.561-24.919z" fill="#da9d81"/><path d="m114.439 134.519 45.96-94.759c7.768-16.017 22.41-27.286 39.377-30.962-3.945-.851-7.989-1.297-12.071-1.297h-15.807c-21.929 0-41.93 12.529-51.5 32.259l-45.96 94.759z" fill="#c7856a"/><path d="m178.953 308.607h-86.144c-9.819 0-16.893 9.45-14.083 18.858 5.023 16.821 15.558 42.409 36.962 66.283 0 0-62.298 47.07-62.298 110.752h161.975v-159.481c0-20.11-16.302-36.412-36.412-36.412z" fill="#da9d81"/><path d="m136.211 382.179c-15.163-20.283-23.267-40.589-27.485-54.714-2.81-9.408 4.264-18.857 14.083-18.858h-30c-9.819 0-16.893 9.45-14.083 18.858 5.023 16.821 15.558 42.409 36.962 66.283 0 0-62.298 47.07-62.298 110.752h30c0-46.323 32.963-83.856 50.934-100.876 5.96-5.644 6.802-14.871 1.887-21.445z" fill="#c7856a"/><path d="m333.047 308.607h86.144c9.819 0 16.893 9.45 14.083 18.858-5.023 16.821-15.558 42.409-36.962 66.283 0 0 62.298 47.07 62.298 110.752h-161.975v-159.481c0-20.11 16.302-36.412 36.412-36.412z" fill="#da9d81"/><path d="m463.626 134.519h-415.252c-10.454 0-18.929 8.475-18.929 18.929v11.981c0 10.454 8.475 18.929 18.929 18.929h415.251c10.454 0 18.929-8.475 18.929-18.929v-11.981c0-10.455-8.474-18.929-18.928-18.929z" fill="#ffb896"/></g><g><path d="m281.437 267.968c-3.123-2.721-7.86-2.396-10.582.727-7.868 9.029-21.851 9.019-29.71 0-2.722-3.123-7.459-3.447-10.582-.727-3.123 2.722-3.448 7.459-.727 10.582 13.848 15.888 38.494 15.871 52.327 0 2.722-3.123 2.396-7.86-.726-10.582z"/><path d="m48.374 191.857h19.361c-3.538 39.245 5.106 77.013 23.212 109.335-13.807 1.129-23.493 14.738-19.408 28.419 4.913 16.452 14.644 40.217 33.477 63.208-16.339 14.181-59.126 56.584-59.126 111.681 0 4.142 3.358 7.5 7.5 7.5h405.22c4.142 0 7.5-3.358 7.5-7.5 0-55.097-42.788-97.5-59.126-111.681 18.832-22.989 28.563-46.755 33.477-63.208 4.09-13.698-5.617-27.291-19.408-28.419 18.104-32.319 26.75-70.086 23.212-109.335h19.361c14.573 0 26.429-11.856 26.429-26.429v-11.981c0-14.573-11.856-26.429-26.429-26.429h-21.367l-43.909-90.532c-10.751-22.164-33.614-36.486-58.248-36.486h-15.807c-13.817 0-27.534 4.54-38.622 12.783-17.748 13.193-41.598 13.194-59.346 0-11.088-8.243-24.805-12.783-38.622-12.783h-15.807c-24.634 0-47.498 14.322-58.248 36.486l-43.909 90.532h-21.367c-14.573 0-26.429 11.856-26.429 26.429v11.981c.001 14.573 11.857 26.429 26.429 26.429zm41.815 238.333c14.806-18.834 29.875-30.349 30.021-30.459 3.5-2.645 3.992-7.723 1.063-10.991-20.35-22.698-30.461-47.017-35.36-63.422-1.37-4.589 2.081-9.212 6.896-9.212h86.144c15.942 0 28.913 12.97 28.913 28.912v151.981h-80.418v-44.415c0-4.142-3.358-7.5-7.5-7.5s-7.5 3.358-7.5 7.5v44.416h-51.243c2.299-27.455 16.722-51.211 28.984-66.81zm335.899-104.871c-4.899 16.405-15.011 40.726-35.36 63.422-2.918 3.255-2.444 8.333 1.058 10.987.15.114 15.22 11.629 30.025 30.463 12.263 15.599 26.686 39.355 28.984 66.81h-51.242v-44.415c0-4.142-3.358-7.5-7.5-7.5s-7.5 3.358-7.5 7.5v44.414h-80.418v-34.862c0-4.142-3.358-7.5-7.5-7.5s-7.5 3.358-7.5 7.5v34.862h-66.27v-101.89c21.707 3.831 44.537 3.849 66.27 0v37.028c0 4.142 3.358 7.5 7.5 7.5s7.5-3.358 7.5-7.5c0-11.215 0-78.1 0-87.119 0-15.942 12.97-28.912 28.912-28.912h86.144c4.808 0 8.269 4.615 6.897 9.212zm-22.411-24.212h-70.629c-24.213 0-43.912 19.699-43.912 43.912v34.825c-21.309 4.093-43.904 4.296-66.27 0-.02-38.499.179-37.027-.507-41.503-3.226-21.038-21.442-37.234-43.405-37.234-10.071 0-60.382 0-70.629 0-20.371-32.569-29.306-70.829-25.546-109.25h10.055c1.529 20.876 10.304 40.308 25.187 55.358 33.057 33.427 84.998 34.255 119.185 5.542 10.892-9.146 26.701-9.146 37.592 0 34.189 28.714 86.131 27.883 119.185-5.542 14.883-15.05 23.658-34.481 25.187-55.358h10.055c3.755 38.381-5.159 76.651-25.548 109.25zm-269.042-109.25c3.205 22.513 22.6 39.882 45.984 39.882s42.779-17.369 45.984-39.882h58.795c3.205 22.513 22.6 39.882 45.984 39.882s42.779-17.369 45.984-39.882h26.775c-3.238 36.599-33.953 66.493-72.759 66.493-17.155 0-33.825-6.065-46.939-17.08-16.481-13.841-40.403-13.841-56.885 0-13.113 11.014-29.783 17.08-46.938 17.08-38.831 0-69.523-29.915-72.759-66.493zm15.217 0h61.533c-3.032 14.199-15.675 24.882-30.766 24.882s-27.734-10.683-30.767-24.882zm150.763 0h61.532c-3.032 14.199-15.675 24.882-30.766 24.882s-27.734-10.683-30.766-24.882zm-263.669-38.41c0-6.302 5.127-11.429 11.429-11.429h78.835c4.142 0 7.5-3.358 7.5-7.5s-3.358-7.5-7.5-7.5h-40.798l40.734-83.986c8.26-17.029 25.826-28.032 44.752-28.032h15.807c10.616 0 21.154 3.488 29.673 9.821 23.102 17.174 54.144 17.173 77.245 0 8.518-6.333 19.056-9.821 29.672-9.821h15.807c18.926 0 36.492 11.003 44.751 28.032l40.734 83.986h-268.377c-4.142 0-7.5 3.358-7.5 7.5s3.358 7.5 7.5 7.5h306.416c6.302 0 11.429 5.127 11.429 11.429v11.981c0 6.302-5.127 11.429-11.429 11.429-14.453 0-400.866 0-415.251 0-6.302 0-11.429-5.127-11.429-11.429z"/></g></g></svg>