<svg id="Capa_1" enable-background="new 0 0 512 512" height="512" viewBox="0 0 512 512" width="512" xmlns="http://www.w3.org/2000/svg"><g><g><path d="m497.664 217.805c9.114-12.363 9.114-29.221 0-41.584-9.114-12.363-9.114-29.221 0-41.584 9.114-12.363 9.114-29.221 0-41.584-10.46-14.189-29.338-19.257-45.499-12.214-15.691 6.838-35.201 19.036-52.705 40.708v150.936c17.504 21.671 37.014 33.87 52.705 40.708 16.16 7.042 35.038 1.975 45.499-12.214 9.114-12.363 9.114-29.221 0-41.584-9.114-12.367-9.114-29.224 0-41.588z" fill="#c6ade3"/><path d="m14.336 217.805c-9.114-12.363-9.114-29.221 0-41.584 9.114-12.363 9.114-29.221 0-41.584-9.114-12.363-9.114-29.221 0-41.584 10.46-14.189 29.338-19.257 45.499-12.214 15.691 6.838 35.201 19.036 52.705 40.708v150.936c-17.504 21.671-37.014 33.87-52.705 40.708-16.16 7.042-35.038 1.975-45.499-12.214-9.114-12.363-9.114-29.221 0-41.584 9.114-12.367 9.114-29.224 0-41.588z" fill="#c6ade3"/><path d="m432.965 91.17c-11.014 7.135-22.645 16.929-33.505 30.375v150.936c11.717 14.507 24.329 24.753 36.097 32.004 17.947-30.72 28.249-66.427 28.249-104.5 0-39.869-11.296-77.145-30.841-108.815z" fill="#b08bd7"/><path d="m79.035 91.17c-19.545 31.67-30.841 68.946-30.841 108.815 0 38.073 10.301 73.78 28.249 104.5 11.768-7.251 24.38-17.497 36.097-32.004v-150.936c-10.86-13.446-22.492-23.24-33.505-30.375z" fill="#b08bd7"/><path d="m407.88 489.821c0-98.606-68.541-132.744-68.541-132.744h-166.678s-68.541 34.137-68.541 132.744z" fill="#5bd6fd"/><path d="m202.661 357.077h-30s-68.541 34.137-68.541 132.744h30c0-98.607 68.541-132.744 68.541-132.744z" fill="#00c4fc"/><g><path d="m256 453.122c-1.4 0-2.801-.196-4.159-.588-2.009-.579-20.152-6.14-38.46-22.779-17.078-15.521-37.418-43.919-37.339-91.069l30.013.051c-.097 57.196 37.283 77.993 49.961 83.397 12.779-5.404 50.026-26.078 49.929-83.397l30.013-.051c.08 47.151-20.261 75.549-37.339 91.069-18.308 16.638-36.452 22.199-38.46 22.779-1.359.391-2.759.588-4.159.588z" fill="#f9f097"/></g><circle cx="256" cy="199.985" fill="#a4e6ff" r="177.806"/><g fill="#e8e8e8"><ellipse cx="154.446" cy="210.158" rx="37.471" ry="29.84"/><ellipse cx="357.554" cy="210.158" rx="37.471" ry="29.84"/></g><g fill="#ffa2e7"><path d="m362.057 118.194c-6.144-11.266-19.494-16.529-31.645-12.402-20.99 7.129-46.986 11.066-74.412 11.066s-53.422-3.938-74.412-11.067c-12.151-4.127-25.501 1.136-31.645 12.402-7.83 14.358-.923 32.427 14.572 37.658 26.684 9.008 58.577 13.97 91.485 13.97s64.801-4.962 91.485-13.97c15.495-5.23 22.402-23.298 14.572-37.657z"/><path d="m279.742 212.049h-47.483c-19.119 0-34.617 15.499-34.617 34.617 0 19.118 15.499 34.617 34.617 34.617h47.483c19.118 0 34.617-15.499 34.617-34.617 0-19.119-15.499-34.617-34.617-34.617z"/><ellipse cx="256" cy="438.115" rx="19.457" ry="25.598"/></g></g><g><path d="m327.971 98.761c-41.782 14.191-102.055 14.224-143.936 0-15.62-5.305-32.704 1.385-40.623 15.906-10.088 18.498-1.088 41.636 18.749 48.333 2.215.748 4.469 1.457 6.741 2.148-.144 1.074-.044.264-.075 16.318 0 4.14 3.356 7.497 7.497 7.497 4.14 0 7.497-3.356 7.497-7.497v-12.266c45.495 10.869 98.781 10.891 144.366 0v12.266c0 4.14 3.356 7.497 7.497 7.497 4.14 0 7.497-3.356 7.497-7.497-.031-16.025.069-15.246-.075-16.318 2.271-.691 4.526-1.4 6.74-2.148 19.884-6.713 28.814-29.877 18.749-48.333-7.919-14.522-25.004-21.212-40.624-15.906zm17.078 50.033c-53.523 18.068-124.362 18.138-178.092 0-5.219-1.761-9.371-5.735-11.393-10.9-5.875-15.012 8.479-30.092 23.649-24.936 45.097 15.316 108.567 15.288 153.58 0 8.698-2.954 18.218.784 22.638 8.888 5.614 10.295.654 23.223-10.382 26.948z"/><path d="m232.272 204.572c-23.213 0-42.098 18.885-42.098 42.098s18.885 42.098 42.098 42.098h47.462c23.213 0 42.098-18.886 42.098-42.098 0-23.213-18.885-42.098-42.098-42.098zm74.567 42.098c0 14.945-12.159 27.105-27.105 27.105h-47.462c-14.946 0-27.105-12.16-27.105-27.105 0-14.946 12.159-27.105 27.105-27.105h47.462c14.946 0 27.105 12.159 27.105 27.105z"/><path d="m224.533 246.67c0 4.14 3.356 7.497 7.497 7.497h47.947c4.14 0 7.497-3.356 7.497-7.497 0-4.14-3.356-7.497-7.497-7.497h-47.947c-4.141 0-7.497 3.357-7.497 7.497z"/><path d="m62.921 320.035c12.837-5.593 24.812-13.131 35.711-22.457 15.05 24.186 35.513 44.664 59.688 59.731-36.226 26.39-61.624 72.475-61.624 132.406 0 4.14 3.356 7.497 7.497 7.497h303.624c4.14 0 7.497-3.356 7.497-7.497 0-29.731-6.041-56.774-17.955-80.379-1.865-3.696-6.374-5.18-10.07-3.315-3.696 1.866-5.18 6.375-3.314 10.071 9.847 19.509 15.287 41.724 16.206 66.126h-47.877v-44.948c0-4.141-3.356-7.497-7.497-7.497-4.14 0-7.497 3.356-7.497 7.497v44.949h-162.612v-44.949c0-4.141-3.356-7.497-7.497-7.497-4.14 0-7.497 3.356-7.497 7.497v44.949h-47.879c1.311-35.551 12.038-65.954 31.935-90.461 10.569-13.018 21.243-21.047 27.29-25.011 7.115 38.537 29.623 68.082 60.434 84.981 4.25 11.425 13.638 19.388 24.518 19.388s20.268-7.963 24.519-19.388c30.855-16.921 53.335-46.497 60.438-84.999 6.107 3.99 16.966 12.164 27.785 25.654 2.59 3.23 7.308 3.749 10.538 1.158s3.748-7.309 1.158-10.539c-9.711-12.109-19.546-20.463-26.75-25.695 24.173-15.067 44.636-35.545 59.685-59.73 10.899 9.326 22.875 16.864 35.711 22.457 5.912 2.576 12.094 3.817 18.191 3.817 35.384 0 57.793-39.78 36.317-68.912-7.203-9.771-7.203-22.899 0-32.669 11.125-15.092 11.125-35.371 0-50.463-7.203-9.771-7.203-22.899 0-32.669 11.125-15.092 11.125-35.371 0-50.463-12.611-17.106-35.026-23.123-54.507-14.633-13.842 6.032-26.638 14.285-38.154 24.576-53.76-81.866-159.349-106.334-242.176-62.024-3.65 1.953-5.027 6.496-3.074 10.146 1.953 3.651 6.497 5.027 10.146 3.074 89.421-47.838 201.523-6.763 238.648 88.025 54.914 139.548-84.738 274.623-220.9 220.545-46.366-18.34-81.34-55.795-97.458-99.907-25.027-68.246-4.005-146.407 55.113-192.64 3.261-2.55 3.838-7.262 1.287-10.523-2.55-3.261-7.261-3.838-10.523-1.287-16.284 12.734-30.053 27.784-41.029 44.496-11.489-10.247-24.248-18.467-38.046-24.48-19.483-8.489-41.897-2.473-54.508 14.633-11.125 15.092-11.125 35.371 0 50.463 7.203 9.77 7.203 22.898 0 32.669-11.125 15.092-11.125 35.371 0 50.463 7.203 9.77 7.203 22.898 0 32.669-21.508 29.176.979 68.912 36.317 68.912 6.095 0 12.279-1.241 18.191-3.817zm392.154-232.247c13.029-5.677 28.017-1.653 36.45 9.785 7.202 9.771 7.202 22.899 0 32.669-11.126 15.092-11.126 35.371 0 50.463 7.202 9.771 7.202 22.899 0 32.669-11.126 15.092-11.126 35.371 0 50.463 7.202 9.77 7.202 22.899 0 32.669-8.433 11.439-23.421 15.463-36.45 9.785-12.318-5.367-23.77-12.752-34.113-21.987 2.585-5.055 4.923-10.228 7.026-15.495 9.526 7.306 19.887 12.794 30.924 16.352 3.932 1.268 8.163-.889 9.435-4.836 1.27-3.941-.895-8.164-4.835-9.435-10.887-3.509-21.045-9.255-30.259-17.096 4.501-14.755 7.174-30.474 7.808-46.287h27.185c4.14 0 7.497-3.356 7.497-7.497 0-4.14-3.356-7.497-7.497-7.497h-27.185c-.629-15.689-3.231-31.231-7.809-46.287 9.214-7.841 19.373-13.588 30.259-17.097 3.941-1.27 6.106-5.495 4.835-9.435-1.27-3.94-5.493-6.106-9.435-4.835-11.039 3.558-21.402 9.048-30.929 16.355-2.666-6.668-5.707-13.194-9.146-19.525 10.864-10.117 23.03-18.145 36.239-23.901zm-166.559 294.585c-6.304 11.84-14.647 19.899-22.024 25.186-6.53-3.4-14.115-3.549-20.919-.029-7.368-5.298-15.702-13.352-22.014-25.146 20.574 3.65 42.94 3.904 64.957-.011zm-100.93-10.201c5.782 2.3 11.676 4.307 17.642 6.006 7.123 19.12 18.79 31.756 29.289 39.82-2.731 4.433-4.464 9.677-5.128 14.84-20.922-14.502-35.316-35.5-41.803-60.666zm68.417 83.951c-5.088 0-9.542-5.117-11.226-12.059-1.8-7.402-.141-17.003 5.561-21.834 9.9-8.377 20.414 7.313 16.896 21.816-1.681 6.951-6.139 12.077-11.231 12.077zm26.615-23.286c-.648-5.083-2.369-10.341-5.096-14.787 10.513-8.051 22.191-20.695 29.302-39.885 5.95-1.696 11.829-3.699 17.597-5.993-6.457 25.048-20.782 46.092-41.803 60.665zm-262.137-136.332c-7.202-9.77-7.202-22.899.001-32.669 11.125-15.092 11.125-35.371-.001-50.463-7.202-9.77-7.202-22.898.001-32.669 11.125-15.092 11.125-35.371-.001-50.463-7.202-9.77-7.202-22.898.001-32.669 8.464-11.481 23.467-15.441 36.449-9.785 13.186 5.746 25.333 13.758 36.181 23.852-3.435 6.322-6.494 12.838-9.164 19.523-9.513-7.283-19.854-12.757-30.855-16.303-3.939-1.271-8.165.894-9.435 4.835s.895 8.165 4.835 9.435c10.855 3.499 20.996 9.233 30.201 17.052-4.528 15.006-7.118 30.473-7.748 46.332h-27.186c-4.14 0-7.497 3.356-7.497 7.497 0 4.14 3.356 7.497 7.497 7.497h27.185c.677 16.873 3.335 30.952 7.807 46.285-9.215 7.842-19.374 13.59-30.258 17.098-3.941 1.27-6.106 5.495-4.835 9.435 1.266 3.927 5.48 6.108 9.435 4.835 11.034-3.557 21.396-9.047 30.923-16.353 2.103 5.267 4.442 10.441 7.027 15.496-10.343 9.235-21.795 16.619-34.113 21.987-13.03 5.678-28.017 1.654-36.45-9.785z"/></g></g></svg>