<svg id="Capa_1" enable-background="new 0 0 512 512" height="512" viewBox="0 0 512 512" width="512" xmlns="http://www.w3.org/2000/svg"><g><g><path d="m132.901 403.519-40.267.119c-7.314.022-11.72 8.114-7.768 14.269l21.765 33.9c12.539 19.53 43.042 20.243 54.651-3.734 9.997-20.654-5.436-44.622-28.381-44.554z" fill="#f9f097"/><path d="m379.099 403.519 40.267.119c7.314.022 11.72 8.114 7.768 14.269l-21.765 33.9c-12.539 19.53-43.042 20.243-54.651-3.734-9.997-20.654 5.436-44.622 28.381-44.554z" fill="#f9f097"/><path d="m340.096 378.596s65.054 31.622 65.054 125.904h-298.3c0-94.281 65.054-125.904 65.054-125.904z" fill="#ff748f"/><path d="m201.904 378.596h-30s-65.054 31.623-65.054 125.904h30c0-94.281 65.054-125.904 65.054-125.904z" fill="#fd5f7e"/><path d="m65.052 182.414-39.487 21.378c-7.173 3.883-7.227 14.158-.096 18.117l39.278 21.805c22.512 12.497 50.797-2.869 51.72-28.6.021-.597.032-1.196.032-1.798 0-.712-.015-1.421-.045-2.126-1.086-25.564-28.9-40.958-51.402-28.776z" fill="#f9f097"/><path d="m446.948 182.414 39.487 21.378c7.173 3.883 7.227 14.158.096 18.117l-39.278 21.805c-22.512 12.497-50.797-2.869-51.72-28.6-.021-.597-.032-1.196-.032-1.798 0-.712.015-1.421.045-2.126 1.086-25.564 28.9-40.958 51.402-28.776z" fill="#f9f097"/><circle cx="256" cy="213.301" fill="#a4e6ff" r="185.42"/><path d="m100.58 213.301c0-97.354 75.031-177.177 170.42-184.814-4.948-.396-9.95-.606-15-.606-102.405 0-185.42 83.016-185.42 185.42 0 102.405 83.015 185.42 185.42 185.42 5.05 0 10.052-.209 15-.605-95.389-7.638-170.42-87.461-170.42-184.815z" fill="#5bd6fd"/><path d="m286.887 52.4-21.378-39.487c-3.883-7.173-14.158-7.227-18.117-.096l-21.805 39.278c-12.497 22.512 2.869 50.797 28.6 51.72.597.021 1.196.032 1.798.032.712 0 1.421-.015 2.126-.045 25.564-1.086 40.958-28.901 28.776-51.402z" fill="#f9f097"/><path d="m225.113 374.202 21.378 39.487c3.883 7.173 14.158 7.227 18.117.096l21.805-39.278c12.497-22.512-2.869-50.797-28.6-51.72-.597-.021-1.196-.032-1.798-.032-.712 0-1.421.015-2.126.045-25.564 1.086-40.958 28.901-28.776 51.402z" fill="#f9f097"/><g fill="#fccb88"><path d="m134.019 67.671-43.038-12.805c-7.818-2.326-15.121 4.901-12.878 12.743l12.355 43.191c7.081 24.755 37.947 33.89 56.795 16.348.437-.407.869-.823 1.294-1.249.504-.504.994-1.016 1.471-1.535 17.309-18.844 8.527-49.396-15.999-56.693z"/><path d="m134.019 358.931-43.039 12.805c-7.818 2.326-15.121-4.901-12.878-12.743l12.355-43.192c7.081-24.755 37.947-33.89 56.795-16.348.437.407.869.823 1.294 1.249.504.504.994 1.016 1.471 1.535 17.31 18.844 8.528 49.397-15.998 56.694z"/><path d="m377.981 67.671 43.039-12.805c7.818-2.326 15.121 4.901 12.878 12.743l-12.356 43.191c-7.081 24.755-37.947 33.89-56.795 16.348-.437-.407-.869-.823-1.294-1.249-.504-.504-.994-1.016-1.471-1.535-17.309-18.844-8.527-49.396 15.999-56.693z"/><path d="m377.981 358.931 43.039 12.805c7.818 2.326 15.121-4.901 12.878-12.743l-12.355-43.192c-7.081-24.755-37.947-33.89-56.795-16.348-.437.407-.869.823-1.294 1.249-.504.504-.994 1.016-1.471 1.535-17.31 18.844-8.528 49.397 15.998 56.694z"/></g><path d="m345.664 151.785c30.036 0 54.386 24.349 54.386 54.386 0 .626-.011 1.249-.032 1.87-1.286 38.062-41.419 61.833-76.243 46.418-8.235-3.645-17.501-9.424-25.365-18.551-10.662-12.375-26.09-19.62-42.424-19.62-16.334 0-31.762 7.245-42.424 19.62-7.864 9.127-17.131 14.906-25.365 18.551-34.824 15.414-74.957-8.357-76.243-46.418-.021-.621-.032-1.244-.032-1.87 0-30.036 24.349-54.386 54.386-54.386z" fill="#ff748f"/></g><g><path d="m345.666 144.275h-179.362c-34.95 0-63.038 29.053-61.851 64.011 1.483 43.897 47.578 70.375 86.777 53.025 11.088-4.908 20.512-11.81 28.012-20.514 19.471-22.6 53.881-22.755 73.487 0 21.627 25.1 57.383 34.644 86.548 16.353 17.265-10.828 27.558-28.638 28.242-48.866 1.17-35.161-27.085-64.009-61.853-64.009zm-18.853 103.319c-9.039-4.001-16.683-9.582-22.72-16.589-25.483-29.577-70.663-29.658-96.216 0-6.037 7.007-13.681 12.588-22.719 16.589-29.786 13.183-64.599-6.852-65.714-39.815-.896-26.589 20.469-48.503 46.86-48.503h179.362c25.854 0 46.887 21.034 46.887 46.887 0 33.768-35.338 54.888-65.74 41.431z"/><path d="m170.844 186.581c-4.142 0-7.5 3.358-7.5 7.5v16.363c0 4.142 3.358 7.5 7.5 7.5 4.143 0 7.5-3.358 7.5-7.5v-16.363c0-4.142-3.357-7.5-7.5-7.5z"/><path d="m341.156 186.581c-4.142 0-7.5 3.358-7.5 7.5v16.363c0 4.142 3.358 7.5 7.5 7.5s7.5-3.358 7.5-7.5v-16.363c0-4.142-3.358-7.5-7.5-7.5z"/><path d="m278.819 242.4c-3.123-2.722-7.861-2.396-10.582.727-6.497 7.455-18.013 7.415-24.475 0-2.721-3.123-7.459-3.448-10.582-.727s-3.448 7.459-.727 10.582c12.438 14.271 34.62 14.312 47.092 0 2.723-3.123 2.398-7.861-.726-10.582z"/><path d="m490.013 197.188c-39.906-21.422-39.837-21.99-45.316-23.98-3.857-18.194-10.324-35.778-19.245-52.145 3.638-6.911 3.304-9.219 15.661-51.405 3.867-13.517-8.752-26.004-22.228-21.994l-43.04 12.805c-.501.149-.988.326-1.481.492-27.795-21.633-60.663-35.136-95.553-39.247l-6.706-12.388c-6.706-12.384-24.459-12.434-31.27-.166l-6.922 12.469c-35.176 4.011-68.298 17.543-96.284 39.328-2.786-.938 4.12 1.21-44.512-13.294-13.477-4.01-26.094 8.477-22.228 21.994 12.606 43.039 12.044 44.529 15.654 51.392-8.921 16.368-15.387 33.957-19.242 52.159-5.461 1.984-4.663 2.157-45.312 23.978-12.364 6.695-12.458 24.446-.165 31.27 40.096 22.051 39.631 22.475 45.409 24.582 3.848 18.314 10.341 36.014 19.317 52.481-3.636 6.907-3.321 9.279-15.661 51.404-3.867 13.519 8.752 26.002 22.228 21.994 15.205-4.535 42.186-12.511 44.521-13.297 6.278 4.886 12.813 9.361 19.573 13.403-5.399 3.939-12.191 9.618-19.21 17.314-4.535-.584-3.684-.218-45.391-.206-13.219.039-21.201 14.697-14.059 25.822 22.301 34.378 21.719 34.642 25.788 39.088-3.09 12.759-4.992 27.202-4.992 43.455 0 4.142 3.358 7.5 7.5 7.5h298.308c4.142 0 7.5-3.358 7.5-7.5 0-16.253-1.902-30.696-4.992-43.455 4.109-4.49 3.793-5.181 25.788-39.088 7.142-11.124-.839-25.783-14.058-25.822-41.735-.01-40.799-.381-45.389.208-7.021-7.698-13.815-13.38-19.215-17.319 6.76-4.042 13.295-8.515 19.573-13.402 2.772.935-3.981-1.168 44.524 13.299 13.476 4.01 26.096-8.476 22.229-21.995-12.646-43.181-12.056-44.573-15.665-51.397 8.978-16.469 15.472-34.171 19.321-52.488 5.776-2.107 5.19-2.464 45.408-24.582 12.292-6.82 12.197-24.572-.166-31.267zm-66.85-135.146c2.163-.644 4.141 1.349 3.528 3.491l-12.355 43.194c-6.306 22.038-36.378 28.248-49.978 6.369-9.192-15.057-1.397-35.14 15.765-40.249zm-334.325 0c43.661 13.122 45.094 12.882 49.938 15.949 13.281 8.429 17.844 27.733 5.715 41.29-16.446 17.912-41.432 8.302-46.827-10.554l-12.355-43.194c-.617-2.156 1.375-4.131 3.529-3.491zm-24.561 172.829-35.174-19.527c-1.945-1.08-1.962-3.888.026-4.964l35.194-19.054c-1.658 14.608-1.607 29.504-.046 43.545zm24.561 129.673c-2.161.644-4.142-1.347-3.529-3.491 13.636-46.017 11.942-47.917 19.676-55.418 11.088-10.698 29.488-11.13 40.805 3.205 11.941 15.104 4.328 37.471-13.912 42.899zm2.335 49.308c-.759-1.182.077-2.712 1.48-2.716l33.667-.1c-6.732 9.755-12.249 20.403-16.503 31.854zm328.176-2.717c1.403.004 2.236 1.538 1.479 2.716l-18.643 29.037c-4.254-11.451-9.771-22.099-16.503-31.854.116.002 33.775.102 33.667.101zm-21.842 85.865h-46.659v-37.293c0-4.142-3.358-7.5-7.5-7.5-4.143 0-7.5 3.358-7.5 7.5v37.293h-159.694v-37.293c0-4.142-3.358-7.5-7.5-7.5-4.143 0-7.5 3.358-7.5 7.5v37.293h-46.664c1.999-51.948 26.347-90.816 57.645-109.926 19.698 9.528 40.486 15.389 61.058 17.802l6.704 12.383c6.155 11.367 22.108 12.659 29.957 2.193 1.259-1.682 1.253-2.023 8.236-14.497 20.726-2.348 41.766-8.203 61.78-17.885 11.921 7.271 54.811 38.327 57.637 109.93zm-117.65-126.136c-.259.467-21.684 39.073-21.899 39.42-1.137 1.81-3.864 1.687-4.87-.167l-21.379-39.488c-9.591-17.715 2.571-39.493 22.498-40.338 23.936-1.014 35.341 23.117 25.65 40.573zm143.306-6.32-43.04-12.806c-16.625-4.946-24.467-23.956-16.562-38.855 2.931-5.535 8.849-11.445 16.285-13.797 3.96-1.252 6.137-5.477 4.891-9.42-1.249-3.95-5.462-6.139-9.412-4.891-31.346 9.916-40.539 50.838-15.162 72.76-20.947 15.164-45.653 26.093-72.918 30.927 4.266-8.242 7.926-12.577 9.982-21.37 5.943-25.418-12.646-53.104-43.656-51.79-31.016 1.317-49.918 35.013-35.054 62.467l5.744 10.609c-26.465-4.741-51.249-15.512-72.425-30.842 20.439-17.656 19.88-50.26-3.788-67.085-15.122-10.796-36.235-10.2-51.24 2.363-24.797-49.608-25.132-108.783-.009-159.053 14.614 12.23 36.779 13.967 53.121.955 22.394-17.976 21.292-48.938 1.911-65.674 21.752-15.748 46.592-26.278 72.935-30.936-3.434 7.565-14.136 19.056-10.338 38.894.778 4.068 4.705 6.736 8.776 5.957 4.068-.778 6.736-4.707 5.957-8.776-.944-4.93-.509-9.711 1.008-14.062 1.359-3.9 23.78-43.677 23.78-43.677 1.105-1.989 3.906-1.926 4.964.027 7.24 13.372 17.133 31.645 21.379 39.488 9.262 17.108-1.759 38.181-20.775 40.21-6.609.705-12.853-.456-18.296-3.943-3.487-2.234-8.126-1.218-10.361 2.27-2.234 3.488-1.218 8.127 2.269 10.362 6.963 4.457 14.62 6.479 22.855 6.479 33.356 0 52.431-34.934 37.499-62.519l-5.749-10.619c26.145 4.704 50.816 15.206 72.43 30.852-16.438 14.199-21.022 40.853-3.686 60.397 15.37 16.679 41.101 19.074 58.715 4.325 24.114 48.24 25.822 107.402-.006 159.058-1.241-1.036-2.538-1.998-3.672-2.753-4.749-3.165-11.124-.057-11.629 5.563-.243 2.652.937 5.35 3.308 6.931 5.586 3.725 9.401 9.2 11.143 15.29l12.355 43.193c.613 2.144-1.367 4.134-3.529 3.491zm59.734-149.2-35.174 19.527c1.601-14.363 1.572-29.28-.045-43.546l35.193 19.054c1.962 1.063 1.998 3.87.026 4.965z"/></g></g></svg>