<svg id="Capa_1" enable-background="new 0 0 512 512" height="512" viewBox="0 0 512 512" width="512" xmlns="http://www.w3.org/2000/svg"><g><g><path d="m361.679 492.705 39.91-22.496c19.232-10.84 25.567-35.514 13.937-54.279-2.37-3.824-7.335-5.099-11.255-2.89l-31.915-9.795-45.39 53.368z" fill="#5c586f"/><path d="m150.321 492.705-39.91-22.496c-19.232-10.84-25.567-35.514-13.937-54.279 2.37-3.824 7.335-5.099 11.255-2.89l31.915-9.795 45.39 53.368z" fill="#5c586f"/><path d="m430.539 351.812c-2.37-3.824-7.335-5.099-11.255-2.89l-77.305 43.573-5.592 58.808 80.214-45.213c19.233-10.84 25.568-35.514 13.938-54.278z" fill="#77718c"/><path d="m81.461 351.812c2.37-3.824 7.335-5.099 11.255-2.89l77.305 43.573 5.592 58.808-80.215-45.213c-19.232-10.84-25.567-35.514-13.937-54.278z" fill="#77718c"/><path d="m499.501 202.63-13.449-18.061-35.189-7.458-44.594 62.222-.586 59.071 87.775-59.811c11.873-8.09 14.62-24.438 6.043-35.963z" fill="#f9f097"/><path d="m12.499 202.63 13.449-18.061 35.189-7.458 44.594 62.222.586 59.071-87.775-59.811c-11.873-8.09-14.62-24.438-6.043-35.963z" fill="#f9f097"/><path d="m499.501 143.559-13.454-18.057-41.082-3.366-38.695 58.127-.586 59.071 87.775-59.811c11.872-8.091 14.619-24.438 6.042-35.964z" fill="#fccb88"/><path d="m499.501 84.489-8.439-11.341c-2.686-3.61-7.741-4.459-11.459-1.925l-73.332 49.97-.586 59.071 87.775-59.811c11.871-8.091 14.618-24.439 6.041-35.964z" fill="#f9f097"/><path d="m12.499 143.559 13.454-18.057 41.082-3.366 38.695 58.127.586 59.071-87.775-59.811c-11.872-8.091-14.619-24.438-6.042-35.964z" fill="#fccb88"/><path d="m12.499 84.489 8.439-11.341c2.686-3.61 7.741-4.459 11.459-1.925l73.333 49.97.586 59.071-87.775-59.811c-11.872-8.091-14.619-24.439-6.042-35.964z" fill="#f9f097"/><path d="m329.362 367.641h-146.724s-56.879 33.481-56.879 133.222h103.951l26.29-15.805 26.289 15.805h103.951c0-99.741-56.878-133.222-56.878-133.222z" fill="#f9f097"/><path d="m212.638 367.641h-30s-56.879 33.481-56.879 133.222h30c.001-99.741 56.879-133.222 56.879-133.222z" fill="#fccb88"/><circle cx="256" cy="196.918" fill="#77718c" r="185.78"/><path d="m100.22 196.918c0-97.554 75.192-177.538 170.78-185.176-4.949-.396-9.95-.604-15-.604-102.604 0-185.78 83.176-185.78 185.78s83.177 185.78 185.78 185.78c5.05 0 10.051-.209 15-.604-95.588-7.639-170.78-87.623-170.78-185.176z" fill="#5c586f"/><path d="m398.828 149.088c-13.576-23.464-42.94-32.455-67.356-20.675-21.469 10.358-43.721 16.309-58.449 19.459-11.219 2.4-22.827 2.4-34.046 0-14.728-3.15-36.979-9.102-58.449-19.459-24.416-11.779-53.78-2.789-67.356 20.675-15.397 26.61-4.471 60.968 23.726 73.22 12.858 5.587 28.278 9.304 46.05 8.459 6.75-.321 11.599 6.425 9.088 12.698-10.266 25.65-19.712 75.921 63.965 75.921s74.231-50.271 63.965-75.921c-2.511-6.273 2.338-13.019 9.088-12.698 17.772.845 33.192-2.871 46.05-8.459 28.195-12.252 39.121-46.61 23.724-73.22z" fill="#f9f097"/><path d="m263.677 423.703-7.677-7.678-7.677 7.677c-11.917 11.917-18.612 28.079-18.612 44.932v32.228h52.578v-32.228c0-16.852-6.695-33.015-18.612-44.931z" fill="#fccb88"/></g><g><path d="m405.307 145.354c-15.439-26.684-49.306-37.083-77.103-23.673-20.742 10.006-42.313 15.79-56.756 18.879-10.254 2.193-20.652 2.193-30.907 0-14.443-3.09-36.013-8.873-56.756-18.879-27.796-13.41-61.664-3.011-77.103 23.673-17.66 30.52-5.006 69.845 27.227 83.851 15.718 6.83 32.336 9.883 49.392 9.071 1.314-.065 2.248 1.222 1.768 2.42-19.687 49.188.063 86.203 70.924 86.203 35.013 0 58.629-8.662 70.193-25.746 12.948-19.128 7.544-43.435.731-60.457-.479-1.196.449-2.484 1.769-2.42 17.05.811 33.673-2.241 49.392-9.071 32.211-13.995 44.901-53.31 27.229-83.851m-33.204 70.094c-13.593 5.907-27.964 8.546-42.702 7.846-12.204-.58-20.943 11.641-16.406 22.975 18.663 46.629-5.951 65.63-56.999 65.63-51.036 0-75.665-18.992-56.999-65.63 4.54-11.342-4.221-23.567-16.406-22.975-14.743.701-29.109-1.939-42.703-7.846-24.505-10.649-33.151-40.236-20.222-62.583 11.532-19.931 36.834-27.695 57.603-17.675 22.082 10.653 44.89 16.776 60.136 20.038 12.336 2.639 24.845 2.639 37.182 0 15.246-3.261 38.055-9.385 60.135-20.038 20.77-10.02 46.071-2.255 57.603 17.676 12.911 22.312 4.32 51.917-20.222 62.582z"/><path d="m182.638 173.647c-4.142 0-7.5 3.358-7.5 7.5v15.188c0 4.142 3.358 7.5 7.5 7.5s7.5-3.357 7.5-7.5v-15.188c-.001-4.143-3.359-7.5-7.5-7.5z"/><path d="m329.353 173.647c-4.142 0-7.5 3.358-7.5 7.5v15.188c0 4.142 3.358 7.5 7.5 7.5s7.5-3.357 7.5-7.5v-15.188c0-4.143-3.358-7.5-7.5-7.5z"/><path d="m284.254 219.178c-3.123-2.721-7.86-2.396-10.581.727-9.343 10.721-25.983 10.753-35.354 0-2.721-3.123-7.459-3.448-10.581-.727-3.123 2.721-3.448 7.458-.727 10.581 15.34 17.603 42.646 17.584 57.97 0 2.72-3.122 2.395-7.859-.727-10.581z"/><path d="m14.326 244.808 76.223 51.94c18.649 30.797 45.648 55.997 77.838 72.435-2.65 2.358-5.658 5.276-8.856 8.8l-63.128-35.583c-7.448-4.198-16.808-1.794-21.311 5.472-6.711 10.828-8.663 23.586-5.494 35.925 3.026 11.788 10.34 21.651 20.663 27.964-13.844 21.475-7.145 51.675 16.472 64.987l12.125 6.834c-.381 5.536-.595 11.287-.595 17.284 0 4.142 3.358 7.5 7.5 7.5h260.467c4.142 0 7.5-3.358 7.5-7.5 0-5.997-.214-11.748-.595-17.284l12.125-6.834c23.808-13.42 30.183-43.718 16.472-64.987 21.781-13.32 28.789-41.914 15.169-63.89-4.503-7.265-13.865-9.668-21.311-5.471l-17.631 9.938c-3.608 2.034-4.885 6.608-2.851 10.216s6.607 4.885 10.216 2.851l17.631-9.938c.419-.236.945-.101 1.197.307 9.376 15.127 4.317 35.021-11.244 43.792l-34.542 19.47c-4.686-10.979-10.33-20.835-16.351-29.219l18.545-10.453c3.608-2.034 4.884-6.608 2.851-10.216-2.034-3.608-6.607-4.885-10.216-2.851l-20.733 11.687c-3.199-3.525-6.207-6.443-8.856-8.801 32.189-16.439 59.189-41.638 77.837-72.435l76.224-51.94c15.384-10.483 18.989-31.647 7.835-46.636-13.559-18.209-6.824-9.164-8.778-11.789.393-.396 12.215-6.871 14.805-22.29 2.54-15.117-5.977-24.88-6.029-24.992l-8.779-11.783c.408-.411 12.213-6.842 14.808-22.292 1.493-8.886-.647-17.76-6.026-24.989l-8.439-11.341c-5.103-6.858-14.634-8.458-21.698-3.645l-51.953 35.402c-51.443-88.912-162.009-121.424-252.343-77.162-3.72 1.823-5.258 6.315-3.435 10.034 1.823 3.72 6.316 5.257 10.034 3.435 24.504-12.007 50.857-18.094 78.326-18.094 105.415 0 189.583 91.935 177.026 199.287-10.433 88.429-85.838 157.254-177.026 157.254-133.664 0-220.225-142.74-157.951-261 12.871-24.517 31.596-46.03 54.15-62.212 3.366-2.414 4.136-7.1 1.722-10.465-2.414-3.366-7.1-4.136-10.465-1.722-22.328 16.02-41.177 36.873-54.909 60.617l-51.915-35.374c-7.062-4.813-16.594-3.213-21.698 3.645l-8.439 11.341c-5.379 7.229-7.519 16.104-6.026 24.989 2.572 15.305 14.468 21.95 14.808 22.292l-8.782 11.786c-5.379 7.229-7.519 16.103-6.026 24.989 2.566 15.275 14.476 21.959 14.804 22.289l-8.779 11.79c-11.111 14.934-7.602 36.116 7.837 46.636zm479.141-37.682c6.026 8.097 4.123 19.581-4.248 25.286l-53.877 36.712c6.641-16.447 10.771-33.756 12.599-49.502l36.374-24.786zm-4.247-33.781c-26.543 18.087 24.678-16.816-39.989 27.249.249-13.26-.952-26.772-3.158-38.765l38.24-26.058 9.157 12.291c6.022 8.097 4.12 19.578-4.25 25.283zm-5.41-95.899c.398-.27.933-.18 1.219.205l8.439 11.341c6.026 8.098 4.124 19.582-4.248 25.287-4.74 3.23-41.358 28.182-46.719 31.835-3.022-11.11-7.039-21.933-12.006-32.337zm-395.969 278.327c.168-.272.459-.423.758-.423.444 0-3.579-2.098 61.379 34.465-5.893 8.16-11.658 18.221-16.352 29.219l-34.542-19.47c-15.504-8.737-20.654-28.608-11.243-43.791zm11.296 88.41c-2.142-8.343-.823-16.971 3.716-24.294.255-.41.781-.542 1.197-.307.741.418 23.5 13.246 24.243 13.664-3.499 10.718-6.099 22.118-7.771 34.056-3-2.303-17.093-6.406-21.385-23.119zm175.647 24.457v24.727h-37.576v-24.727c0-26.693 17.916-40.746 18.788-42.001l2.374 2.374c10.584 10.585 16.414 24.658 16.414 39.627zm123.11-4.959-6.425 3.622c-1.671-11.938-4.272-23.338-7.771-34.056l24.243-13.664c.418-.236.944-.101 1.197.307 9.375 15.126 4.317 35.02-11.244 43.791zm-69.417-87.537c24.789 18.539 48.355 58.395 50.139 117.223h-41.764v-41.949c0-4.142-3.358-7.5-7.5-7.5s-7.5 3.358-7.5 7.5v41.949h-32.071v-24.727c0-36.338-25.52-53.858-28.484-57.91-2.927-2.927-7.678-2.929-10.606 0-3.017 4.124-28.484 21.493-28.484 57.91v24.727h-32.071v-41.949c0-4.142-3.358-7.5-7.5-7.5s-7.5 3.358-7.5 7.5v41.949h-41.762c1.323-43.055 16.151-91.711 50.149-117.218 46.219 18.723 98.505 18.816 144.954-.005zm-309.953-287.153 8.439-11.341c.288-.386.823-.474 1.219-.205l53.315 36.33c-4.744 9.936-8.933 21.04-12.005 32.337-5.884-4.009-40.825-27.818-46.719-31.835-8.323-5.671-10.309-17.143-4.249-25.286zm-.003 59.071 9.158-12.291c15.035 10.245 28.128 19.167 38.24 26.057-2.402 13.083-3.391 26.372-3.159 38.765-.86-.586-39.783-27.109-39.988-27.249-8.355-5.694-10.285-17.173-4.251-25.282zm.001 59.066 9.153-12.292c3.717 2.533 32.834 22.374 36.374 24.786 1.876 16.155 6.038 33.252 12.599 49.502l-53.877-36.712c-8.371-5.705-10.272-17.189-4.249-25.284z"/></g></g></svg>