<svg id="Capa_1" enable-background="new 0 0 512 512" height="512" viewBox="0 0 512 512" width="512" xmlns="http://www.w3.org/2000/svg"><g><g><g fill="#5bd6fd"><path d="m225.453 504.5h61.094l33.998-94.089-33.998-40.69h-61.094l-33.998 40.69z"/><path d="m320.975 504.5h107.965s9.578-63.359-36.365-108.304l-72.03 14.214-22.378 55.019z"/><path d="m191.025 504.5h-107.965s-9.578-63.359 36.365-108.304l72.031 14.214 22.378 55.019z"/></g><path d="m153.135 402.849-33.711-6.652c-45.942 44.944-36.364 108.303-36.364 108.303h40s-8.669-57.369 30.075-101.651z" fill="#00c4fc"/><path d="m286.547 369.721v134.779h34.428c5.455-28.921 11.331-61.667 52.772-78.233 83.973-33.568 36.513-109.946 36.513-109.946z" fill="#e8e8e8"/><path d="m225.453 369.721v134.779h-34.428c-5.455-28.921-11.331-61.667-52.772-78.233-83.973-33.567-36.514-109.946-36.514-109.946z" fill="#e8e8e8"/><ellipse cx="256" cy="199.142" fill="#ff748f" rx="194.954" ry="191.642"/><path d="m125.236 332.33-.102-5.911-23.395-10.098s-47.46 76.378 36.513 109.946c-41.992-38.811-13.016-93.937-13.016-93.937z" fill="#dadad8"/><path d="m101.046 199.142c0-99.203 76.68-180.8 174.954-190.645-6.576-.659-13.247-.997-20-.997-107.67 0-194.954 85.801-194.954 191.642s87.284 191.642 194.954 191.642c6.752 0 13.424-.338 20-.997-98.275-9.844-174.954-91.442-174.954-190.645z" fill="#fd5f7e"/><path d="m385.663 105.29c-5.835-7.712-17.36-7.98-23.379-.411-15.022 18.887-48.019 48.818-106.283 48.818s-91.265-29.93-106.29-48.818c-6.021-7.568-17.546-7.299-23.38.414-19.861 26.258-31.618 58.734-31.618 93.85 0 1.818.031 3.628.094 5.431 1.275 36.823 30.04 66.791 66.817 69.033.486.03.975.057 1.468.083 4.99.259 8.98 4.204 9.27 9.192 1.238 21.314 11.472 73.344 81.811 74.23.606.01 1.212.01 1.827.01.616 0 1.222 0 1.827-.01 70.339-.887 80.573-52.916 81.811-74.23.29-4.988 4.281-8.932 9.27-9.192.493-.026.982-.053 1.467-.083 36.253-2.21 65.187-31.376 66.764-67.662.098-2.256.148-4.524.148-6.803.001-35.116-11.757-67.593-31.624-93.852z" fill="#e8e8e8"/><circle cx="173.802" cy="205.975" fill="#da9d81" r="35.55"/><circle cx="338.198" cy="205.975" fill="#da9d81" r="35.55"/><path d="m258.403 213.808h-4.807c-7.969 0-14.429 6.46-14.429 14.429 0 7.969 6.46 14.429 14.429 14.429h4.807c7.969 0 14.429-6.46 14.429-14.429 0-7.969-6.46-14.429-14.429-14.429z" fill="#da9d81"/><path d="m289.641 63.516-16.856-2.449-7.538-15.274c-3.783-7.665-14.712-7.665-18.495 0l-7.538 15.274-16.856 2.449c-8.458 1.229-11.836 11.624-5.715 17.59l12.197 11.889-2.879 16.788c-1.445 8.424 7.397 14.848 14.963 10.871l15.076-7.927 15.076 7.926c7.565 3.977 16.408-2.447 14.963-10.871l-2.879-16.788 12.197-11.889c6.12-5.966 2.742-16.36-5.716-17.589z" fill="#e8e8e8"/><g id="XMLID_9_"><path d="m256 316.321c-15.585 0-30.109-3.834-40.895-10.795-11.158-7.201-14.366-22.084-7.165-33.243 7.201-11.158 22.084-14.363 33.242-7.165 1.668 1.076 6.911 3.112 14.818 3.112 7.908 0 13.151-2.035 14.819-3.112 11.159-7.202 26.041-3.993 33.242 7.166s3.993 26.042-7.166 33.242c-10.787 6.961-25.31 10.795-40.895 10.795z" fill="#da9d81"/></g></g><g><path d="m162.702 281.181c1.171.061 2.104.979 2.172 2.137.618 10.646 3.574 31.138 16.42 48.758 15.437 21.175 39.925 32.122 72.758 32.536 30.239.503 58.773-8.008 76.655-32.536 12.846-17.621 15.802-38.112 16.42-48.759.067-1.157 1.001-2.076 2.169-2.136 42.905-2.227 73.629-35.596 75.338-74.909.585-13.443-.493-26.944-3.215-40.093-.84-4.056-4.812-6.665-8.865-5.824-4.056.84-6.664 4.809-5.824 8.865 2.44 11.787 3.454 24.03 2.918 36.401-1.377 31.652-26.093 58.801-61.128 60.58-8.82.459-15.857 7.443-16.368 16.247-.523 9.002-2.981 26.272-13.566 40.792-12.502 17.149-32.976 26.022-60.879 26.374-24.972.388-49.466-6.038-64.292-26.374-10.585-14.52-13.043-31.79-13.566-40.792-.512-8.804-7.549-15.788-16.372-16.247-35.421-1.808-60.057-29.6-61.175-61.884-1.171-33.885 9.059-66.8 30.01-94.499 2.874-3.801 8.549-4.015 11.529-.27 15.344 19.289 50.32 51.649 112.16 51.649 61.839 0 96.811-32.36 112.153-51.649 2.971-3.735 8.645-3.543 11.529.268 7.669 10.136 14.011 21.18 18.852 32.824 1.59 3.825 5.979 5.636 9.804 4.047 3.825-1.59 5.637-5.979 4.047-9.805-5.328-12.816-12.306-24.968-20.741-36.117-8.831-11.671-26.199-11.91-35.23-.555-13.66 17.175-44.87 45.987-100.414 45.987-55.545 0-86.759-28.812-100.421-45.987-4.292-5.395-10.711-8.446-17.611-8.356-6.977.085-13.399 3.334-17.62 8.915-23.248 30.737-34.315 67.052-33.038 104.065 1.376 39.756 31.775 74.07 75.391 76.347z"/><path d="m216.852 205.975c0-23.738-19.312-43.049-43.05-43.049s-43.049 19.312-43.049 43.049 19.312 43.049 43.049 43.049 43.05-19.312 43.05-43.049zm-43.05 28.049c-15.467 0-28.049-12.583-28.049-28.049 0-15.467 12.583-28.049 28.049-28.049s28.05 12.583 28.05 28.049-12.583 28.049-28.05 28.049z"/><path d="m381.247 205.975c0-23.738-19.312-43.049-43.05-43.049s-43.049 19.312-43.049 43.049 19.312 43.049 43.049 43.049 43.05-19.312 43.05-43.049zm-71.099 0c0-15.467 12.583-28.049 28.049-28.049s28.05 12.583 28.05 28.049-12.583 28.049-28.05 28.049-28.049-12.583-28.049-28.049z"/><path d="m258.403 250.166c12.091 0 21.928-9.837 21.928-21.929s-9.837-21.929-21.928-21.929h-4.807c-12.092 0-21.929 9.837-21.929 21.929s9.837 21.929 21.929 21.929zm-11.735-21.929c0-3.821 3.108-6.929 6.929-6.929h4.807c3.82 0 6.928 3.108 6.928 6.929s-3.108 6.929-6.928 6.929h-4.807c-3.821 0-6.929-3.109-6.929-6.929z"/><path d="m173.802 189.775c-4.142 0-7.5 3.358-7.5 7.5v14.5c0 4.142 3.358 7.5 7.5 7.5s7.5-3.358 7.5-7.5v-14.5c0-4.142-3.358-7.5-7.5-7.5z"/><path d="m345.698 211.775v-14.5c0-4.142-3.358-7.5-7.5-7.5s-7.5 3.358-7.5 7.5v14.5c0 4.142 3.358 7.5 7.5 7.5s7.5-3.358 7.5-7.5z"/><path d="m220.782 95.613-2.213 12.901c-2.495 14.547 12.786 25.643 25.845 18.777l11.586-6.091 11.586 6.091c13.048 6.86 28.338-4.24 25.845-18.777l-2.213-12.901 9.373-9.137c10.569-10.302 4.728-28.261-9.872-30.382-7.894-1.147-5.107-.742-12.954-1.882l-5.793-11.738c-6.532-13.236-25.417-13.229-31.946 0l-5.793 11.738-12.954 1.882c-14.606 2.122-20.436 20.085-9.872 30.382zm2.655-24.675 16.856-2.449c2.443-.355 4.555-1.889 5.647-4.103l7.538-15.274c1.037-2.101 4.007-2.101 5.043 0l7.538 15.273c1.093 2.214 3.204 3.748 5.647 4.103l16.855 2.449c2.319.337 3.237 3.161 1.559 4.797l-12.197 11.889c-1.768 1.723-2.574 4.205-2.157 6.638l2.879 16.788c.396 2.309-2.005 4.055-4.081 2.965-14.89-7.534-15.387-8.788-18.566-8.788-3.192 0-3.945 1.389-18.566 8.788-2.074 1.09-4.477-.655-4.081-2.965l2.879-16.788c.417-2.433-.389-4.916-2.157-6.639l-12.197-11.889c-1.675-1.634-.758-4.458 1.561-4.795z"/><path d="m211.038 311.828c24.797 16.003 65.121 16.005 89.924 0 14.615-9.431 18.832-28.995 9.401-43.611-9.484-14.697-29.029-18.814-43.562-9.431-.033.02-3.667 1.944-10.801 1.944-7.115 0-10.748-1.914-10.752-1.914-14.616-9.43-34.179-5.213-43.61 9.4-9.431 14.616-5.215 34.18 9.4 43.612zm3.203-35.478c4.933-7.643 15.19-9.888 22.873-4.93 8.876 5.729 28.895 5.726 37.771 0 7.683-4.959 17.914-2.754 22.873 4.931 4.947 7.666 2.735 17.928-4.93 22.874-19.777 12.761-53.724 12.863-73.657 0-7.665-4.948-9.876-15.209-4.93-22.875z"/><path d="m277.569 291.88c2.721-3.123 2.396-7.86-.727-10.582-3.122-2.722-7.86-2.396-10.582.727-5.425 6.225-15.081 6.244-20.522 0-2.721-3.123-7.459-3.448-10.582-.727-3.123 2.722-3.448 7.459-.727 10.582 11.416 13.098 31.738 13.084 43.14 0z"/><path d="m256 0c-111.634 0-202.454 89.335-202.454 199.142 0 40.836 12.711 82.324 39.274 117.813-5.641 10.939-17.89 39.652-8.524 68.095 2.958 8.982 7.764 17.067 14.368 24.227-30.449 44.158-23.35 94.152-23.02 96.343.554 3.668 3.707 6.38 7.416 6.38h345.881c3.709 0 6.862-2.712 7.416-6.38.331-2.19 7.427-52.164-23-96.315 8.388-9.083 13.852-19.651 16.317-31.656 5.118-24.92-4.79-49.659-10.544-60.71 24.704-33.013 39.325-73.754 39.325-117.797-.001-109.807-90.821-199.142-202.455-199.142zm-152.681 329.905c9.686 10.933 20.943 21.11 32.577 29.553 3.388 2.46 8.206 1.692 10.609-1.869 2.264-3.336 1.492-7.888-1.794-10.273-46.592-33.827-76.165-87.856-76.165-148.174 0-101.536 84.091-184.142 187.454-184.142s187.454 82.606 187.454 184.142c0 137.901-149.615 227.208-274.181 163.267-3.456-1.775-7.646-.608-9.715 2.583-2.441 3.753-1.079 8.747 2.855 10.768 16.925 8.697 35.759 15.302 55.539 19.003v102.237h-20.72c-.001-.003-.001-.007-.002-.011-7.356-37.921-20.081-63.259-56.194-77.686-18.926-7.568-36.141-19.709-42.479-38.901-6.272-18.99-.159-39.014 4.762-50.497zm6.638 89.441c7.732 5.721 16.544 10.303 25.511 13.886 29.792 11.914 40.156 32.181 46.477 63.769h-92.027c-.736-13.749-.056-47.364 20.039-77.655zm122.996-22.347c14.988 1.675 30.845 1.71 46.095 0v100.001h-46.095zm189.112 100.001h-92.01c4.72-23.561 11.437-42.739 31.788-56.179 13.697-9.041 22.981-8.741 40.208-21.458 19.997 30.188 20.721 63.87 20.014 77.637zm-8.622-116.598c-2.978 9.014-8.513 16.956-16.496 23.79-18.696 16.002-31.919 13.705-51.037 29.804-19.568 16.47-26.271 37.927-31.143 63.004h-20.72v-102.236c44.655-8.363 84.774-31.085 114.636-64.853 4.921 11.484 11.032 31.504 4.76 50.491z"/></g></g></svg>