<svg id="Capa_1" enable-background="new 0 0 512 512" height="512" viewBox="0 0 512 512" width="512" xmlns="http://www.w3.org/2000/svg"><g><g><path d="m415.291 504.5h-82.913l-24.015-58.414 24.015-58.414h21.468c.001 0 61.445 38.345 61.445 116.828z" fill="#e4996d"/><path d="m179.622 387.672 23.541 62.343-23.541 54.485h-82.913c0-78.483 61.445-116.828 61.445-116.828z" fill="#e4996d"/><path d="m181.456 392.53-1.834-4.858h-21.469s-61.445 38.345-61.445 116.828h30c.001-62.385 38.822-99.406 54.748-111.97z" fill="#d97c41"/><path d="m179.622 387.672h152.756v116.828h-152.756z" fill="#ececec"/><path d="m436.342 13.09c-16.367-7.453-35.159-7.453-51.526 0s-35.159 7.453-51.526 0c-16.367-7.453-35.159-7.453-51.526 0-16.367 7.453-35.159 7.453-51.526 0-16.367-7.453-35.159-7.453-51.526 0-16.367 7.453-35.159 7.453-51.526 0s-35.159-7.453-51.526 0c-17.664 8.044-28.403 26.399-26.49 45.714 2.387 24.107 11.917 55.171 42.762 72.65l164.068 20.137 164.07-20.137c30.846-17.48 40.375-48.543 42.762-72.65 1.913-19.315-8.827-37.671-26.49-45.714z" fill="#e4996d"/><path d="m121.93 131.454c-30.846-17.48-40.375-48.543-42.762-72.65-1.913-19.314 8.827-37.67 26.49-45.714 3.492-1.59 7.098-2.82 10.763-3.731-13.516-3.361-27.888-2.132-40.763 3.731-17.664 8.043-28.403 26.399-26.49 45.714 2.387 24.107 11.917 55.17 42.762 72.65z" fill="#d97c41"/><circle cx="440.988" cy="228.884" fill="#ffddcf" r="43.384"/><circle cx="71.012" cy="228.884" fill="#ffddcf" r="43.384"/><path d="m445.196 225.728c0-34.328-9.143-66.519-25.126-94.274h-328.14c-15.983 27.755-25.126 59.947-25.126 94.274 0 71.602 39.779 133.908 98.439 166.04h-.009c31.643 19.653 53.823 38.915 68.334 53.631 12.323 12.497 32.541 12.497 44.864 0 14.51-14.716 36.691-33.977 68.334-53.631h-.009c58.66-32.132 98.439-94.438 98.439-166.04z" fill="#a29dae"/><path d="m143.15 131.454c-21.379 25.549-34.269 58.433-34.269 94.274 0 .76.017 1.516.029 2.273 2.012 84.656 117.353 1.761 147.09 31.498 29.736-29.736 145.077 53.159 147.09-31.498.012-.757.029-1.513.029-2.273 0-35.842-12.89-68.725-34.269-94.274z" fill="#ffddcf"/><path d="m256 291.374c28.773 35.967 71.169 21.062 93.528 9.25 5.423-2.865 5.809-10.396.784-13.912-12.817-8.968-20.28-28.606-30.867-38.473-16.448-15.329-44.785-24.642-63.446-7.723-18.661-16.919-46.998-7.607-63.446 7.723-10.587 9.867-18.05 29.505-30.867 38.473-5.025 3.516-4.638 11.047.784 13.912 22.361 11.811 64.757 26.716 93.53-9.25z" fill="#c8c6cc"/><path d="m121.93 131.454h-30c-15.983 27.755-25.126 59.947-25.126 94.274 0 68.679 36.601 128.8 91.355 161.95-.002-.002-.004-.004-.005-.006-132.862-151.984-36.224-256.218-36.224-256.218z" fill="#838098"/></g><g><path d="m168.269 224.549c4.142 0 7.5-3.358 7.5-7.5v-16.858c0-4.142-3.358-7.5-7.5-7.5-4.143 0-7.5 3.358-7.5 7.5v16.858c0 4.142 3.358 7.5 7.5 7.5z"/><path d="m343.73 224.549c4.143 0 7.5-3.358 7.5-7.5v-16.858c0-4.142-3.357-7.5-7.5-7.5-4.142 0-7.5 3.358-7.5 7.5v16.858c0 4.142 3.359 7.5 7.5 7.5z"/><path d="m445.178 279.582c26.103-2.14 46.693-24.052 46.693-50.698 0-26.058-19.694-47.592-44.978-50.53-3.804-15.37-9.439-30.256-16.837-44.291 28.921-19.688 37.907-50.982 40.238-74.52 2.224-22.454-10.173-43.865-30.846-53.279-18.348-8.355-39.394-8.355-57.742 0-14.397 6.556-30.913 6.556-45.31 0-18.348-8.355-39.393-8.355-57.742 0-14.397 6.556-30.911 6.556-45.309 0-18.348-8.355-39.394-8.355-57.742 0-14.397 6.556-30.911 6.556-45.309 0-18.349-8.355-39.394-8.355-57.743 0-20.673 9.416-33.069 30.827-30.846 53.281 2.331 23.538 11.317 54.832 40.239 74.52-7.398 14.035-13.034 28.921-16.837 44.29-25.284 2.937-44.978 24.472-44.978 50.53 0 26.624 20.558 48.523 46.631 50.693 3.226 11.331 7.478 22.393 12.778 33.126 1.834 3.714 6.332 5.238 10.046 3.404s5.238-6.332 3.403-10.046c-26.187-53.031-24.644-115.687 3.339-167.107h31.788c-18.471 27.196-27.24 58.97-26.712 88.583.394 2.18-.964 25.969 15.43 38.792 12.974 10.146 31.697 9.451 48.046 6.91-2.362 2.92-4.837 5.472-7.49 7.328-9.638 6.744-8.785 21.213 1.581 26.688 33.097 17.483 70.312 21.996 97.031-4.645 26.718 26.638 63.931 22.13 97.031 4.645 10.36-5.472 11.225-19.94 1.581-26.688-2.653-1.856-5.129-4.409-7.491-7.329 17.902 2.783 35.653 2.784 48.046-6.908 9.812-7.675 15-20.51 15.42-38.209-.101-.734 3.535-44.647-26.702-89.166h31.788c45.659 83.898 18.854 192.71-68.019 243.669-28.749 16.827-55.253 37.921-74.564 57.509-8.869 8.991-23.01 9.448-32.411 1.628-1.536-1.278-1.382-1.33-6.383-6.195-30.79-29.899-65.876-50.699-64.867-50.021-3.53-2.372-35.336-17.636-61.71-54.802-2.397-3.378-7.079-4.173-10.457-1.776s-4.174 7.079-1.776 10.457c13.451 18.955 30.355 35.514 49.514 48.663-6.222 5.083-14.849 13.04-23.495 23.968-14.734 18.622-32.298 49.777-32.298 92.445 0 4.142 3.358 7.5 7.5 7.5h318.582c4.142 0 7.5-3.358 7.5-7.5 0-12.162-1.427-24.145-4.242-35.618-.987-4.022-5.049-6.484-9.071-5.497-4.023.987-6.484 5.048-5.497 9.071 1.949 7.943 3.157 16.17 3.608 24.544h-67.711v-91.887c10.436-6.937 11.667-7.408 13.617-8.522 8.016 5.994 27.563 22.488 40.792 49.304 1.832 3.714 6.329 5.239 10.044 3.407s5.24-6.329 3.408-10.044c-12.643-25.626-30.122-42.526-40.704-51.156 38.21-26.151 65.668-64.704 78.145-108.521zm4.977-85.394c15.36 4.062 26.717 18.079 26.717 34.697 0 17.037-11.933 31.338-27.881 34.984 4.533-23.06 4.843-46.939 1.164-69.681zm-415.026 34.697c0-16.619 11.357-30.635 26.716-34.697-3.771 23.316-3.264 47.216 1.14 69.676-15.935-3.655-27.856-17.951-27.856-34.979zm310.895 65.108c-30.355 16.035-62.624 19.626-84.168-7.304-2.999-3.749-8.711-3.752-11.713 0-21.548 26.935-53.819 23.335-84.168 7.304-.457-.243-.427-.827.012-1.136 12.263-8.58 19.47-24.263 27.626-34.619 13.765-17.458 41.69-26.362 57.349-12.165 2.548 2.31 6.305 2.57 9.136.717.81-.531.763-.612 2.076-1.681 5.853-4.666 14.383-6.965 23.882-5.701 9.535 1.466 19.184 6.375 26.782 12.976 11.727 10.304 18.199 29.995 33.175 40.473.099.069.361.253.336.652-.02.323-.203.42-.325.484zm49.575-66.645c-.447 2.864.511 19.202-9.672 27.167-6.294 4.922-16.871 8.43-50.905 1.151-2.958-4.376-6.563-9.28-10.463-12.913-18.165-16.93-47.293-25.861-68.558-11.722-23.005-15.294-57.321-3.618-74.26 18.038-1.582 2.014-3.357 4.516-4.764 6.601-37.746 8.152-60.594 7.977-60.594-29.941 0-31.474 10.746-62.149 30.329-86.774h218.579c20.818 26.182 30.827 58.271 30.308 88.393zm-301.64-103.393c-27.016-16.248-35.227-44.683-37.327-65.889-1.591-16.065 7.305-31.396 22.136-38.149 14.397-6.556 30.912-6.556 45.309 0 18.348 8.355 39.394 8.355 57.742 0 14.397-6.556 30.911-6.556 45.309 0 18.349 8.355 39.395 8.355 57.742 0 14.398-6.556 30.913-6.556 45.31 0 18.348 8.355 39.394 8.355 57.742 0 14.397-6.556 30.912-6.556 45.31 0 14.831 6.753 23.725 22.084 22.135 38.149-2.1 21.206-10.31 49.641-37.327 65.889-9.621 0-314.486 0-324.081 0zm38.984 297.822c10.09-12.849 20.306-21.274 25.558-25.191 2.327 1.333 2.969 1.445 13.621 8.527v91.887h-67.717c1.459-27.667 11.04-52.939 28.538-75.223zm54.179-6.223c16.914 12.346 31.69 25.382 41.105 35.111 15.357 15.573 40.364 15.398 55.545 0 11.266-11.426 25.039-23.383 41.106-35.111v81.446h-137.756z"/></g></g></svg>