<svg id="Capa_1" enable-background="new 0 0 512 512" height="512" viewBox="0 0 512 512" width="512" xmlns="http://www.w3.org/2000/svg"><g><g><path d="m316.077 504.495h-244.973l5.976-29.105c4.915-23.965 23.588-42.178 46.757-47.083 4.069-.867 8.281-1.316 12.584-1.316h114.339c4.293 0 8.505.449 12.574 1.316 23.17 4.905 41.852 23.118 46.767 47.083z" fill="#e7ecf1"/><path d="m161.03 426.985c-2.45 0-4.85.45-7.17 1.32-13.19 4.91-23.82 23.12-26.62 47.08l-3.4 29.11h-52.74l5.97-29.11c4.92-23.96 23.59-42.17 46.76-47.08 4.07-.87 8.28-1.32 12.58-1.32z" fill="#c6d0da"/><path d="m227.478 370.393v56.598c0 18.713-15.174 33.887-33.887 33.887-18.723 0-33.898-15.174-33.898-33.887v-56.598z" fill="#f1d0a5"/><g fill="#f1b986"><path d="m204.658 459.031c-3.467 1.193-7.189 1.846-11.065 1.846-18.723 0-33.898-15.174-33.898-33.887v-56.598h22.129v56.598c.001 14.847 9.546 27.462 22.834 32.041z"/><path d="m52.006 323.265c-24.435 0-44.244-19.809-44.244-44.244 0-3.363.375-6.638 1.086-9.787 5.74-25.42 43.158-21.251 43.158 4.809h283.164c0-26.06 37.418-30.229 43.158-4.809.711 3.148 1.086 6.424 1.086 9.787 0 24.435-19.809 44.244-44.244 44.244"/><path d="m159.693 370.393h67.785v52.142h-67.785z"/></g><path d="m231.977 404.594h-76.779c-56.992 0-103.192-46.201-103.192-103.192v-145.538h283.164v145.538c0 56.991-46.201 103.192-103.193 103.192z" fill="#f1d0a5"/><path d="m222.983 404.594h-67.785c-56.986 0-103.192-46.206-103.192-103.192v-145.544h67.785v145.544c0 56.985 46.197 103.192 103.192 103.192z" fill="#f1b986"/><g fill="#e29375"><ellipse cx="276.987" cy="308.738" rx="23.176" ry="14.092"/><ellipse cx="110.189" cy="308.738" rx="23.176" ry="14.092"/></g><path d="m122.62 54.84h-43.817c-27.222 0-49.29 22.068-49.29 49.29v66.75c0 13.572 11.002 24.574 24.574 24.574h30.805c40.577 0 73.471-32.894 73.471-73.471v-31.4c-.001-19.74-16.003-35.743-35.743-35.743z" fill="#9d6b6b"/><path d="m122.354 54.834c-27.218 0-49.286 22.068-49.286 49.296v91.322h-18.981c-13.572 0-24.574-11.002-24.574-24.574v-66.748c0-27.228 22.068-49.296 49.286-49.296z" fill="#785252"/><path d="m269.726 183.451h-68.232c-36.942 0-66.89-29.948-66.89-66.89v-42.17c0-36.942 29.948-66.89 66.89-66.89h199.678v44.503c0 72.597-58.85 131.447-131.446 131.447z" fill="#9d6b6b"/><path d="m260.476 183.448h-58.984c-36.947 0-66.888-29.941-66.888-66.888v-42.168c0-36.947 29.941-66.888 66.888-66.888h58.984c-36.947 0-66.888 29.941-66.888 66.888v42.168c0 36.947 29.941 66.888 66.888 66.888z" fill="#785252"/><g><path d="m198.261 448.078h-9.341c-7.614 0-13.786 6.172-13.786 13.786v9.341c0 7.614 6.172 13.786 13.786 13.786h9.341c7.614 0 13.786-6.172 13.786-13.786v-9.341c0-7.614-6.172-13.786-13.786-13.786z" fill="#d82e3d"/><g fill="#da4a54"><path d="m175.135 470.207s-13.32 20.935-28.617 17.277-6.473-21.449-6.473-21.449-8.824-17.791 6.473-21.449 28.617 17.277 28.617 17.277"/><path d="m212.047 470.207s13.32 20.935 28.617 17.277 6.473-21.449 6.473-21.449 8.824-17.791-6.473-21.449-28.617 17.277-28.617 17.277"/></g></g><g><path d="m488.276 447.906c0-53.261-43.176-96.437-96.437-96.437s-96.437 43.176-96.437 96.437" fill="#f4dd45"/><path d="m391.839 351.466c-27.74 0-50.23 43.18-50.23 96.44h-46.21c0-53.26 43.18-96.44 96.44-96.44z" fill="#eab14d"/><path d="m356.91 504.5h47.694c15.043 0 27.238-12.195 27.238-27.238v-6.078l-74.933-10.811v44.127z" fill="#f1d0a5"/><path d="m390.608 477.262v-6.078l-33.698-4.862v38.178h6.459c15.044 0 27.239-12.195 27.239-27.238z" fill="#f1b986"/><path d="m493.264 449.236h-202.85c-6.061 0-10.974 4.913-10.974 10.974 0 6.061 4.913 10.974 10.974 10.974h202.85c6.061 0 10.974-4.913 10.974-10.974 0-6.061-4.913-10.974-10.974-10.974z" fill="#f4dd45"/><path d="m341.19 467.973c1.99 1.98 4.73 3.21 7.76 3.21h-58.53c-3.03 0-5.78-1.23-7.77-3.21-1.98-1.99-3.21-4.73-3.21-7.76 0-6.06 4.91-10.97 10.98-10.97h58.53c-6.06 0-10.97 4.91-10.97 10.97 0 3.03 1.23 5.77 3.21 7.76z" fill="#eab14d"/></g></g><g><path d="m120.953 232.046c-7.363 0-13.354 9.947-13.354 22.173s5.991 22.173 13.354 22.173 13.354-9.947 13.354-22.173-5.991-22.173-13.354-22.173z"/><path d="m266.223 276.392c7.363 0 13.354-9.947 13.354-22.173s-5.991-22.173-13.354-22.173-13.354 9.947-13.354 22.173 5.991 22.173 13.354 22.173z"/><path d="m193.591 339.243c14.769 0 28.021-8.797 33.762-22.412 1.609-3.817-.18-8.216-3.997-9.825s-8.216.18-9.825 3.997c-3.392 8.043-11.218 13.24-19.94 13.24s-16.549-5.197-19.94-13.24c-1.609-3.817-6.007-5.607-9.825-3.997-3.817 1.609-5.606 6.008-3.998 9.824 5.741 13.616 18.993 22.413 33.763 22.413z"/><path d="m179.59 289.89h27.997c4.142 0 7.5-3.358 7.5-7.5s-3.358-7.5-7.5-7.5h-27.997c-4.142 0-7.5 3.358-7.5 7.5s3.358 7.5 7.5 7.5z"/><path d="m495.598 441.9c-2.98-52.039-44.416-93.944-96.259-97.658v-6.075c0-4.142-3.358-7.5-7.5-7.5s-7.5 3.358-7.5 7.5v6.075c-48.311 3.462-87.584 40.086-95.124 87.172-7.316-5.008-15.579-8.593-24.31-10.438-4.611-.986-9.372-1.486-14.148-1.486h-15.78v-7.442c49.603-1.327 91.166-35.447 103.766-81.421 26.869-1.844 48.17-24.278 48.17-51.607 0-3.857-.428-7.705-1.271-11.438-3.405-15.08-16.51-24.414-31.88-22.702-4.061.453-7.794 1.63-11.095 3.394v-77.995c7.572-4.679 14.738-10.106 21.383-16.252 3.041-2.813 3.226-7.558.413-10.598-2.812-3.04-7.557-3.227-10.599-.413-22.963 21.239-52.844 32.936-84.137 32.936h-68.23c-32.748 0-59.39-26.642-59.39-59.39v-42.172c0-32.748 26.642-59.39 59.39-59.39h192.17v37.01c0 24.945-7.381 48.997-21.344 69.556-2.328 3.427-1.437 8.091 1.99 10.418 3.426 2.327 8.091 1.436 10.418-1.99 15.659-23.056 23.936-50.022 23.936-77.984v-44.51c0-4.142-3.358-7.5-7.5-7.5h-199.67c-31.854 0-59.086 20.13-69.669 48.332-3.005-.653-6.08-.991-9.205-.991h-43.82c-31.312 0-56.786 25.474-56.786 56.786v66.758c0 14.348 9.471 26.525 22.49 30.61v46.778c-3.301-1.763-7.034-2.941-11.095-3.394-15.37-1.71-28.475 7.622-31.88 22.702-.843 3.732-1.27 7.581-1.27 11.439 0 27.329 21.301 49.763 48.17 51.607 12.6 45.973 54.163 80.094 103.766 81.421v7.442h-15.778c-4.776 0-9.536.5-14.134 1.483-12.428 2.632-23.848 8.687-33.024 17.511-2.986 2.871-3.079 7.619-.208 10.604 1.472 1.531 3.438 2.302 5.407 2.302 1.87 0 3.743-.695 5.197-2.094 7.154-6.878 16.053-11.598 25.75-13.652 3.583-.766 7.288-1.154 11.012-1.154h16.486c.151.811.329 1.614.528 2.411-2.767-.392-5.663-.326-8.661.39-7.777 1.86-11.359 6.416-12.995 9.911-3.172 6.776-1.364 14.49.168 18.833-1.533 4.343-3.34 12.057-.168 18.833 1.636 3.495 5.218 8.051 12.995 9.911 1.831.438 3.624.637 5.373.637 9.016 0 16.843-5.302 22.423-10.604 3.335 4 8.11 6.744 13.518 7.468v4.711h-105.782l4.124-20.098c.382-1.867.882-3.776 1.487-5.673 1.259-3.946-.919-8.166-4.866-9.425-3.944-1.257-8.166.92-9.424 4.866-.768 2.406-1.404 4.837-1.892 7.222l-5.97 29.1c-.453 2.208.111 4.502 1.535 6.248s3.559 2.76 5.812 2.76h244.97c2.254 0 4.388-1.014 5.813-2.76 1.424-1.747 1.988-4.042 1.534-6.249l-4.993-24.297h30.977v25.815c0 4.142 3.358 7.5 7.5 7.5h47.694c18.678 0 33.953-14.819 34.702-33.316h53.957c10.187 0 18.474-8.287 18.474-18.474-.001-9.395-7.055-17.157-16.141-18.31zm-103.759-82.931c46.965 0 85.539 36.595 88.719 82.767h-177.438c3.18-46.172 41.754-82.767 88.719-82.767zm-151.439 110.364c1.221 2.527 2.39 7.125 1.412 9.186-.129.273-.523 1.104-2.893 1.67-7.25 1.732-15.656-7.293-19.373-12.326v-3.654c3.499-4.698 12.037-14.083 19.373-12.329 2.37.567 2.764 1.397 2.893 1.67.978 2.061-.191 6.658-1.395 9.151-1.029 2.076-1.023 4.547-.017 6.632zm-65.347-23.583c-4.937-4.902-7.846-11.645-7.854-18.73 0-.01.001-.019.001-.029 0-.016-.002-.032-.002-.048v-14.853h52.78v14.9c0 7.095-2.911 13.849-7.852 18.757-3.729-3.212-8.568-5.169-13.865-5.169h-9.341c-5.297 0-10.138 1.958-13.867 5.172zm167.616-171.707c0-9.472 6.872-13.599 12.756-14.255 5.886-.655 13.5 1.857 15.586 11.098.599 2.651.902 5.388.902 8.135 0 17.991-13.001 32.993-30.1 36.131.561-4.507.854-9.096.854-13.752v-8.235c2.355-2.575 7.422-7.054 12.68-4.932 3.844 1.549 8.211-.308 9.762-4.149 1.549-3.841-.308-8.211-4.149-9.761-5.93-2.392-12.263-2.18-18.292.507v-.786h.001zm-305.651-103.158v-66.758c0-23.041 18.745-41.786 41.786-41.786h43.82c1.824 0 3.621.177 5.382.516-.588 3.76-.898 7.61-.898 11.533v42.17c0 15.462 4.746 29.835 12.852 41.746-12.15 18.401-32.838 29.653-55.068 29.653h-30.801c-9.414 0-17.073-7.659-17.073-17.074zm-21.756 108.136c0-2.748.303-5.485.902-8.135 2.086-9.241 9.695-11.755 15.586-11.098 5.884.656 12.756 4.783 12.756 14.255h.001v.786c-6.03-2.688-12.363-2.899-18.292-.507-3.841 1.55-5.699 5.92-4.149 9.761s5.92 5.698 9.762 4.149c5.259-2.123 10.325 2.356 12.68 4.932v8.235c0 4.656.293 9.245.854 13.752-17.099-3.137-30.1-18.139-30.1-36.13zm44.246 22.379v-98.441h25.384c25.813 0 49.928-12.364 65.081-32.819 13.38 12.871 31.537 20.81 51.525 20.81h68.23c20.236 0 39.942-4.372 57.94-12.635v123.085c0 52.764-42.926 95.69-95.69 95.69h-76.78c-52.764 0-95.69-42.926-95.69-95.69zm88.754 178.789c-2.369-.567-2.764-1.397-2.893-1.67-.978-2.061.191-6.659 1.395-9.152 1.029-2.075 1.024-4.546.017-6.631-1.221-2.527-2.39-7.125-1.412-9.185.129-.273.523-1.104 2.893-1.67.62-.148 1.247-.218 1.879-.218 6.77 0 14.101 7.949 17.494 12.541v3.66c-3.718 5.032-12.127 14.057-19.373 12.325zm34.373-8.985v-9.341c0-3.466 2.82-6.285 6.286-6.285h9.341c3.466 0 6.286 2.82 6.286 6.285v9.341c0 3.466-2.82 6.286-6.286 6.286h-9.341c-3.466 0-6.286-2.82-6.286-6.286zm124.247 25.786h-105.794v-4.71c5.41-.723 10.188-3.467 13.524-7.468 5.579 5.303 13.406 10.604 22.423 10.604 1.749 0 3.544-.2 5.373-.637 7.777-1.86 11.359-6.416 12.995-9.911 3.172-6.776 1.364-14.49-.168-18.833 1.533-4.343 3.34-12.057.168-18.833-1.636-3.495-5.218-8.051-12.995-9.911-3-.718-5.898-.783-8.666-.391.199-.797.376-1.6.528-2.411h16.488c3.725 0 7.429.388 11.03 1.158 7.029 1.485 13.665 4.417 19.501 8.519-5.575 3.184-9.349 9.176-9.349 16.042 0 10.187 8.287 18.474 18.474 18.474h12.706zm97.723.01h-40.194v-18.316h59.881c-.731 10.222-9.282 18.316-19.687 18.316zm88.659-33.316h-202.85c-1.916 0-3.474-1.558-3.474-3.474s1.558-3.474 3.474-3.474h202.85c1.916 0 3.474 1.558 3.474 3.474s-1.558 3.474-3.474 3.474z"/></g></g></svg>