<svg width="512" height="512" xmlns="http://www.w3.org/2000/svg">
 <defs>
  <linearGradient y2="0.952428" x2="0.829253" y1="-0.165073" x1="0.152946" id="SVGID_1_">
   <stop stop-color="#000000" stop-opacity="0.1" offset="0"/>
   <stop stop-color="#000000" stop-opacity="0" offset="1"/>
  </linearGradient>
 </defs>
 <g>
  <title>background</title>
  <rect fill="none" id="canvas_background" height="402" width="582" y="-1" x="-1"/>
 </g>
 <g>
  <title>Layer 1</title>
  <path id="svg_1" fill="#231f20" d="m448,266.667c0,-24.962 -9.085,-54.28 -17.755,-76.638c57.19,-14.733 81.755,-115.851 81.755,-158.029c0,-5.896 -4.771,-10.667 -10.667,-10.667c-60.137,0 -141.182,39.081 -157.033,81.564c-22.59,-8.639 -54.114,-17.564 -88.3,-17.564s-65.71,8.924 -88.301,17.564c-15.85,-42.483 -96.896,-81.564 -157.033,-81.564c-5.895,0 -10.666,4.771 -10.666,10.667c0,42.178 24.565,143.296 81.755,158.029c-8.67,22.358 -17.755,51.675 -17.755,76.638c0,18.719 -3.833,25.417 -8.708,33.896c-5.917,10.322 -12.625,22.041 -12.625,51.437c0,56.677 75.979,138.667 213.333,138.667s213.333,-81.99 213.333,-138.667c0,-29.396 -6.708,-41.115 -12.625,-51.438c-4.875,-8.479 -8.708,-15.177 -8.708,-33.895z"/>
  <path id="svg_2" fill="#ffd33c" d="m400.438,150.521c5.25,-2.667 11.688,-0.656 14.375,4.583c0.382,0.741 3.228,6.339 7.064,14.882c10.01,-1.695 18.934,-7.691 26.839,-16.277c-1.47,-22.102 -14.262,-71.655 -28.268,-90.72c-29.005,13.956 -51.608,32.642 -56.635,48.164c8.816,4.134 14.23,7.237 14.918,7.639c5.083,2.979 6.771,9.5 3.813,14.583c-2.958,5.083 -9.479,6.833 -14.583,3.833c-0.521,-0.302 -53.083,-30.542 -111.958,-30.542c-59.083,0 -111.417,30.229 -111.938,30.542c-1.708,0.99 -3.563,1.458 -5.396,1.458c-3.646,0 -7.229,-1.885 -9.208,-5.281c-2.979,-5.083 -1.271,-11.615 3.813,-14.594c0.688,-0.402 6.102,-3.505 14.918,-7.639c-5.027,-15.522 -27.63,-34.208 -56.635,-48.164c-14.428,19.639 -27.146,70.22 -27.911,91.115c7.818,8.374 16.622,14.214 26.482,15.883c3.836,-8.543 6.682,-14.141 7.064,-14.882c2.708,-5.24 9.146,-7.271 14.375,-4.583c5.229,2.698 7.292,9.135 4.583,14.365c-0.313,0.604 -30.813,60.271 -30.813,101.781c0,24.396 -6.125,35.073 -11.521,44.5c-2.939,5.132 -5.757,10.185 -7.62,18.133c8.571,-5.822 18.794,-9.3 29.804,-9.3c29.417,0 53.333,23.927 53.333,53.333c0,24.596 -16.822,45.154 -39.51,51.288c32.003,24.927 80.672,44.712 146.177,44.712s114.174,-19.785 146.177,-44.712c-22.689,-6.134 -39.51,-26.691 -39.51,-51.288c0,-29.406 23.916,-53.333 53.333,-53.333c11.01,0 21.233,3.477 29.807,9.299c-1.863,-7.947 -4.681,-13.001 -7.62,-18.133c-5.396,-9.427 -11.521,-20.104 -11.521,-44.5c0,-41.594 -30.5,-101.177 -30.813,-101.771c-2.707,-5.239 -0.645,-11.676 4.585,-14.374z"/>
  <circle id="svg_3" fill="#231f20" r="32" cy="266.667" cx="160"/>
  <circle id="svg_4" fill="#FFFFFF" r="10.667" cy="256" cx="170.667"/>
  <circle id="svg_5" fill="#231f20" r="32" cy="266.667" cx="352"/>
  <circle id="svg_6" fill="#FFFFFF" r="10.667" cy="256" cx="343.04"/>
  <path id="svg_7" fill="#231f20" d="m311.229,335.25c-0.792,1.125 -6.125,4.552 -16.313,5.719c-9.917,1.135 -23.563,-0.25 -31.833,-7.604c-2.017,-1.798 -4.543,-2.697 -7.069,-2.701c2.724,-0.003 5.448,-1.043 7.527,-3.122l10.667,-10.667c3.042,-3.052 3.958,-7.635 2.313,-11.625c-1.646,-3.99 -5.542,-6.583 -9.854,-6.583l-21.333,0c-4.313,0 -8.208,2.594 -9.854,6.583c-1.646,3.99 -0.729,8.573 2.313,11.625l10.667,10.667c2.079,2.079 4.803,3.12 7.527,3.122c-2.526,0.004 -5.052,0.902 -7.069,2.701c-8.271,7.375 -21.938,8.75 -31.833,7.604c-10.188,-1.167 -15.521,-4.594 -16.313,-5.719c-3.375,-4.833 -10.021,-6.042 -14.854,-2.677c-4.833,3.354 -6.042,10 -2.688,14.844c7.201,10.372 22.612,13.548 29.927,14.518c-0.18,15.685 0.837,39.401 14.74,53.628c7.208,7.365 16.667,11.104 28.104,11.104c10.438,0 19.646,-3.969 26.646,-11.479c13.478,-14.495 15.954,-39.034 16.195,-53.253c7.311,-0.97 22.728,-4.145 29.93,-14.518c3.333,-4.833 2.125,-11.417 -2.688,-14.781c-4.771,-3.334 -11.459,-2.188 -14.855,2.614z"/>
  <path id="svg_8" fill="#e87578" d="m243.167,400.656c-8.165,-8.355 -8.806,-26.975 -8.671,-38.947c7.906,-1.21 15.297,-3.587 21.504,-7.251c6.172,3.648 13.642,5.669 21.491,6.887c-0.254,12.069 -2.375,30.595 -10.47,39.311c-6.688,7.136 -18.271,5.761 -23.854,0z"/>
  <path id="svg_9" opacity="0.1" d="m256,373.292c5.655,3.342 12.457,5.217 19.585,6.462c1.201,-6.461 1.794,-13.068 1.906,-18.409c-7.849,-1.217 -15.319,-3.238 -21.491,-6.887c-6.207,3.664 -13.598,6.042 -21.504,7.251c-0.061,5.371 0.142,12.076 1.003,18.595c7.514,-1.253 14.567,-3.51 20.501,-7.012z"/>
  <path id="svg_10" fill="#f05633" d="m424.092,403.928c-22.158,6.207 -40.092,-10.346 -40.092,-30.595c0,-17.646 14.354,-32 32,-32c14.169,0 26.181,9.363 30.264,22.797c-3.011,12.34 -10.399,26.198 -22.172,39.798z"/>
  <path id="svg_11" opacity="0.2" fill="#FFFFFF" d="m389.777,380.345c0,-17.646 14.354,-32 32,-32c8.145,0 15.353,3.336 20.975,8.517c-5.607,-9.337 -15.374,-15.529 -26.753,-15.529c-17.646,0 -32,14.354 -32,32c0,9.639 4.15,18.353 10.799,24.26c-3.1,-5.032 -5.021,-10.902 -5.021,-17.248z"/>
  <path id="svg_12" fill="#f05633" d="m87.901,403.921c-11.768,-13.598 -19.154,-27.453 -22.165,-39.79c4.083,-13.435 16.095,-22.797 30.264,-22.797c17.646,0 32,14.354 32,32c0,20.271 -18.091,36.752 -40.099,30.587z"/>
  <path id="svg_13" opacity="0.2" fill="#FFFFFF" d="m97.777,351.111c14.059,0 25.895,9.172 30.18,21.801c-0.232,-17.447 -14.456,-31.578 -31.957,-31.578c-14.169,0 -26.181,9.362 -30.264,22.797c0.638,2.613 1.578,5.324 2.608,8.056c4.587,-12.437 15.924,-21.076 29.433,-21.076z"/>
  <path id="svg_14" fill="url(#SVGID_1_)" d="m183.229,347.417l30.587,30.587c-0.492,-5.75 -0.715,-11.309 -0.66,-16.069c-7.315,-0.97 -22.726,-4.146 -29.927,-14.518zm179.438,25.916c0,-1.215 0.277,-2.353 0.358,-3.547l-33.961,-33.961l-0.007,0c2.134,3.482 2.182,8.012 -0.286,11.591c-7.202,10.374 -22.618,13.548 -29.93,14.518c-0.241,14.219 -2.717,38.758 -16.195,53.253c-7,7.51 -16.208,11.479 -26.646,11.479c-11.438,0 -20.896,-3.74 -28.104,-11.104l52.77,52.77c53.184,-4.259 93.669,-22.025 121.512,-43.711c-22.69,-6.134 -39.511,-26.691 -39.511,-51.288z"/>
 </g>
</svg>