<svg id="Capa_1" enable-background="new 0 0 512 512" height="512" viewBox="0 0 512 512" width="512" xmlns="http://www.w3.org/2000/svg"><g><g><path d="m438.569 112.938c-36.516-62.982-104.676-105.438-182.569-105.438s-146.053 42.456-182.568 105.438l182.568 23.269z" fill="#77718c"/><path d="m103.432 112.938c34.151-58.904 95.982-99.851 167.568-104.906-4.956-.35-9.957-.532-15-.532-77.893 0-146.053 42.456-182.568 105.438z" fill="#5c586f"/><path d="m454.813 164.244c38.903 114.422-21.053 99.395-20.07 187.03 1 89.079-82.933 89.079-82.933 89.079h-191.62s-83.933 0-82.933-89.079c.984-87.635-58.973-72.608-20.07-187.03z" fill="#77718c"/><path d="m57.187 164.244c-38.903 114.422 21.053 99.395 20.07 187.03-.578 51.493 27.225 73.22 50.79 82.387-12.15-13.196-21.121-32.912-20.79-62.387.984-87.635-58.973-72.608-20.07-187.03z" fill="#5c586f"/><path d="m468.739 74.175c-58.794-28.016-109.86 7.974-109.86 7.974l67.781 132.268c47.724-30.712 55.626-88.442 56.512-116.354.32-10.108-5.304-19.538-14.433-23.888z" fill="#ff995d"/><path d="m43.261 74.175c58.794-28.016 109.86 7.974 109.86 7.974l-67.781 132.268c-47.724-30.712-55.626-88.442-56.512-116.354-.32-10.108 5.304-19.538 14.433-23.888z" fill="#ff995d"/><path d="m428.146 103.904c-1.969-.177-3.952-.266-5.949-.266-5.396 0-10.9.646-16.537 1.934-13.854 3.166-23.558 9.35-23.642 9.409l22.905 65.658c22.426-14.432 31.793-39.665 35.623-60.515 1.469-7.997-4.3-15.491-12.4-16.22z" fill="#e8e8e8"/><path d="m83.854 103.904c1.969-.177 3.952-.266 5.949-.266 5.396 0 10.9.646 16.537 1.934 13.854 3.166 23.558 9.35 23.642 9.409l-22.905 65.658c-22.426-14.432-31.793-39.665-35.623-60.515-1.469-7.997 4.3-15.491 12.4-16.22z" fill="#e8e8e8"/><path d="m173.788 387.644 23.756 58.428-23.756 58.428h-50.952c0-64.709 30.798-100.428 50.952-116.856z" fill="#ffb78c"/><path d="m389.164 504.5h-50.952l-23.195-58.428 23.195-58.428c20.154 16.428 50.952 52.147 50.952 116.856z" fill="#ffb78c"/><path d="m173.767 387.642c-6.928 5.647-15.114 13.574-22.874 24.174-19.62 26.802-28.078 58.93-28.078 92.682h30c0-44.134 14.328-74.773 29.833-95.013z" fill="#ff995d"/><path d="m338.212 387.644v116.856h-164.424v-116.856c9.791-8.003 17.071-11.438 17.071-11.438h130.282s7.28 3.435 17.071 11.438z" fill="#76e6d5"/><path d="m173.788 422.624c9.628-16.186 20.897-27.56 30-34.98 9.791-8.003 17.071-11.438 17.071-11.438h-30s-.455.215-1.291.662c-.418.224-.931.505-1.529.847-2.993 1.71-8.132 4.927-14.251 9.929z" fill="#00d6bc"/><circle cx="256" cy="389.086" fill="#ff995d" r="37.812"/><path d="m404.849 255.103 20.646-16.288c.803-6.698 1.215-13.516 1.215-20.435 0-55.651-26.631-105.067-67.832-136.227 0 0-62.791-8.726-102.878 38.741-40.087-47.467-102.878-38.741-102.878-38.741-20.596 15.575-37.556 35.719-49.365 58.925-11.809 23.207-18.467 49.476-18.467 77.302 0 6.919.412 13.737 1.215 20.435l20.551 16.288-10.328 24.793-.02-.01c2.962 7.662 10.443 22.112 10.443 22.112l25.175 8.455 1.355 26.992h-.01c31.009 31.853 74.36 51.645 122.329 51.645s91.32-19.792 122.329-51.645h-.01l-.299-27.859 26.83-7.588 10.423-22.102z" fill="#ffb78c"/><g fill="#e8e8e8"><path d="m404.849 301.998v.02c-7.29 12.954-16.227 24.853-26.52 35.427h-.01l-17.161-31.099c-3.595-6.517 2.249-14.199 9.489-12.482z"/><path d="m425.495 238.815c-1.707 14.31-5.182 28.077-10.202 41.071l-.02.01-27.655-22.132c-5.955-4.77-3.183-14.37 4.408-15.213z"/><path d="m150.843 306.346-17.161 31.099h-.01c-10.293-10.574-19.23-22.473-26.52-35.427v-.02l34.202-8.134c7.239-1.717 13.084 5.965 9.489 12.482z"/><path d="m124.383 257.764-27.655 22.132-.02-.01c-5.021-12.994-8.495-26.761-10.202-41.071l33.469 3.736c7.591.843 10.362 10.443 4.408 15.213z"/></g></g><g><path d="m193.622 199.864-26.025-4.589c-4.075-.72-7.969 2.004-8.688 6.084-.719 4.079 2.005 7.969 6.084 8.688l5.361.945v14.609c0 4.142 3.358 7.5 7.5 7.5s7.5-3.358 7.5-7.5v-11.964c5.615.956 5.86 1.114 6.976 1.114 3.571 0 6.736-2.561 7.377-6.199.718-4.078-2.006-7.968-6.085-8.688z"/><path d="m353.092 201.359c-.719-4.079-4.605-6.803-8.688-6.084l-26.025 4.589c-4.079.72-6.803 4.609-6.084 8.688.642 3.639 3.806 6.199 7.377 6.199 1.126 0 1.561-.192 6.976-1.114v11.964c0 4.142 3.358 7.5 7.5 7.5s7.5-3.358 7.5-7.5v-14.609l5.361-.945c4.078-.719 6.802-4.609 6.083-8.688z"/><path d="m287.795 256.502c-4.142 0-7.5 3.358-7.5 7.5 0 4.63-3.767 8.398-8.397 8.398-4.631 0-8.398-3.768-8.398-8.398v-13.827h4.29c4.142 0 7.5-3.358 7.5-7.5 0-4.143-3.358-7.5-7.5-7.5h-23.58c-4.142 0-7.5 3.357-7.5 7.5 0 4.142 3.358 7.5 7.5 7.5h4.29v13.827c0 4.63-3.767 8.398-8.397 8.398-4.631 0-8.398-3.768-8.398-8.398 0-4.142-3.358-7.5-7.5-7.5s-7.5 3.358-7.5 7.5c0 20.341 24.381 30.985 39.295 17.146 14.913 13.837 39.295 3.199 39.295-17.146 0-4.142-3.358-7.5-7.5-7.5z"/><path d="m490.668 98.301c.417-13.156-6.923-25.283-18.703-30.896-21.512-10.251-44.942-13.605-68.483-9.919-40.416-37.094-92.632-57.486-147.482-57.486-25.554 0-50.623 4.411-74.51 13.109-3.892 1.417-5.898 5.722-4.481 9.613 1.417 3.893 5.721 5.897 9.614 4.481 22.237-8.097 45.579-12.203 69.377-12.203 47.589 0 93.061 16.481 129.493 46.675-10.137 3.344-19.027 6.832-28.469 12.738-12.714-1.125-63.59-2.889-101.024 35.341-37.434-38.23-88.311-36.465-101.024-35.341-9.012-5.552-18.462-9.528-28.463-12.736 10.721-8.873 22.325-16.634 34.633-23.153 3.66-1.939 5.056-6.478 3.117-10.139-1.939-3.66-6.478-5.055-10.138-3.117-16.505 8.743-31.809 19.589-45.581 32.221-23.551-3.692-46.989-.338-68.509 9.916-11.779 5.613-19.12 17.741-18.702 30.896.904 28.497 7.692 58.663 22.584 83.514-6.825 24.744-8.841 44.35-6.316 61.45 5.877 39.819 32.804 50.285 32.157 107.925-.646 57.623 32.338 80.721 56.802 89.917-6.703 17.302-11.223 38.265-11.223 63.393 0 4.139 3.358 7.5 7.5 7.5h266.328c4.142 0 7.5-3.358 7.5-7.5 0-25.125-4.519-46.085-11.221-63.386 12.338-4.606 22.94-11.257 31.585-19.846 2.938-2.92 2.954-7.668.034-10.607s-7.668-2.953-10.606-.034c-7.303 7.256-16.392 12.873-27.08 16.744-10.379-20.457-25.323-37.793-42.391-50.127 18.044-9.227 34.371-21.706 46.72-34.569 31.877-33.205 50.505-78.192 50.505-124.288 8.671-6.06 16.332-13.238 22.439-20.499 17.047 77.016-30.312 72.602-29.405 153.47.159 14.153-1.97 26.741-6.328 37.414-1.566 3.835.273 8.213 4.108 9.779 3.834 1.565 8.212-.274 9.778-4.109 5.118-12.535 7.622-27.088 7.44-43.252-.886-78.96 52.369-73.196 25.84-169.375 14.891-24.849 21.681-55.015 22.585-83.514zm-110.828 226.378-12.116-21.956c-.288-.523-.15-.999.273-1.367.657-.567-.602-.443 25.119 5.561-.072.111-.139.224-.211.334-4.273 6.569-8.7 12.347-13.065 17.428zm-236.856 11.433c15.212-27.687 14.685-26.343 15.426-28.306 4.298-11.372-5.366-23.445-17.581-21.478-1.317.24-1.149.241-29.659 7.005-2.409-4.831-3.604-7.362-5.328-11.124l23.228-18.589c11.478-9.773 5.384-27.006-8.263-28.523-2.93-.327-25.241-2.817-27.439-3.063-.479-5.781-.661-11.266-.52-17.463 1.179-51.474 26.086-96.381 63.183-125.176 22.864-1.915 50.623 3.408 71.706 16.75 8.322 5.227 15.982 11.83 22.534 19.588 2.989 3.541 8.461 3.551 11.46 0 23.374-27.677 57.922-38.039 94.24-36.339 37.841 29.363 62.023 74.535 63.182 125.176.119 5.235.042 10.689-.52 17.463-28.554 3.187-28.608 3.042-30.948 3.854-11.837 4.079-14.673 19.785-4.753 27.731l23.032 18.433c-.047.1-5.268 11.171-5.301 11.241-1.883-.448 3.643.866-28.284-6.727-13.512-3.207-24.551 11.141-17.787 23.403 2.957 5.358 9.586 17.371 14.426 26.142-62.257 59.858-162.115 61.413-226.034.002zm-24.101-29.195c25.988-6.18 24.315-5.802 24.53-5.799.595.01 1.322.764.863 1.604l-12.116 21.956c-4.719-5.505-8.976-11.12-13.277-17.761zm.966-55.145c-.115.119-19.442 15.573-19.554 15.663-1.853-5.893-3.635-12.865-4.929-20.084 25.477 2.846 23.871 2.648 24.066 2.713.225.073.926 1.182.417 1.708zm-29.356-99.618c-5.383-9.301-9.291-20.476-11.662-33.384-.673-3.67 1.997-7.065 5.695-7.396 8.991-.81 18.134.547 26.563 3.286-8.398 11.699-15.346 24.442-20.596 37.494zm195.402 241.952c-2.398 14.334-14.891 25.292-29.895 25.292-15.005 0-27.498-10.958-29.896-25.293 18.886 3.164 39.294 3.434 59.791.001zm125.811-126.67s-19.316-15.459-19.399-15.525c-.621-.497-.467-1.311.089-1.772.637-.255-1.873.185 24.24-2.788-.015.081-.026.163-.041.244-1.099 6.083-2.923 13.686-4.889 19.841zm-10.724-152.797c8.444-2.735 17.545-4.069 26.492-3.265 3.702.332 6.368 3.73 5.695 7.396-2.369 12.897-6.273 24.063-11.648 33.358-5.298-13.268-12.183-25.851-20.539-37.489zm-354.495-33.694c30.569-14.565 63.726-12.662 93.411 2.25-6.69 5.759-13.192 12.269-19.024 19.049-12.014-4.7-24.997-6.953-37.692-5.81-12.468 1.121-21.372 12.697-19.104 25.046 3.59 19.544 10.442 35.808 20.37 48.436-4.28 15.149-5.028 25.368-5.729 30.21-18.339-15.75-40.617-46.295-42.395-102.301-.228-7.203 3.761-13.828 10.163-16.88zm86.137 346.426c-23.396-8.472-48.4-28.612-47.868-76.012.909-80.925-46.478-76.338-29.405-153.471 6.619 7.87 14.64 15.093 22.439 20.498 0 34.314 10.062 68.299 28.757 97.079 16.926 26.057 40.803 47.632 68.468 61.778-16.792 12.108-31.916 29.483-42.391 50.128zm33.664-22.385v92.014h-35.804c1.804-45.353 19.801-74.699 35.804-92.014zm15-13.713c3.18-2.423 6.525-4.745 9.958-6.745 6.355 2.474 12.859 4.575 19.486 6.3.92 24.18 20.866 43.57 45.268 43.57 24.401 0 44.347-19.39 45.267-43.57 6.626-1.725 13.131-3.826 19.486-6.3 3.248 1.914 6.299 3.947 9.958 6.746v105.726h-149.423zm164.424 105.727v-92.014c16.003 17.314 34 46.661 35.804 92.014zm87.569-296.873c-1.034-10.276-2.946-20.359-5.729-30.211 9.928-12.628 16.78-28.891 20.37-48.436 2.271-12.363-6.648-23.925-19.104-25.046-12.746-1.149-25.71 1.132-37.629 5.786-5.831-6.76-12.196-13.129-19.082-19.035 28.707-14.435 62.162-17.127 93.405-2.24 6.402 3.051 10.392 9.677 10.163 16.88-1.777 56.009-24.055 86.552-42.394 102.302z"/></g></g></svg>