<svg id="Capa_1" enable-background="new 0 0 512 512" height="512" viewBox="0 0 512 512" width="512" xmlns="http://www.w3.org/2000/svg"><g><g><path d="m342.739 379.22s55.138 43.529 55.138 125.28h-283.754c0-81.751 55.138-125.28 55.138-125.28z" fill="#da9d81"/><path d="m191.261 379.22h-22s-55.138 43.529-55.138 125.28h22c0-81.751 55.138-125.28 55.138-125.28z" fill="#c7856a"/><circle cx="256" cy="208.76" fill="#ff748f" r="191.221"/><path d="m104.779 208.76c0-98.854 75.013-180.183 171.221-190.182-6.574-.684-13.245-1.039-20-1.039-105.608 0-191.221 85.612-191.221 191.221s85.613 191.221 191.221 191.221c6.755 0 13.426-.355 20-1.039-96.208-9.999-171.221-91.328-171.221-190.182z" fill="#fd5f7e"/><path d="m233.646 504.5v-14.552c0-12.326 10.028-22.353 22.354-22.353s22.353 10.027 22.353 22.353v14.552h30.132v-14.552c0-28.941-23.545-52.486-52.486-52.486s-52.486 23.545-52.486 52.486v14.552z" fill="#fccb88"/><g><path d="m256 482.661c-8.321 0-15.066-6.745-15.066-15.066v-80.353c0-8.321 6.745-15.066 15.066-15.066s15.066 6.745 15.066 15.066v80.353c0 8.32-6.745 15.066-15.066 15.066z" fill="#f9f097"/></g><path d="m256 440.029c5.023 0 10.051-.167 15.066-.492v-52.295c0-8.321-6.745-15.066-15.066-15.066s-15.066 6.746-15.066 15.066v52.295c5.014.325 10.043.492 15.066.492z" fill="#fccb88"/><path d="m454.13 173.262c-2.584-14.455-17.748-22.962-31.386-17.519-21.341 8.518-52.526 16.383-96.375 17.867-9.442.321-18.592-3.274-25.271-9.954-6.408-6.398-9.974-15.096-9.974-24.126 0-.382.01-.753.02-1.135 1.491-43.849 9.356-75.034 17.873-96.372 5.444-13.639-3.063-28.803-17.518-31.388-11.527-2.06-23.39-3.135-35.499-3.135s-23.972 1.075-35.499 3.135c-14.456 2.584-22.962 17.749-17.518 31.388 8.517 21.338 16.382 52.523 17.873 96.372.01.382.02.753.02 1.135 0 9.03-3.566 17.728-9.974 24.126-6.679 6.679-15.829 10.275-25.271 9.954-43.849-1.484-75.034-9.349-96.375-17.867-13.638-5.443-28.802 3.064-31.386 17.519-2.06 11.526-3.135 23.39-3.135 35.503 0 12.107 1.074 23.969 3.134 35.493 2.584 14.455 17.748 22.962 31.386 17.518 21.341-8.518 52.526-16.383 96.375-17.867 9.442-.321 18.592 3.274 25.271 9.954 6.408 6.398 9.974 15.096 9.974 24.126 0 .382-.01.753-.02 1.135-1.491 43.852-9.357 75.042-17.874 96.383-5.443 13.638 3.063 28.803 17.519 31.387 11.528 2.061 23.391 3.135 35.5 3.135s23.972-1.075 35.5-3.135c14.455-2.584 22.962-17.748 17.519-31.387-8.518-21.341-16.384-52.532-17.874-96.383-.311-9.431 3.274-18.592 9.954-25.261 6.408-6.408 15.076-9.974 24.106-9.974.392 0 .773.01 1.165.02 43.849 1.484 75.034 9.349 96.375 17.867 13.638 5.443 28.802-3.063 31.386-17.518 2.06-11.524 3.134-23.386 3.134-35.493-.001-12.114-1.075-23.977-3.135-35.503z" fill="#f9f097"/><g fill="#fccb88"><circle cx="256" cy="61.161" r="16.537"/><circle cx="403.6" cy="208.76" r="16.537"/><circle cx="256" cy="356.36" r="16.537"/><circle cx="108.4" cy="208.76" r="16.537"/></g></g><g><path d="m278.192 234.15c2.721-3.123 2.396-7.861-.727-10.582s-7.861-2.396-10.582.727c-5.753 6.602-15.996 6.621-21.766 0-2.721-3.123-7.459-3.448-10.582-.728-3.123 2.722-3.448 7.459-.727 10.582 11.741 13.475 32.651 13.465 44.384.001z"/><path d="m352.301 187.637-30.432 8.155c-4.002 1.072-6.376 5.185-5.304 9.186.898 3.351 3.928 5.561 7.24 5.561 1.627 0 2.295-.42 7.455-1.733v13.764c0 4.142 3.358 7.5 7.5 7.5s7.5-3.358 7.5-7.5c-.063-16.818.141-16.282-.179-17.735l10.101-2.707c4.002-1.072 6.376-5.185 5.304-9.186-1.071-4.002-5.185-6.375-9.185-5.305z"/><path d="m190.131 195.792-30.432-8.155c-3.995-1.071-8.114 1.302-9.186 5.304-1.072 4.001 1.302 8.114 5.304 9.186l10.101 2.707c-.319 1.453-.116.958-.179 17.735 0 4.142 3.358 7.5 7.5 7.5s7.5-3.358 7.5-7.5v-13.764l5.509 1.476c4.002 1.073 8.114-1.305 9.186-5.303 1.073-4.001-1.302-8.114-5.303-9.186z"/><path d="m256 37.109c-13.254 0-24.037 10.784-24.037 24.038s10.783 24.038 24.037 24.038 24.038-10.784 24.038-24.038-10.784-24.038-24.038-24.038zm0 33.076c-4.983 0-9.037-4.054-9.037-9.037s4.054-9.037 9.037-9.037 9.037 4.054 9.037 9.037-4.054 9.037-9.037 9.037z"/><path d="m403.604 184.714c-13.254 0-24.038 10.783-24.038 24.037 0 13.255 10.784 24.038 24.038 24.038s24.037-10.783 24.037-24.038c.001-13.254-10.782-24.037-24.037-24.037zm0 33.075c-4.983 0-9.037-4.054-9.037-9.037s4.054-9.037 9.037-9.037 9.037 4.054 9.037 9.037-4.053 9.037-9.037 9.037z"/><path d="m256 332.318c-13.254 0-24.038 10.783-24.038 24.037s10.784 24.037 24.038 24.037 24.038-10.783 24.038-24.037-10.784-24.037-24.038-24.037zm0 33.075c-4.983 0-9.037-4.054-9.037-9.037s4.054-9.037 9.037-9.037 9.037 4.054 9.037 9.037-4.054 9.037-9.037 9.037z"/><path d="m108.396 184.714c-13.254 0-24.038 10.783-24.038 24.037s10.784 24.038 24.038 24.038 24.037-10.784 24.037-24.038-10.783-24.037-24.037-24.037zm0 33.075c-4.983 0-9.037-4.054-9.037-9.037s4.054-9.037 9.037-9.037 9.037 4.054 9.037 9.037-4.054 9.037-9.037 9.037z"/><path d="m461.519 245.569c4.334-24.245 4.336-49.378 0-73.637-1.656-9.266-7.372-17.152-15.547-21.595-8.506-27.654-23.263-53.573-42.85-75.138-2.785-3.066-7.528-3.295-10.595-.509-3.066 2.785-3.295 7.529-.509 10.595 16.193 17.828 28.828 38.864 36.942 61.386-2.336.188-4.614.619-7.004 1.389-7.03 2.264-36.291 16.029-95.839 18.044-14.923.502-27.911-11.504-27.475-27.465 1.243-36.555 7.078-68.131 17.344-93.849 1.068-2.676 1.86-5.88 2.098-9.008 19.125 6.855 36.888 16.828 52.94 29.735 3.228 2.596 7.949 2.083 10.545-1.145s2.083-7.949-1.145-10.545c-19.78-15.905-41.977-27.681-66.016-35.057-4.578-8.366-12.516-13.911-21.586-15.532-24.147-4.317-49.494-4.317-73.64 0-8.979 1.605-16.964 7.082-21.595 15.548-62.79 19.298-112.229 68.686-131.55 131.548-8.376 4.585-13.929 12.506-15.554 21.599-4.333 24.245-4.336 49.378 0 73.637 1.648 9.217 7.331 17.13 15.54 21.591 7.765 25.314 20.354 48.512 37.478 68.989 2.657 3.177 7.387 3.599 10.565.942 3.177-2.657 3.599-7.387.942-10.565-13.994-16.734-24.721-35.425-31.979-55.694 10.605-.843 41.754-18.443 103.309-19.439 14.932-.246 27.379 11.756 27.022 27.469-1.243 36.56-7.079 68.139-17.345 93.861-1.042 2.612-1.846 5.797-2.095 8.981-21.2-7.615-41.431-19.438-58.746-34.568-3.119-2.725-7.857-2.407-10.583.712s-2.407 7.857.712 10.583c9.642 8.426 20.134 15.914 31.228 22.34-5.575 5.633-13.348 14.43-21.121 26.329-13.134 20.106-28.791 53.325-28.791 97.401 0 4.142 3.358 7.5 7.5 7.5h283.763c4.142 0 7.5-3.358 7.5-7.5 0-44.076-15.657-77.295-28.791-97.401-7.77-11.894-15.54-20.69-21.115-26.323 14.926-8.649 28.76-19.228 41.042-31.51 22.94-22.94 39.973-51.27 49.448-82.098 8.035-4.375 13.866-12.163 15.553-21.601zm-267.601-209.78c.965 12.543 17.107 34.33 19.44 102.834.422 15.746-12.303 28.003-27.476 27.481-68.651-2.324-90.347-18.473-102.845-19.434 18.519-51.514 59.287-92.333 110.881-110.881zm-46.277 380.015c8.965-13.834 18.031-23.17 22.813-27.645 8.811 4.207 18.056 7.796 27.139 10.587 4.828 8.69 12.767 13.945 21.587 15.528 4.71.842 9.469 1.516 14.254 2.032v18.085c-22.286 9.107-37.421 31.19-37.421 55.556v7.053h-22.177v-39.732c0-4.142-3.358-7.5-7.5-7.5s-7.5 3.358-7.5 7.5v39.732h-37.055c1.257-29.349 9.941-56.631 25.86-81.196zm115.926 1.58c0 54.616.056 50.471-.106 51.418-.578 3.597-3.707 6.358-7.461 6.358-3.715 0-6.85-2.699-7.462-6.366-.134-.798-.105-51.308-.104-51.409 4.744.178 9.984.193 15.133-.001zm-21.641 67.831c8.236 6.592 19.899 6.601 28.148 0 1.219 3.616.624 5.907.78 11.785h-29.708c.145-5.493-.447-8.146.78-11.785zm-30.913 11.785v-7.052c0-16.132 8.844-30.935 22.421-38.882.103 12.64-.177 16.487.158 19.168-9.82 11.132-6.978 23.027-7.446 26.767h-15.133zm74.841 0c-.478-3.826 2.284-15.738-7.445-26.766.336-2.769.051-6.082.158-19.168 13.576 7.947 22.42 22.75 22.42 38.882v7.052zm55.692-108.841c4.786 4.48 13.85 13.813 22.813 27.645 15.919 24.565 24.603 51.846 25.862 81.195h-37.056v-39.732c0-4.142-3.358-7.5-7.5-7.5s-7.5 3.358-7.5 7.5v39.733h-22.177v-7.052c0-24.366-15.135-46.449-37.421-55.556v-18.085c4.298-.463 12.697-1.615 15.958-2.386 8.798-2.08 15.879-7.782 19.883-15.174 9.2-2.833 18.476-6.451 27.138-10.588zm-23.464-6.455c-.504-6.49-2.397-8.987-5.737-18.9-8.012-23.776-12.615-51.952-13.703-83.935-.015-.46-.018-.919-.01-1.377.269-14.331 11.957-26.47 27.485-26.095 15.991.541 31.03 1.962 45.043 4.249 18.017 2.941 34.338 7.313 48.808 13.088 3.002 1.118 5.682 1.843 8.996 2.097-18.807 52.315-60.186 92.717-110.882 110.873zm128.671-138.774c-.838 4.691-3.704 8.705-7.863 11.015-6.859 3.813-13.261.854-13.361.857-29.816-11.9-67.196-17.694-99.048-18.401-24.984-.627-43.596 19.768-42.832 42.971 2.171 63.878 17.482 95.371 18.924 100.457 2.167 7.66-1.861 15.752-9.121 18.718-5.249 2.17-23.501 3.529-29.03 3.784-19.937.85-39.923-1.976-44.192-3.198-9.007-2.591-13.684-12.353-10.285-20.849 12.22-30.617 18.429-71.765 18.429-100.301 0-23.156-18.813-41.601-41.598-41.601-4.534 0-20.385.831-34.429 2.511-63.092 7.55-65.975 22.428-79.238 15.054-4.158-2.31-7.025-6.325-7.863-11.016-4.021-22.495-4.024-45.845 0-68.358 1.763-9.861 12.098-15.524 21.223-11.873 7.389 2.949 15.226 5.541 23.465 7.797 37.674 10.318 76.973 10.651 75.465 10.601 23.959.79 43.616-18.737 42.954-42.828-.741-31.852-6.453-69.089-18.408-99.039-3.604-9.035 1.909-19.443 11.873-21.225 22.409-4.005 45.951-4.005 68.361 0 9.319 1.667 14.857 10.946 12.392 19.679-1.34 4.728-16.749 36.504-18.923 100.447-1.044 21.924 16.464 42.176 40.201 42.956 5.599.19 20.665-.934 27.338-1.572 67.403-6.438 74.304-23.4 87.702-15.958 4.158 2.31 7.024 6.325 7.863 11.016 4.022 22.494 4.025 45.843.001 68.356z"/></g></g></svg>