<svg id="Layer_1" height="512" viewBox="0 0 128 128" width="512" xmlns="http://www.w3.org/2000/svg" data-name="Layer 1"><path d="m110.051 121.5v-25.767a18.347 18.347 0 0 0 -16.244-18.227l-4.939-.57h-49.736l-4.939.57a18.347 18.347 0 0 0 -16.244 18.227v25.767z" fill="#e8e8e8"/><path d="m91.958 35.005h9.72v18.348h-9.72z" fill="#e8e8e8"/><path d="m26.322 35.005h9.72v18.348h-9.72z" fill="#e8e8e8" transform="matrix(-1 0 0 -1 62.364 88.357)"/><path d="m95.879 38.38v20.26a7.869 7.869 0 0 1 -4.6 7.159 78.749 78.749 0 0 1 -12.462 4.466 58.95 58.95 0 0 1 -14.817 2.09 58.95 58.95 0 0 1 -14.816-2.09 78.749 78.749 0 0 1 -12.462-4.465 7.869 7.869 0 0 1 -4.6-7.159v-19.7c0-17.669 14.456-32.572 32.124-32.439a31.88 31.88 0 0 1 31.633 31.878z" fill="#cdcdcd"/><path d="m69.8 7.025v14.775a30.317 30.317 0 0 0 -5.6-.551h-.19a28.73 28.73 0 0 0 -5.812.59v-14.781a30.626 30.626 0 0 1 6.044-.558 32.219 32.219 0 0 1 5.558.525z" fill="#4482c3"/><path d="m93.275 121.5v-34.694a10.434 10.434 0 0 0 -6.438-9.87h-45.674a10.434 10.434 0 0 0 -6.438 9.87v34.694z" fill="#4482c3"/><path d="m89.071 76.936c-2.635.983-5.3 1.828-7.975 2.536a67.323 67.323 0 0 1 -17.096 2.385 67.478 67.478 0 0 1 -17.089-2.379q-4.022-1.062-7.982-2.542l6.809-15.8h36.531z" fill="#3b70a8"/><path d="m89.98 42.97v23.4a78.707 78.707 0 0 1 -11.16 3.9 59.045 59.045 0 0 1 -14.82 2.09 59.045 59.045 0 0 1 -14.82-2.09 78.707 78.707 0 0 1 -11.16-3.9v-22.93c0-12.03 11.9-22.2 25.99-22.2h.19a28.576 28.576 0 0 1 18.17 6.37 19.97 19.97 0 0 1 7.61 15.36z" fill="#e8e8e8"/><path d="m71.228 60.65h-5.063a2.641 2.641 0 1 0 0 5.281h5.063a2.641 2.641 0 0 0 0-5.281z" fill="#cdcdcd"/><path d="m49.362 104.754h29.275v16.746h-29.275z" fill="#e8e8e8"/><path d="m110.047 95.736v5.5h-8.367v-9.39h7.951a18.244 18.244 0 0 1 .416 3.89z" fill="#cdcdcd"/><path d="m17.953 95.736v5.5h8.367v-9.39h-7.951a18.244 18.244 0 0 0 -.416 3.89z" fill="#cdcdcd"/><circle cx="98.729" cy="15.834" fill="#e8e8e8" r="3"/><circle cx="47.055" cy="93.847" fill="#e8e8e8" r="3"/><circle cx="64" cy="93.847" fill="#e8e8e8" r="3"/><circle cx="80.945" cy="93.847" fill="#e8e8e8" r="3"/><g fill="#2d1d40"><path d="m47.056 98.6a4.75 4.75 0 1 0 -4.75-4.75 4.756 4.756 0 0 0 4.75 4.75zm0-6a1.25 1.25 0 1 1 -1.25 1.25 1.252 1.252 0 0 1 1.25-1.25z"/><path d="m64 98.6a4.75 4.75 0 1 0 -4.75-4.75 4.756 4.756 0 0 0 4.75 4.75zm0-6a1.25 1.25 0 1 1 -1.25 1.25 1.252 1.252 0 0 1 1.25-1.25z"/><path d="m80.944 98.6a4.75 4.75 0 1 0 -4.75-4.75 4.756 4.756 0 0 0 4.75 4.75zm0-6a1.25 1.25 0 1 1 -1.25 1.25 1.251 1.251 0 0 1 1.25-1.25z"/><path d="m111.784 95.261c-.005-.23-.009-.459-.023-.688-.011-.2-.03-.4-.047-.595s-.038-.414-.062-.62-.05-.39-.079-.585-.065-.411-.1-.616-.071-.393-.112-.589c-.007-.031-.011-.063-.018-.094a.2.2 0 0 0 -.011-.026 20.047 20.047 0 0 0 -2.278-5.864 1.75 1.75 0 1 0 -3.02 1.769 16.536 16.536 0 0 1 1.277 2.743h-5.628a1.75 1.75 0 0 0 -1.75 1.75v9.389a1.749 1.749 0 0 0 1.75 1.75h6.617v16.765h-13.27v-32.94a12.8 12.8 0 0 0 -2.56-7.692l1.14.131a16.423 16.423 0 0 1 6.569 2.21 1.75 1.75 0 0 0 1.789-3.009 19.931 19.931 0 0 0 -7.959-2.679l-3.72-.427-2.638-6.125c.218-.085.434-.173.652-.26.515-.2 1.026-.419 1.537-.635.279-.118.562-.226.84-.347.029-.013.05-.035.078-.049.415-.181.834-.349 1.246-.537a9.642 9.642 0 0 0 5.625-8.751v-3.54h4.051a1.751 1.751 0 0 0 1.75-1.75v-18.35a1.751 1.751 0 0 0 -1.75-1.75h-1.2v-13.01a4.75 4.75 0 1 0 -3.5 0v11.516a33.663 33.663 0 0 0 -26.825-26.437c-.015 0-.027-.013-.043-.016-.143-.026-.287-.044-.431-.069-.265-.045-.531-.089-.8-.127-.078-.011-.155-.027-.233-.037-.178-.025-.357-.041-.535-.062-.252-.031-.5-.063-.757-.088-.33-.033-.661-.057-.992-.08-.177-.012-.354-.029-.533-.039-.527-.028-1.054-.047-1.579-.051-.174 0-.346.008-.52.01a33 33 0 0 0 -23.132 9.766 34.79 34.79 0 0 0 -9.73 18.724h-4.55a1.751 1.751 0 0 0 -1.75 1.75v18.35a1.751 1.751 0 0 0 1.75 1.75h4.051v3.54a9.641 9.641 0 0 0 5.629 8.751c.411.188.829.356 1.243.536.028.014.05.037.08.05.283.123.572.234.856.354.5.212 1.007.424 1.514.625.22.088.439.178.659.263l-2.637 6.125-3.721.427a20.064 20.064 0 0 0 -17.309 15.638c-.006.023-.021.041-.026.065-.017.076-.028.155-.044.232q-.055.274-.1.552c-.083.473-.152.95-.2 1.43-.014.137-.022.274-.033.412-.04.5-.066 1-.07 1.5 0 .044-.006.087-.006.131v25.769a1.751 1.751 0 0 0 1.75 1.75h92.1a1.75 1.75 0 0 0 1.75-1.75v-25.77c-.006-.157-.018-.313-.022-.469zm-70.511-19.337 2.374-5.514c.238.081.478.157.717.236.452.148.9.3 1.355.443q1.506.465 3.019.869a60.356 60.356 0 0 0 15.262 2.147 60.354 60.354 0 0 0 15.264-2.148c1.008-.267 2.015-.559 3.02-.869.449-.138.9-.293 1.344-.44.242-.079.484-.156.726-.238l2.374 5.513c-1.97.682-4.006 1.3-6.076 1.855a65.473 65.473 0 0 1 -16.652 2.332 65.733 65.733 0 0 1 -16.642-2.322c-2.031-.538-4.071-1.163-6.085-1.864zm58.657-24.324h-2.3v-13.221q0-.817-.04-1.629h2.34zm-1.2-37.016a1.249 1.249 0 0 1 .014 2.5h-.026a1.249 1.249 0 0 1 .012-2.5zm-4.6 23.8v20.256a6.123 6.123 0 0 1 -2.4 4.837v-20.5a20.282 20.282 0 0 0 -1.453-7.542 1.75 1.75 0 0 0 -3.252 1.3 16.778 16.778 0 0 1 1.2 6.246v13.505c-3.97 2.523-9.908 3.832-13.33 4.413a4.386 4.386 0 0 0 -3.673-2h-5.057a4.391 4.391 0 0 0 0 8.782h5.063a4.389 4.389 0 0 0 4.246-3.331 46.756 46.756 0 0 0 12.757-3.85v4.7c-.1.042-.2.089-.3.131-.388.16-.78.312-1.171.466q-.806.318-1.615.618-.606.224-1.213.436c-.562.2-1.125.383-1.69.565-.366.119-.732.241-1.1.354-.921.282-1.845.552-2.769.8a56.89 56.89 0 0 1 -14.373 2.035q-1.656 0-3.389-.127c-.742-.055-1.5-.134-2.259-.224a63.4 63.4 0 0 1 -8.721-1.681c-.927-.245-1.852-.515-2.776-.8-.36-.111-.718-.23-1.076-.346-.573-.185-1.145-.375-1.716-.574q-.6-.21-1.2-.43-.82-.3-1.635-.626c-.386-.152-.772-.3-1.155-.459-.1-.043-.2-.09-.308-.133v-21.76c0-9.506 8.166-17.741 18.779-19.9h.006c.407-.084.816-.156 1.228-.221l.222-.03c.345-.052.692-.094 1.039-.132.109-.012.217-.026.326-.037.33-.032.662-.055.993-.075.114-.007.226-.017.34-.023.438-.021.877-.033 1.316-.033h.18c.534 0 1.065.027 1.593.058.18.011.358.027.537.041.345.027.688.061 1.03.1.22.025.44.05.658.08.242.033.481.076.72.115s.491.077.733.124c.023 0 .045 0 .068.006a26.793 26.793 0 0 1 8.02 2.893 1.75 1.75 0 1 0 1.709-3.055 30.061 30.061 0 0 0 -7.712-2.972v-11.184a30.165 30.165 0 0 1 22.58 29.179zm-22.012 24.907a.892.892 0 0 1 -.89.891h-5.063a.891.891 0 0 1 0-1.782h5.063a.892.892 0 0 1 .89.891zm-12.167-43.527v-11.226h.035c.638-.09 1.284-.154 1.932-.2.09-.007.18-.015.271-.02.67-.042 1.343-.065 2.014-.063h.029.127c.531.006 1.065.028 1.6.063.172.011.343.027.515.041q.651.053 1.3.133l.273.035v11.218c-.3-.037-.6-.056-.894-.085-.327-.032-.652-.072-.98-.093q-.973-.067-1.973-.073h-.19c-.612 0-1.218.025-1.821.061-.153.009-.3.019-.457.031-.569.042-1.134.1-1.694.169-.027.004-.057.005-.087.009zm-31.881 31.836v-14.85h2.382c-.048.729-.081 1.459-.081 2.191v12.659zm5.8 7.04v-19.7a31.138 31.138 0 0 1 9.2-21.931 30.022 30.022 0 0 1 13.381-7.758v11.194c-11.5 2.924-20.182 12.271-20.182 23v20.032a6.123 6.123 0 0 1 -2.398-4.837zm-14.17 37.096c0-.063 0-.126.006-.19 0-.382.023-.762.053-1.138.014-.174.031-.347.05-.519.011-.1.029-.195.041-.293h4.72v5.889h-4.87zm0 7.249h6.62a1.75 1.75 0 0 0 1.75-1.75v-9.389a1.751 1.751 0 0 0 -1.75-1.75h-5.62a16.562 16.562 0 0 1 13.7-10.847l1.145-.132c-.169.224-.348.44-.5.676a12.789 12.789 0 0 0 -2.075 7.017v9.731a1.75 1.75 0 0 0 3.5 0v-9.731a9.306 9.306 0 0 1 1.5-5.113 7.933 7.933 0 0 1 2.43-2.397c2.011.693 4.038 1.337 6.065 1.874a69.234 69.234 0 0 0 17.535 2.436 69.006 69.006 0 0 0 17.55-2.449c2.062-.548 4.071-1.186 6.04-1.861a8.908 8.908 0 0 1 3.94 7.51v32.94h-11.142v-15a1.751 1.751 0 0 0 -1.75-1.75h-29.276a1.751 1.751 0 0 0 -1.75 1.75v15h-11.142v-14.25a1.75 1.75 0 1 0 -3.5 0v14.25h-13.27zm57.188 16.765h-25.776v-13.25h25.776zm31.412-20.265h-4.866v-5.885h4.728a16.574 16.574 0 0 1 .138 2.14z"/><path d="m84.264 32.019a1.75 1.75 0 0 0 2.736-2.188 24.526 24.526 0 0 0 -1.948-2.154 1.75 1.75 0 1 0 -2.453 2.5 20.987 20.987 0 0 1 1.665 1.842z"/><path d="m48.119 31.431c-3.773 3.377-5.85 7.644-5.85 12.014v5.243a1.75 1.75 0 0 0 3.5 0v-5.243a12.809 12.809 0 0 1 4.685-9.407 1.75 1.75 0 1 0 -2.335-2.607z"/></g></svg>