<svg id="Capa_1" enable-background="new 0 0 512 512" height="512" viewBox="0 0 512 512" width="512" xmlns="http://www.w3.org/2000/svg"><g><g><g fill="#76e6d5"><path d="m415.093 504.5h-26.861l-66.116-59.664-8.601-59.664h29.41c-.001.001 72.168 44.398 72.168 119.328z"/><path d="m328.573 504.5h-145.146l6.457-59.663 66.116-56.246 66.116 56.246z"/><path d="m198.486 385.173-8.601 59.664-66.117 59.663h-26.861c0-74.93 72.169-119.327 72.169-119.327z"/></g><path d="m198.426 385.586.06-.413h-29.41s-72.169 44.397-72.169 119.327h30.043c1.707-69.087 64.446-114.375 71.476-118.914z" fill="#00d6bc"/><g><path d="m256 388.591-72.573 115.909h-59.659l74.718-119.327h55.37z" fill="#f9f097"/></g><path d="m127.227 498.976-3.459 5.523h3.182c.046-1.859.145-3.698.277-5.523z" fill="#fccb88"/><g><path d="m388.232 504.5h-59.659l-72.573-115.909 2.144-3.418h55.37z" fill="#f9f097"/></g><path d="m451.057 160.456h-51.911v112.644h51.911c20.831 0 37.719-16.887 37.719-37.719v-37.206c0-20.831-16.887-37.719-37.719-37.719z" fill="#f9f097"/><path d="m60.943 160.456h51.911v112.644h-51.911c-20.831 0-37.719-16.887-37.719-37.719v-37.206c0-20.831 16.887-37.719 37.719-37.719z" fill="#f9f097"/><circle cx="149.339" cy="84.662" fill="#f9f097" r="36.485"/><path d="m169.339 101.147c-20.15 0-36.485-16.335-36.485-36.485 0-4.878.965-9.529 2.702-13.783-13.315 5.438-22.702 18.512-22.702 33.783 0 20.15 16.335 36.485 36.485 36.485 15.272 0 28.345-9.387 33.783-22.702-4.254 1.737-8.905 2.702-13.783 2.702z" fill="#fccb88"/><circle cx="362.661" cy="84.662" fill="#f9f097" r="36.485"/><path d="m346.176 104.661c0-20.15 16.335-36.485 36.485-36.485 4.878 0 9.529.965 13.783 2.702-5.438-13.315-18.511-22.702-33.783-22.702-20.15 0-36.485 16.335-36.485 36.485 0 15.272 9.387 28.345 22.702 33.783-1.737-4.253-2.702-8.904-2.702-13.783z" fill="#fccb88"/><circle cx="256" cy="227.397" fill="#76e6d5" r="180.109"/><path d="m105.891 227.397c0-94.419 72.657-171.858 165.109-179.482-4.947-.408-9.948-.627-15-.627-99.471 0-180.109 80.638-180.109 180.109s80.638 180.109 180.109 180.109c5.052 0 10.053-.219 15-.626-92.452-7.625-165.109-85.064-165.109-179.483z" fill="#00d6bc"/><path d="m381.196 227.397c0 69.144-56.052 125.196-125.196 125.196s-125.196-56.052-125.196-125.196z" fill="#da9d81"/><path d="m384.787 134.563h-73.18c-10.49 0-20.491 4.432-27.538 12.203-.177.195-.354.391-.532.586-14.754 16.27-40.322 16.27-55.076 0l-.532-.586c-7.046-7.771-17.048-12.203-27.538-12.203h-73.18c-32.649 0-59.117 26.468-59.117 59.117v39.116c0 32.649 26.468 59.117 59.117 59.117h26.618c11.918 0 23.665-2.84 34.266-8.285l33.636-17.275c21.509-11.046 47.022-11.047 68.531-.001 10.517 5.401 22.31 11.458 33.64 17.277 10.602 5.445 22.346 8.284 34.264 8.284h26.618c32.649 0 59.117-26.468 59.117-59.117v-39.116c.003-32.649-26.464-59.117-59.114-59.117z" fill="#fccb88"/><path d="m98.096 232.797v-39.116c0-32.649 26.468-59.117 59.117-59.117h-30c-32.649 0-59.117 26.468-59.117 59.117v39.116c0 32.649 26.468 59.117 59.117 59.117h26.618c.71 0 1.42-.011 2.129-.032-32.069-.669-57.864-26.856-57.864-59.085z" fill="#fab659"/><path d="m302.868 54.368c0 25.884-20.983 26.641-46.868 26.641s-46.868-.757-46.868-26.641 20.984-46.868 46.868-46.868 46.868 20.984 46.868 46.868z" fill="#f9f097"/><path d="m239.132 54.368c0-20.636 13.343-38.145 31.868-44.401-4.711-1.591-9.752-2.467-15-2.467-25.884 0-46.868 20.983-46.868 46.868 0 25.884 20.983 26.641 46.868 26.641 5.248 0 10.289-.036 15-.301-18.525-1.043-31.868-5.704-31.868-26.34z" fill="#fccb88"/></g><g><path d="m168.261 243.159c4.142 0 7.5-3.358 7.5-7.5v-19.185c0-4.142-3.358-7.5-7.5-7.5s-7.5 3.358-7.5 7.5v19.185c0 4.142 3.358 7.5 7.5 7.5z"/><path d="m343.738 243.159c4.142 0 7.5-3.358 7.5-7.5v-19.185c0-4.142-3.358-7.5-7.5-7.5s-7.5 3.358-7.5 7.5v19.185c0 4.142 3.358 7.5 7.5 7.5z"/><path d="m282.408 293.927c2.721-3.123 2.396-7.86-.727-10.582-3.123-2.721-7.86-2.396-10.582.727-7.981 9.159-22.195 9.185-30.199 0-2.721-3.123-7.459-3.448-10.582-.727-3.123 2.722-3.448 7.459-.727 10.582 13.978 16.036 38.855 16.019 52.817 0z"/><path d="m60.943 280.6h15.129c10.824 36.553 32.898 69.451 62.891 93.426 5.275 4.216 10.722 8.119 16.323 11.704-37.372 28.574-65.878 70.932-65.878 118.771 0 4.142 3.358 7.5 7.5 7.5h318.185c4.142 0 7.5-3.358 7.5-7.5 0-47.753-28.451-90.154-65.878-118.771 38.844-24.866 66.618-62.596 79.214-105.13h15.129c24.934 0 45.219-20.285 45.219-45.218v-37.207c0-24.934-20.285-45.218-45.219-45.218h-13.605c-4.649-5.998-10.295-11.18-16.692-15.301-5.875-10.762-12.752-20.863-20.51-30.173 17.629-29.067-3.203-66.806-37.589-66.806-12.494 0-24.243 5.295-32.52 14.394-6.564-2.833-13.303-5.303-20.197-7.372-3.301-26.842-26.226-47.699-53.945-47.699s-50.644 20.856-53.944 47.698c-6.894 2.069-13.633 4.539-20.197 7.372-8.277-9.098-20.027-14.394-32.52-14.394-34.401 0-55.208 37.754-37.589 66.806-7.758 9.31-14.635 19.411-20.51 30.173-6.396 4.122-12.043 9.303-16.692 15.301h-13.605c-24.934 0-45.219 20.285-45.219 45.218v37.207c0 24.934 20.285 45.219 45.219 45.219zm63.315-138.446c3.065-.177.177-.048 76.135-.091 8.703-.005 16.656 3.966 22.513 10.327 17.706 19.526 48.476 19.545 66.187.002.25-.182 8.075-10.329 22.515-10.329 80.381.084 79.64-1.056 91.129 3.225 19.643 7.309 33.668 26.24 33.668 48.393 0 42.581.202 41.693-.605 47.019-3.85 24.953-25.497 43.714-51.012 43.714h-21.478c-2.779-.258-18.186 1.679-35.978-7.455l-33.641-17.277c-23.512-12.068-51.686-12.17-75.384.001l-33.636 17.275c-17.803 9.143-33.284 7.194-35.979 7.457-18.54-.441-25.277 1.261-37.032-2.399-20.676-6.549-36.063-25.992-36.063-49.218.002-53.139-.037-35.519.001-39.187.034-27.422 21.602-49.932 48.66-51.457zm13.055 354.846c7.029-11.226 50.777-81.093 57.655-92.078 11.823 4.061 24.067 6.919 36.617 8.53l-52.311 83.548zm111.093-82.146c4.951.192 9.787.21 15.188 0l51.434 82.146h-118.056zm-110.08 7.176c12.498-14.249 25.156-23.885 31.134-28.083 3.708 1.939 7.473 3.744 11.29 5.42-17.855 28.516-42.204 67.401-61.134 97.633h-14.953c1.798-26.339 13.1-51.525 33.663-74.97zm269.005 74.97h-14.946l-22.555-36.02c-2.197-3.511-6.825-4.575-10.337-2.377-3.302 2.071-4.428 6.267-2.75 9.667.322.652-.589-.893 17.944 28.73h-41.961l-52.312-83.548c12.55-1.61 24.794-4.469 36.617-8.53l24.277 38.772c2.185 3.489 6.801 4.587 10.337 2.377 3.523-2.21 4.568-6.837 2.376-10.337l-22.771-36.367c3.816-1.676 7.581-3.481 11.289-5.419 13.466 9.472 60.851 46.649 64.792 103.052zm-89.864-108.26s-.001 0-.002 0c-54.315 20.707-119.279 13.419-169.136-26.432-23.378-18.687-41.533-43.258-52.592-70.769 18.029 9.683 32.162 7.704 48.823 7.874 7.295 11.268 16.222 21.356 26.618 30.01 3.183 2.649 7.912 2.217 10.563-.967 2.65-3.184 2.217-7.913-.967-10.563-6.799-5.659-12.898-12.002-18.226-18.947 19.466-2.109 28.966-8.632 62.613-25.921 19.459-9.995 42.524-9.837 61.678-.001 35.925 18.414 33.869 17.485 37.391 19.075 8.054 3.626 16.598 5.913 25.221 6.847-34.824 45.387-95.972 58.421-145.356 34.107-3.718-1.83-8.212-.3-10.042 3.416s-.3 8.212 3.416 10.042c59.643 29.365 132.985 10.057 169.996-47.097 11.814-.766 28.555 3 48.8-7.875-17.848 44.4-53.499 79.932-98.798 97.201zm128.783-220.783h4.807c16.663 0 30.219 13.556 30.219 30.218v37.207c0 16.663-13.556 30.218-30.219 30.218h-8.277c5.155-9.048 8.06-19.1 8.545-29.685.107-2.347.087.777.079-42.234 0-8.988-1.843-17.835-5.154-25.724zm-101.667-105.955c18.807-15.011 47.063-1.686 47.063 22.659 0 3.773-.741 7.491-2.147 10.942-12.953-13.149-28.251-24.675-44.916-33.601zm-88.583-47.002c20.228 0 38.702 15.563 39.368 39.368 0 14.596-5.429 19.141-39.368 19.141-8.591 0-23.848-.104-31.577-3.692-5.61-2.77-7.791-7.497-7.791-15.449 0-.101.021-.864.021-.764 0-.011-.001-.021-.001-.032.427-21.34 17.907-38.572 39.348-38.572zm-133.499 80.604c-7.771-19.077 6.335-39.927 26.838-39.927 6.661 0 13.007 2.279 18.078 6.326-16.839 9.018-32.085 20.581-44.916 33.601zm-7.787 32.64c20.892-29.684 51.46-53.119 87.763-64.967 2.076 10.161 8.07 17.235 17.574 21.073 9.542 3.853 21.417 4.159 35.949 4.159 24.376 0 48.546-.917 53.522-25.232 34.864 11.378 65.997 34.041 87.763 64.967-8.432-1.614-6.604-1.15-85.678-1.181-12.487 0-24.571 5.271-33.101 14.672-.235.232-2.709 3.434-7.456 6.244-11.295 6.682-26.985 5.416-37.035-5.667-.344-.249-12.027-15.249-33.624-15.249-70.766.419-74.628-.934-85.677 1.181zm-83.99 69.931c0-16.663 13.556-30.218 30.219-30.218h4.807c-2.869 6.838-4.488 13.92-4.978 21.13-.236 3.43-.175-1.272-.175 43.762.008 11.197 2.761 22.461 8.624 32.751h-8.278c-16.663 0-30.219-13.556-30.219-30.218z"/></g></g></svg>