<svg id="Capa_1" enable-background="new 0 0 512.001 512.001" height="512" viewBox="0 0 512.001 512.001" width="512" xmlns="http://www.w3.org/2000/svg"><g><path d="m372.636 504.5c23.807 0 40.664-23.035 33.731-45.811-19.607-64.411-79.482-111.278-150.304-111.278-71.096 0-131.161 47.23-150.53 112.027-6.724 22.499 10.467 45.062 33.949 45.062z" fill="#fbf1cf"/><path d="m294.079 352.047c-1.744 3.06-3.48 6.454-5.235 10.257-5.185 11.235-10.433 25.755-15.177 41.992-10.393 35.57-16.598 73.03-16.598 100.204h71.133c5.993-14.988 23.718-51.354 63.211-79.777-21.116-35.747-55.989-62.4-97.334-72.676z" fill="#f5e2a2"/><path d="m223.158 362.304c-1.75-3.792-3.481-7.176-5.219-10.229-41.322 10.302-76.168 36.964-97.261 72.711 38.881 28.042 56.885 64.576 63.052 79.714h71.203c0-27.175-6.204-64.634-16.598-100.204-4.745-16.237-9.993-30.757-15.177-41.992z" fill="#f5e2a2"/><ellipse cx="256.001" cy="387.145" fill="#cb9d82" rx="72.409" ry="72.409" transform="matrix(.991 -.133 .133 .991 -49.049 37.342)"/><path d="m291.295 504.5 28.26-121.242c-26.006 33.066-46.711 49.475-63.555 49.475s-37.548-16.41-63.555-49.475l28.26 121.242z" fill="#cde9fa"/><path d="m187.514 354.096c14.972 6.862 42.418 95.567 42.418 150.404h-19.614s-17.219-59.709-77.663-101.867c-5.323-3.713-5.822-11.408-.922-15.663 10.56-9.17 29.724-23.399 55.781-32.874z" fill="#7ca1dc"/><path d="m324.487 354.096c-14.972 6.862-42.418 95.567-42.418 150.404h19.614s17.219-59.709 77.663-101.867c5.323-3.713 5.822-11.408.922-15.663-10.56-9.17-29.723-23.399-55.781-32.874z" fill="#7ca1dc"/><ellipse cx="57.057" cy="223.441" fill="#cb9d82" rx="49.557" ry="45.663"/><path d="m37.725 306.705-14.671-26.352c-6.797-12.208 2.03-27.224 16.002-27.224h31.623c13.972 0 22.799 15.016 16.002 27.224l-14.671 26.352c-7.481 13.434-26.806 13.434-34.285 0z" fill="#8de1e0"/><ellipse cx="454.944" cy="223.441" fill="#b7856b" rx="49.557" ry="45.663"/><path d="m474.277 306.705 14.671-26.352c6.797-12.208-2.03-27.224-16.002-27.224h-31.623c-13.972 0-22.799 15.016-16.002 27.224l14.671 26.352c7.48 13.434 26.805 13.434 34.285 0z" fill="#8de1e0"/><path d="m451.394 223.441c0-97.644-87.481-176.801-195.393-176.801s-195.394 79.157-195.394 176.801 87.481 163.704 195.393 163.704 195.394-66.059 195.394-163.704z" fill="#cb9d82"/><path d="m164.619 67.142c-61.864 29.675-104.012 88.529-104.012 156.299 0 97.644 87.481 163.704 195.393 163.704 18.672 0 36.732-1.981 53.833-5.758-208.976-17.688-200.653-226.347-145.214-314.245z" fill="#b7856b"/><ellipse cx="127.184" cy="71.27" fill="#4e5660" rx="66.577" ry="63.77"/><path d="m256.001 46.641c-107.913 0-195.393 79.156-195.393 176.801 9.774-17.575 43.656-71.066 95.741-65.704 60.209 6.198 81.801-27.901 99.652-45.6 17.851 17.699 39.443 51.797 99.652 45.6 52.085-5.362 85.967 48.129 95.741 65.704 0-97.645-87.481-176.801-195.393-176.801z" fill="#4e5660"/><path d="m60.607 223.441c8.247-14.829 33.659-55.23 72.687-64.269 4.703-35.419 16.277-68.172 31.325-92.03-61.864 29.675-104.012 88.529-104.012 156.299z" fill="#383c43"/><g><g fill="#fff"><ellipse cx="141.252" cy="263.115" rx="42.34" ry="33.717"/><ellipse cx="370.749" cy="263.115" rx="42.34" ry="33.717"/></g></g><path d="m512.001 223.441c0-30.61-28.016-55.475-61.624-52.978-5.497-16.677-13.601-32.626-24.173-47.392-2.411-3.369-7.098-4.143-10.464-1.732-3.368 2.412-4.144 7.096-1.732 10.464 13.727 19.173 22.903 40.507 27.157 62.813-21.854-27.69-51.062-47.969-86.28-44.34-55.884 5.748-74.655-24.682-93.605-43.465-2.924-2.899-7.637-2.899-10.561 0-18.511 18.357-37.458 49.247-93.603 43.465-35.219-3.627-64.421 16.647-86.271 44.327 15.236-79.664 92.459-140.464 185.155-140.464 51.183 0 99.029 18.22 134.725 51.304 3.04 2.816 7.783 2.636 10.6-.402 2.815-3.038 2.635-7.783-.402-10.599-55.725-51.647-135.147-66.414-204.046-47.312-10.441-28.097-38.041-47.13-69.693-47.13-40.846 0-74.077 31.972-74.077 71.271 0 22.302 11.073 43.408 29.344 56.786-8.793 13.152-15.814 27.382-20.787 42.409-33.724-2.53-61.663 22.445-61.663 52.975 0 13.846 5.704 26.897 15.833 36.738-3.703 7.584-3.496 16.345.667 23.822l14.671 26.352c4.856 8.721 13.714 13.928 23.695 13.928 17.225-.001 23.756-14.152 23.903-14.302 15.194 23.107 37.006 43.134 65.232 58.145-7.33 4.986-13.142 9.672-17.185 13.183-7.227 6.276-7.853 16.936-2.128 24.05-11.858 15.666-20.711 33.101-26.34 51.934-6.14 20.539 4.176 42.534 23.995 51.162 3.801 1.656 8.219-.09 9.87-3.883 1.653-3.798-.085-8.217-3.883-9.87-12.868-5.602-19.58-19.837-15.611-33.113 5.076-16.983 13.038-32.719 23.697-46.876 37.8 29.306 56.134 65.392 63.145 82.29h-38.592c-4.142 0-7.5 3.358-7.5 7.5s3.358 7.5 7.5 7.5c71.656.003 207.097 0 211.667 0 28.781 0 49.337-27.798 40.905-55.495-5.653-18.573-14.445-35.772-26.163-51.234 5.653-7.114 5.008-17.709-2.193-23.964-4.043-3.511-9.855-8.198-17.186-13.183 26.59-14.142 49.109-33.626 65.232-58.145l.208.375c8.286 14.883 23.586 13.898 23.694 13.928 9.981 0 18.84-5.207 23.695-13.928l14.671-26.352c4.163-7.477 4.37-16.238.667-23.823 10.13-9.843 15.834-22.893 15.834-36.739zm-443.894-152.17c0-31.028 26.502-56.271 59.077-56.271 25.046 0 46.888 14.765 55.369 36.642-36.843 13.041-68.488 35.592-91.268 64.315-14.62-10.611-23.178-26.9-23.178-44.686zm-53.106 152.17c0-20.967 18.888-38.393 42.49-38.153-4.796 20.615-5.499 41.246-2.873 60.341h-15.563c-4.713 0-9.182 1.242-13.054 3.51-7.041-6.993-11-16.1-11-25.698zm50.455 79.615c-4.624 8.305-16.554 8.306-21.179 0l-14.671-26.352c-4.024-7.228 1.173-16.076 9.449-16.076h18.381c2.838 11.922 7.049 23.388 12.57 34.256zm150.257 193.944c-5.851-16.103-26.838-64.299-78.767-100.519-1.319-.921-1.509-2.794-.294-3.849 4.986-4.33 12.908-10.609 23.237-16.905 12.31 5.27 25.341 9.477 38.907 12.578 10.912 28.733 22.003 73.849 23.47 108.694h-6.553zm.216-105.405c26.235 4.068 53.906 4.069 80.144 0-1.264 3.673-2.519 7.527-3.75 11.527-14.55 14.659-26.77 22.111-36.322 22.111s-21.772-7.451-36.321-22.109c-1.232-4.001-2.487-7.855-3.751-11.529zm58.795 105.405h-37.447c-.835-20.877-4.969-45.252-10.481-67.928 20.886 14.836 37.504 14.85 58.409 0-5.511 22.676-9.645 47.051-10.481 67.928zm124.468-36.126c5.516 18.12-7.933 36.126-26.556 36.126h-60.196c7.018-16.916 25.374-53.039 63.227-82.354 10.526 13.967 18.429 29.486 23.525 46.228zm-23.843-68.241c1.21 1.049 1.03 2.925-.295 3.849-51.928 36.219-72.914 84.415-78.766 100.518h-6.553c1.466-34.845 12.558-79.961 23.47-108.694 13.566-3.102 26.597-7.308 38.907-12.578 10.33 6.295 18.252 12.574 23.237 16.905zm14.087-56.545c-36.745 29.846-85.339 43.557-133.435 43.557-101.336 0-186.669-60.643-187.867-154.28 18.851-32.945 49.796-64.037 87.447-60.167 24.746 2.549 45.626-1.042 63.84-10.975 15.496-8.449 25.499-19.307 36.58-31.244.581.626 1.17 1.263 1.767 1.909 15.409 16.672 37.967 41.088 84.015 41.085 4.634 0 9.513-.247 14.639-.775 37.809-3.888 68.743 27.478 87.447 60.167-.556 43.354-19.827 82.615-54.433 110.723zm92.959-59.383-14.671 26.352c-4.624 8.304-16.554 8.307-21.179 0l-4.55-8.171c5.521-10.868 9.733-22.334 12.57-34.256h18.38c8.275-.001 13.476 8.844 9.45 16.075zm3.606-27.566c-3.873-2.268-8.341-3.51-13.055-3.51h-15.562c2.715-19.742 1.771-40.366-2.858-60.341 23.177-.203 42.475 16.787 42.475 38.154 0 9.596-3.96 18.704-11 25.697zm-320.073-43.29c-4.142 0-7.5 3.358-7.5 7.5v17.309c0 4.142 3.358 7.5 7.5 7.5s7.5-3.358 7.5-7.5v-17.309c0-4.142-3.358-7.5-7.5-7.5zm180.145 0c-4.143 0-7.5 3.358-7.5 7.5v17.309c0 4.142 3.357 7.5 7.5 7.5 4.142 0 7.5-3.358 7.5-7.5v-17.309c0-4.142-3.358-7.5-7.5-7.5zm20.227 258.71h-11.527c-4.143 0-7.5 3.358-7.5 7.5s3.357 7.5 7.5 7.5h11.527c4.143 0 7.5-3.358 7.5-7.5s-3.357-7.5-7.5-7.5zm-81.625-240.071c-3.125-2.721-7.861-2.396-10.582.727-4.567 5.241-11.162 8.247-18.093 8.247-6.932 0-13.526-3.005-18.093-8.246-2.722-3.124-7.459-3.448-10.581-.727-3.123 2.721-3.448 7.459-.727 10.582 7.416 8.511 18.132 13.392 29.401 13.392s21.984-4.881 29.401-13.391c2.723-3.125 2.397-7.862-.726-10.584z"/></g></svg>