<svg id="Capa_1" enable-background="new 0 0 512 512" height="512" viewBox="0 0 512 512" width="512" xmlns="http://www.w3.org/2000/svg"><g><g><path d="m379.487 407.238-246.944-.04c-16.109 23.355-31.754 56.524-31.754 97.302h129.945l25.281-14.15 25.25 14.15h129.945c.001-40.758-15.624-73.917-31.723-97.262z" fill="#ff748f"/><path d="m100.789 504.5h40c0-40.774 15.641-73.94 31.749-97.295l-39.995-.007c-16.109 23.355-31.754 56.523-31.754 97.302z" fill="#fd5f7e"/><path d="m379.487 407.238c-17.13-24.821-34.785-38.565-34.785-38.565h-177.404s-17.645 13.724-34.755 38.525c30.104 17.616 63.554 28.512 98.192 32.086v65.216h50.531v-65.211c35.1-3.616 68.502-14.696 98.221-32.051z" fill="#a4e6ff"/><path d="m163.102 422.298c3.05-5.408 6.235-10.452 9.441-15.1 17.11-24.8 34.755-38.524 34.755-38.524h-40c-.209.207-17.426 13.407-34.755 38.524 9.851 5.765 20.067 10.795 30.559 15.1z" fill="#5bd6fd"/><path d="m82.524 283.329c32.017 63.315 97.677 106.725 173.476 106.725 74.417 0 139.061-41.841 171.691-103.282l-171.691-68.385z" fill="#ffdcce"/><path d="m82.524 283.329c32.017 63.315 97.677 106.725 173.476 106.725 6.756 0 13.431-.35 20.01-1.022-67.234-6.873-124.319-48.025-153.485-105.702h-40.001z" fill="#ffcabd"/><path d="m83.129 186.596s-23.858 10.292-37.694 40.661c-6.553 14.383-6.837 30.8-.946 45.466 8.061 20.07 25.333 51.151 61.019 79.263 10.809 8.515 26.758 4.141 31.622-8.731 9.632-25.486 34.824-64.655 100.711-95.199z" fill="#a4e6ff"/><path d="m83.129 186.596s-23.858 10.292-37.694 40.661c-6.553 14.383-6.837 30.8-.946 45.466 1.752 4.361 3.94 9.244 6.656 14.501.733-8.844 2.955-17.584 6.712-25.831 18.798-41.26 51.213-55.243 51.213-55.243z" fill="#5bd6fd"/><path d="m428.871 186.596s23.858 10.292 37.694 40.661c6.553 14.383 6.837 30.8.946 45.466-8.061 20.07-25.333 51.151-61.019 79.263-10.809 8.515-26.758 4.141-31.622-8.731-9.632-25.486-34.824-64.655-100.711-95.199z" fill="#a4e6ff"/><path d="m215.575 30.746-38.645-18.549c-19.943-9.572-43.87-4.173-57.715 13.079-17.038 21.232-31.626 56.78-14.893 111.162l121.509 59.342 30.169-82.654z" fill="#a4e6ff"/><path d="m134.322 137.439c-16.733-54.382-2.144-89.93 14.893-111.162 6.245-7.783 14.545-13.144 23.603-15.816-19.033-7.042-40.698-1.266-53.603 14.816-17.038 21.232-31.626 56.78-14.893 111.162z" fill="#5bd6fd"/><path d="m392.784 25.277c-13.844-17.253-37.772-22.652-57.714-13.08l-38.645 18.549-40.425 82.38 30.169 82.655 121.509-59.342c16.733-54.382 2.144-89.93-14.894-111.162z" fill="#a4e6ff"/><path d="m439.112 177.666-17.655-41.481c-3.868-9.088-14.371-13.32-23.459-9.452l-101.573 43.231v-139.218h-80.849v139.218l-101.573-43.231c-9.088-3.868-19.591.364-23.459 9.452l-17.655 41.481c-3.868 9.088.364 19.591 9.452 23.459l116.496 49.582c36.524 15.545 77.803 15.545 114.326 0l116.497-49.582c9.088-3.868 13.32-14.371 9.452-23.459z" fill="#ff748f"/><path d="m102.342 191.949 18.382-43.191c3.212-7.546 10.817-11.86 18.565-11.262l-25.286-10.762c-9.088-3.868-19.591.364-23.459 9.452l-17.654 41.481c-3.868 9.088.364 19.591 9.452 23.459l22.448 9.554c-4.015-5.164-5.191-12.288-2.448-18.731z" fill="#fd5f7e"/></g><g><path d="m157.848 190.931 12.012 3.218c-.987 1.27-1.581 2.861-1.581 4.594v13.539c0 4.142 3.358 7.499 7.499 7.499 4.142 0 7.499-3.358 7.499-7.499-.032-14.311.069-13.489-.077-14.559 5.627 1.438 6.38 1.886 8.024 1.886 3.311 0 6.341-2.21 7.239-5.56 1.072-4.001-1.302-8.112-5.303-9.185l-31.431-8.422c-3.998-1.072-8.113 1.303-9.185 5.303-1.071 4.002 1.303 8.114 5.304 9.186z"/><path d="m322.721 199.353 6.079-1.629c-.145 1.063-.046.375-.077 14.559 0 4.142 3.358 7.499 7.499 7.499s7.499-3.358 7.499-7.499v-13.539c0-1.733-.594-3.324-1.581-4.594l12.012-3.218c4.001-1.072 6.375-5.184 5.303-9.185s-5.186-6.375-9.185-5.303l-31.431 8.422c-4.001 1.072-6.375 5.184-5.303 9.185 1.073 4.001 5.184 6.372 9.185 5.302z"/><path d="m278.291 291.237c2.721-3.123 2.396-7.86-.727-10.58-3.123-2.721-7.859-2.396-10.58.727-5.806 6.663-16.143 6.682-21.967 0-2.721-3.123-7.458-3.447-10.581-.726-3.122 2.721-3.447 7.458-.726 10.58 11.795 13.534 32.797 13.522 44.581-.001z"/><path d="m100.883 357.894c10.578 8.335 24.956 7.751 34.766-.157 6.039 4.504 12.269 8.645 18.675 12.406-7.035 6.678-17.564 17.764-27.941 32.807-2.101 4.191-33.077 42.804-33.077 101.551 0 4.142 3.358 7.499 7.499 7.499h310.389c4.142 0 7.499-3.358 7.499-7.499 0-35.059-11.427-70.16-33.045-101.509 0 0 0 0 0-.001 0 0-.001-.001-.001-.001-10.394-15.06-20.935-26.162-27.975-32.845 6.407-3.762 12.638-7.903 18.678-12.408 9.739 7.852 24.12 8.545 34.767.158 13.232-10.423 25.073-22.111 35.194-34.738 2.591-3.232 2.071-7.951-1.161-10.542-3.233-2.591-7.952-2.07-10.542 1.161-9.409 11.739-20.435 22.618-32.772 32.337-6.86 5.403-16.901 2.61-19.963-5.489 0 0 0 0 0-.001-12.945-34.267-40.285-61.414-70.811-80.953.109-.042 122.027-51.453 125.573-53.804.76-.501 2.227-1.591 3.312-2.607 6.581 5.888 14.085 14.655 19.772 27.137 5.641 12.381 5.936 26.798.811 39.557-2.782 6.927-6.174 13.884-10.082 20.678-2.065 3.59-.829 8.175 2.761 10.24 3.59 2.066 8.174.829 10.24-2.761 4.256-7.4 7.957-14.992 10.999-22.566 6.647-16.548 6.253-35.27-1.08-51.366-7.422-16.29-17.529-27.26-25.898-34.223 1.082-5.064.593-10.328-1.477-15.192l-17.653-41.476c-1.958-4.6-5.157-8.427-9.22-11.139 10.453-49.498-5.167-82.407-20.5-101.514-16.103-20.067-43.573-26.295-66.804-15.146l-37.102 17.809h-77.428l-37.103-17.809c-23.228-11.149-50.7-4.921-66.802 15.146-5.098 6.353-9.467 13.275-12.986 20.574-1.799 3.731-.233 8.214 3.497 10.012 3.731 1.799 8.214.233 10.012-3.497 3.028-6.278 6.787-12.233 11.175-17.702 11.715-14.599 31.706-19.126 48.614-11.011l34.387 16.505v123.143c-91.332-38.124-91.441-40.72-100.786-40.823-3.148-15.512-3.673-30.177-1.556-43.676.642-4.092-2.156-7.929-6.247-8.571-4.092-.642-7.929 2.156-8.57 6.247-2.455 15.66-1.787 32.561 1.96 50.314-4.063 2.713-7.263 6.539-9.22 11.139l-17.653 41.477c-2.117 4.975-2.512 10.256-1.464 15.181-8.373 6.962-18.486 17.936-25.911 34.233-7.333 16.095-7.727 34.818-1.08 51.366 8.7 21.662 26.751 53.534 63.33 82.349zm119.233-92.266c23.543 5.66 48.224 5.66 71.767 0 32.675 18.594 62.531 45.204 75.796 79.877-66.427 49.735-157.681 49.174-223.359.001 13.386-35.008 43.342-61.409 75.796-79.878zm-85.182 151.548c26.539 14.555 56.31 24.641 88.304 28.792v51.034h-114.75c1.355-27.697 10.231-54.49 26.446-79.826zm153.828 79.826v-51.028c31.914-4.39 60.249-13.382 88.33-28.762 16.199 25.318 25.066 52.098 26.42 79.79zm79.705-92.194c-27.898 15.032-57.64 23.904-87.973 27.028-3.824.394-6.731 3.615-6.731 7.46v57.705h-35.528v-57.71c0-2.606-1.343-4.972-3.474-6.329-4.22-2.686-42.242-1.759-91.203-28.189 10.091-13.378 19.769-22.668 24.79-27.134 53.18 25.773 118.865 27.352 175.305-.003 5.017 4.456 14.678 13.725 24.814 27.172zm-30.161-385.798c16.91-8.116 36.9-3.588 48.615 11.011 18.909 23.563 24.88 53.081 17.789 87.814-3.281.036-6.555.715-9.665 2.038l-91.126 38.785v-123.143zm-258.499 161.627 17.653-41.476c2.004-4.708 7.026-7.106 11.796-6.067 1.364.305-5.429-2.486 103.387 43.806 5.411 2.073 10.436-1.822 10.436-6.9v-131.705h65.842v131.704c0 5.45 5.597 8.965 10.436 6.9 105.739-44.979 102.315-43.865 105.01-44.03 4.28-.229 8.398 2.125 10.171 6.291l17.653 41.477c1.792 4.211.576 8.813-2.514 11.689-1.883 1.738 1.482.009-64.901 28.288-58.645 24.959-59.969 25.983-72.176 29.324-29.334 7.994-61.613 6.32-90.822-6.104-121.403-51.671-118.523-49.652-121.003-53.312-1.977-2.95-2.349-6.639-.968-9.885zm-27.526 49.759c5.685-12.478 13.187-21.244 19.767-27.132 1.557 1.455 3.416 2.802 5.508 3.901 1.919 1.008-5.738-2.384 118.35 50.47.109.044 2.947 1.234 5.032 2.035-57.904 37.042-68.716 77.721-71.79 82.95-3.88 6.609-12.789 8.374-18.984 3.492-33.98-26.768-50.674-56.19-58.695-76.159-5.124-12.759-4.829-27.177.812-39.557z"/></g></g></svg>