<svg id="Capa_1" enable-background="new 0 0 512 512" height="512" viewBox="0 0 512 512" width="512" xmlns="http://www.w3.org/2000/svg"><g><g><path d="m466.617 225.406s3.126 187.426-63.625 250.819h-293.984c-66.751-63.393-63.625-250.819-63.625-250.819z" fill="#e8e8e8"/><path d="m85.383 225.407h-40s-3.125 187.426 63.625 250.819h40c-66.75-63.393-63.625-250.819-63.625-250.819z" fill="#dadad8"/><path d="m256 14.79c-116.135 0-210.617 94.482-210.617 210.617h421.233c0-116.135-94.481-210.617-210.616-210.617z" fill="#e8e8e8"/><path d="m276 15.745c-6.585-.623-13.254-.956-20-.956-116.134 0-210.617 94.482-210.617 210.617h40c0-109.388 83.829-199.554 190.617-209.661z" fill="#dadad8"/><circle cx="431.568" cy="245.434" fill="#c7856a" r="44.877"/><path d="m363.869 406.716-70.277 90.495h-75.183l-70.277-90.495c15.902-15.662 30.362-23.743 30.362-23.743h155.014c-.001 0 14.459 8.081 30.361 23.743z" fill="#f9f097"/><path d="m157.759 419.112c20.117-24.365 41.266-35.749 41.735-36.139h-21c-.104.077-14.441 8.062-30.362 23.743z" fill="#fccb88"/><path d="m112.189 124.688c-20.007 28.513-31.757 63.242-31.757 100.719 0 96.963 78.605 175.568 175.568 175.568s175.568-78.605 175.568-175.568c0-37.477-11.75-72.206-31.757-100.719z" fill="#da9d81"/><path d="m110.432 225.407c0-37.477 11.75-72.206 31.757-100.719h-30c-15.511 22.106-26.055 47.951-30.012 75.915-.574-.023-1.149-.045-1.745-.045-24.785 0-44.877 20.092-44.877 44.877s20.092 44.877 44.877 44.877c4.509 0 8.359-.672 11.653-1.91 25.32 65.841 89.155 112.573 163.915 112.573 5.054 0 10.054-.226 15-.645-89.941-7.611-160.568-83.014-160.568-174.923z" fill="#c7856a"/><g fill="#fccb88"><path d="m421.3 166.108s-34.721 149.547-165.301 67.775c-130.58 81.772-165.301-67.775-165.301-67.775l12.502-34.508h278.88z"/><path d="m502.296 76.841c-1.785-8.948-13.44-11.405-18.695-3.945-8.742 12.411-24.04 25.553-50.049 27.38l-12.252 65.832s99.076 1.361 80.996-89.267z"/><path d="m78.448 100.277c-26.008-1.827-41.307-14.97-50.049-27.38-5.255-7.46-16.91-5.004-18.695 3.945-18.08 90.627 80.996 89.266 80.996 89.266z"/><path d="m218.408 497.21h-111.353c0-40.866 21.62-71.348 41.077-90.495z"/></g><path d="m128.055 497.21c0-32.953 14.058-59.148 29.704-78.098l-9.627-12.396c-24.787 24.392-41.077 55.165-41.077 90.495h21z" fill="#fab659"/><path d="m404.945 497.21h-111.353l70.277-90.495c19.456 19.147 41.076 49.629 41.076 90.495z" fill="#fccb88"/><path d="m443.273 57.941c-2.834-7.78-13.128-9.344-18.108-2.729-71.085 94.423-140.665 46.801-162.302 27.843-3.934-3.447-9.792-3.447-13.725 0-21.637 18.958-91.217 66.58-162.302-27.843-4.98-6.615-15.274-5.05-18.108 2.729-9.199 25.249-18.564 72.829 21.971 108.167 0 0 81.222-29.607 157.721 25.947 4.51 3.275 10.65 3.275 15.16 0 76.499-55.554 157.721-25.947 157.721-25.947 40.535-35.338 31.17-82.918 21.972-108.167z" fill="#f9f097"/><ellipse cx="256" cy="142.961" fill="#ff748f" rx="16.552" ry="21.554"/><ellipse cx="256" cy="449.96" fill="#ff748f" rx="16.552" ry="21.554"/></g><g><path d="m255.99 172.017c13.264 0 24.054-13.035 24.054-29.057s-10.791-29.057-24.054-29.057c-13.264 0-24.054 13.035-24.054 29.057 0 16.023 10.791 29.057 24.054 29.057zm0-43.112c4.822 0 9.053 6.568 9.053 14.055 0 7.488-4.23 14.055-9.053 14.055s-9.053-6.568-9.053-14.055c.001-7.486 4.231-14.055 9.053-14.055z"/><path d="m255.99 420.933c-13.264 0-24.054 13.034-24.054 29.057s10.791 29.057 24.054 29.057c13.264 0 24.054-13.034 24.054-29.057s-10.79-29.057-24.054-29.057zm0 43.112c-4.823 0-9.053-6.568-9.053-14.055s4.23-14.055 9.053-14.055c4.822 0 9.053 6.568 9.053 14.055 0 7.488-4.23 14.055-9.053 14.055z"/><path d="m170.81 191.652c-4.143 0-7.501 3.358-7.501 7.501v16.368c0 4.143 3.358 7.501 7.501 7.501s7.501-3.358 7.501-7.501v-16.368c0-4.143-3.358-7.501-7.501-7.501z"/><path d="m341.17 223.021c4.142 0 7.501-3.358 7.501-7.501v-16.368c0-4.143-3.358-7.501-7.501-7.501s-7.501 3.358-7.501 7.501v16.368c.001 4.143 3.359 7.501 7.501 7.501z"/><path d="m277.857 264.716c-3.123-2.722-7.861-2.396-10.583.726-5.966 6.846-16.585 6.866-22.569 0-2.722-3.123-7.459-3.449-10.583-.727-3.123 2.721-3.448 7.46-.727 10.583 11.983 13.751 33.267 13.679 45.188 0 2.723-3.122 2.397-7.861-.726-10.582z"/><path d="m46.38 164.999c-4.653 16.117-7.418 32.747-8.25 49.563-13.989 19.1-13.438 45.195 1.497 63.71 1.838 26.776 5.909 65.526 14.916 102.573.979 4.026 5.037 6.494 9.06 5.517 4.025-.979 6.495-5.036 5.516-9.06-7.261-29.868-11.232-60.985-13.401-85.67 9.945 5.361 21.56 7.189 31.86 5.7 15.516 36.338 42.185 66.477 76.255 86.318-10.414 7.351-19.544 16.443-20.985 17.747-17.279 17.279-30.426 36.484-37.713 59.509-10.869-13.698-20.255-32.292-27.989-55.483-1.311-3.93-5.559-6.055-9.488-4.743-3.93 1.31-6.053 5.559-4.743 9.488 9.964 29.881 22.749 52.956 38.031 68.679-.908 5.889-1.417 12.017-1.417 18.396 0 4.143 3.358 7.501 7.501 7.501h297.92c4.143 0 7.501-3.358 7.501-7.501 0-6.38-.509-12.51-1.417-18.4 43.458-44.696 57.066-138.581 61.32-200.573 14.922-18.498 15.499-44.596 1.497-63.71-.832-16.813-3.596-33.441-8.248-49.557 35.117-14.163 53.153-44.078 44.063-89.638-3.078-15.427-23.135-19.644-32.184-6.798-5.315 7.546-11.9 13.389-19.64 17.468-1.502-12.045-4.611-22.707-7.513-30.672-4.859-13.338-22.588-16.046-31.15-4.674-4.433 5.888-8.93 11.292-13.484 16.222-12.474-11.787-26.289-22.079-41.164-30.649-3.59-2.068-8.176-.834-10.243 2.755-2.068 3.59-.835 8.176 2.755 10.244 13.714 7.9 26.463 17.369 37.99 28.208-41.534 37.397-87.846 34.462-127.236-.065-5.397-4.727-13.237-5.734-19.582-2.657-4.392 2.106-8.33 7.482-21.376 15.398-35.623 21.647-74.023 19.624-109.893-12.678 58.767-55.355 141.751-68.9 212.315-41.505 3.86 1.5 8.208-.415 9.707-4.277 1.499-3.861-.416-8.207-4.277-9.707-74.921-29.086-164.464-15.572-228.4 44.94-4.556-4.931-9.055-10.336-13.49-16.227-8.528-11.329-26.273-8.714-31.15 4.674-2.902 7.965-6.011 18.627-7.512 30.672-7.74-4.079-14.325-9.921-19.64-17.468-9.059-12.86-29.111-8.612-32.185 6.798-8.18 41.006 5.053 73.885 44.066 89.632zm410.49 52.945c25.609 23.58 7.689 66.372-26.968 64.825 7.615-23.075 10.752-48.3 8.411-74.089 7.113 1.288 13.755 4.762 18.557 9.264zm-103.1 189.573-63.856 82.227h-67.847l-63.857-82.227c7.255-6.559 13.941-11.599 20.705-15.996 49.202 22.9 106.042 22.391 154.15 0 6.544 4.21 13.712 9.658 20.705 15.996zm-310.746-162.073c0-18.503 13.465-33.657 30.643-36.764-2.216 24.442.376 49.743 8.411 74.089-21.461.958-39.054-16.241-39.054-37.325zm377.588-54.001c20.268 98.715-50.248 191.67-147.671 201.205-108.42 10.915-198.675-82.813-183.358-190.99.481-3.393 1.078-6.769 1.765-10.124 17.227 41.287 48.059 74.331 93.174 74.327 21.836-.001 45.747-7.74 71.467-23.173 42.012 25.195 87.429 34.409 125.385 4.078 17.589-14.055 30.633-34.714 39.238-55.323zm-152.634 6.685c30.159-21.901 64.559-32.808 102.456-32.387 14.832.18 29.738 2.302 41.634 5.441-5.268 16.716-21.956 59.649-57.867 74.478-26.106 10.78-57.81 4.681-94.231-18.126-2.435-1.525-5.527-1.525-7.962 0-58.635 36.717-108.815 31.939-140.699-28.867-5.732-10.932-9.392-21.108-11.399-27.481 47.976-12.515 101.496-3.977 144.091 26.942 7.042 5.116 16.682 5.299 23.977 0zm-187.464-25.066c-1.821 6.062-3.535 13.147-4.787 20.206-7.346.671-14.659 2.877-21.274 6.656 1.293-10.25 3.367-20.381 6.205-30.304 5.628 1.425 12.695 2.736 19.856 3.442zm81.961 316.682v-24.106c0-4.143-3.358-7.501-7.501-7.501s-7.501 3.358-7.501 7.501v24.106h-32.677c1.941-27.286 14.439-51.503 32.708-71.555l55.569 71.555zm202.032 0v-24.106c0-4.143-3.358-7.501-7.501-7.501s-7.501 3.358-7.501 7.501v24.106h-40.598l55.568-71.555c18.202 19.979 30.762 44.16 32.708 71.555zm42.342-28.828c-9.648-30.552-32.537-58.951-58.702-77.266 34.07-19.841 60.739-49.981 76.255-86.318 10.243 1.499 21.692-.29 31.862-5.701-4.592 52.301-16.834 128.301-49.415 169.285zm50.678-260.992c-6.498-3.713-13.786-5.971-21.273-6.656-1.212-6.829-2.869-13.793-4.782-20.187 5.311-.51 12.258-1.506 19.856-3.438 2.835 9.915 4.907 20.039 6.199 30.281zm32.219-122.716c1.473-2.091 4.712-1.397 5.208 1.093 8.918 44.699-11.932 70.386-54.48 78.327 12.149-16.001 17.968-34.454 18.272-54.463 12.518-5.121 22.928-13.497 31-24.957zm-408.93-17.494c25.733 34.181 59.979 61.664 102.579 59.656 25.741-1.115 49.947-12.95 69.459-29.63 1.145-.979 1.518-1.442 2.411-1.676 1.744-.456 2.681.668 3.793 1.62 19.936 17.081 44.033 28.566 69.956 29.707 42.534 1.65 76.445-25.535 102.149-59.677 1.401-1.863 4.266-1.422 5.07.785 12.918 35.461 10.292 71.181-16.783 97.148-9.822-2.88-20.594-4.774-30.611-5.842-78.872-8.322-127.001 32.926-130.408 34.629-1.784.894-3.985.738-5.614-.445-46.901-34.073-107.804-43.727-160.287-28.343-27.032-25.775-29.708-61.67-16.783-97.148.804-2.206 3.668-2.646 5.069-.784zm-63.79 18.588c.501-2.513 3.744-3.172 5.209-1.093 8.071 11.46 18.481 19.835 30.999 24.957.309 19.941 6.081 38.417 18.293 54.489-42.54-7.939-63.431-33.593-54.501-78.353z"/></g></g></svg>