<svg id="Capa_1" enable-background="new 0 0 512 512" height="512" viewBox="0 0 512 512" width="512" xmlns="http://www.w3.org/2000/svg"><g><g><path d="m200.463 504.5h111.074l23.769-59.224-79.306-37.896-79.306 37.896z" fill="#c6ade3"/><path d="m97.387 504.5c0-80.988 68.688-118.447 68.688-118.447l89.925 21.327s-10.31 61.359-55.537 97.12z" fill="#77718c"/><path d="m187.996 391.252-21.922-5.199s-68.688 37.459-68.688 118.447h30c.001-63.678 42.458-100.44 60.61-113.248z" fill="#5c586f"/><path d="m414.613 504.5c0-80.988-68.688-118.447-68.688-118.447l-89.925 21.327s10.31 61.359 55.537 97.12z" fill="#77718c"/><circle cx="256" cy="207.44" fill="#c6ade3" r="199.94"/><path d="m86.06 207.44c0-105.377 81.523-191.71 184.94-199.381-4.952-.367-9.954-.559-15-.559-110.424 0-199.94 89.516-199.94 199.94s89.516 199.94 199.94 199.94c5.046 0 10.048-.191 15-.559-103.417-7.67-184.94-94.003-184.94-199.381z" fill="#b08bd7"/><path d="m404.85 209.165c0 82.074-66.776 138.819-148.85 138.819s-148.85-56.745-148.85-138.819l69.822-38.942h168.988z" fill="#fed2a4"/><path d="m107.15 209.165c0 87.452 75.7 145.76 163.85 138.177-75.057-6.456-133.85-61.165-133.85-138.177z" fill="#ffbd86"/><path d="m404.85 209.165c-47.995 46.791-97.028 31.496-125.115 15.405-14.722-8.434-32.747-8.434-47.469 0-28.087 16.091-77.12 31.386-125.115-15.405 0-82.084 66.776-109.167 148.85-109.167s148.849 27.084 148.849 109.167z" fill="#77718c"/><path d="m107.15 209.165c10.616 10.35 21.282 17.657 31.761 22.595-1.153-7.288-1.761-14.826-1.761-22.595 0-77.021 58.793-105.616 133.85-108.85-4.934-.213-9.938-.317-15-.317-82.1 0-148.85 27.1-148.85 109.167z" fill="#5c586f"/><g fill="#e8e8e8"><path d="m214.183 180.115c-3.843-9.951-11.963-18.152-22.898-21.708s-22.326-1.701-31.287 4.086c-5.124 3.309-7.219 9.751-5.022 15.441 3.843 9.95 11.963 18.152 22.899 21.708 10.935 3.556 22.326 1.701 31.287-4.086 5.124-3.308 7.219-9.751 5.021-15.441z"/><path d="m297.817 180.115c3.843-9.951 11.963-18.152 22.898-21.708s22.326-1.701 31.287 4.086c5.124 3.309 7.219 9.751 5.022 15.441-3.843 9.95-11.963 18.152-22.899 21.708-10.935 3.556-22.326 1.701-31.287-4.086-5.124-3.308-7.219-9.751-5.021-15.441z"/></g></g><g><path d="m213.23 201.857c8.065-5.208 11.408-15.487 7.949-24.443-10.14-26.258-41.743-36.402-65.25-21.22-8.065 5.208-11.408 15.488-7.949 24.443 10.103 26.161 41.654 36.458 65.25 21.22zm-49.163-33.063c15.596-10.073 36.442-3.269 43.12 14.023.911 2.359.03 5.067-2.094 6.439-15.571 10.056-36.429 3.303-43.121-14.023-.91-2.359-.03-5.066 2.095-6.439z"/><path d="m298.77 201.857c23.586 15.232 55.143 4.952 65.25-21.22 3.458-8.956.115-19.235-7.949-24.443-23.601-15.243-55.15-4.935-65.25 21.22-3.459 8.955-.116 19.235 7.949 24.443zm6.043-19.039c0-.001 0-.001 0 0 6.688-17.318 27.543-24.085 43.12-14.023 2.124 1.372 3.005 4.08 2.094 6.438-6.678 17.292-27.518 24.099-43.121 14.023-2.123-1.372-3.004-4.08-2.093-6.438z"/><path d="m278.169 251.991c2.721-3.123 2.396-7.86-.726-10.582-3.123-2.722-7.86-2.396-10.582.726-5.743 6.59-15.964 6.608-21.722 0-2.722-3.123-7.459-3.448-10.582-.727s-3.448 7.459-.727 10.582c11.709 13.437 32.596 13.477 44.339.001z"/><path d="m365.209 117.46c-26.213-16.564-62.956-24.962-109.209-24.962s-82.996 8.398-109.209 24.962c-31.281 19.766-47.141 50.62-47.141 91.706 0 38.082 13.495 72.264 39.025 98.848 2.869 2.988 7.616 3.084 10.604.215s3.083-7.617.214-10.604c-18.884-19.664-30.393-44.027-33.786-71.216 28.091 21.016 59.862 27.219 94.765 16.042 24.224-7.829 26.484-15.19 42.109-16.512 18.233-1.541 22.377 7.144 45.745 15.428 33.965 12.011 67.726 7.769 97.935-14.937-13.687 107.182-144.56 143.447-225.309 89.183-3.438-2.31-8.098-1.396-10.408 2.042-2.311 3.438-1.396 8.098 2.042 10.408 26.695 17.939 58.997 27.422 93.414 27.422 87.705 0 156.35-61.448 156.35-146.319 0-41.086-15.861-71.94-47.141-91.706zm-210.405 12.681c23.777-15.024 57.824-22.643 101.196-22.643s77.419 7.618 101.196 22.643c25.845 16.331 39.331 41.835 40.117 75.843-34.627 32.232-74.234 34.764-113.851 12.079-17.166-9.836-38.236-9.561-54.926 0-40.87 23.368-80.163 19.271-113.85-12.08.787-34.007 14.274-59.511 40.118-75.842z"/><path d="m415.986 75.389c-39.589-47.911-97.901-75.389-159.986-75.389-114.383 0-207.441 93.057-207.441 207.44 0 76.335 41.453 143.162 103.023 179.181-37.051 27.143-61.695 69.029-61.695 117.879 0 4.142 3.357 7.5 7.5 7.5h317.226c4.142 0 7.5-3.358 7.5-7.5 0-48.916-24.761-90.821-61.696-117.879 61.571-36.019 103.023-102.845 103.023-179.181 0-37.476-10.115-74.213-29.25-106.242-2.125-3.556-6.729-4.716-10.285-2.592-3.556 2.125-4.716 6.729-2.592 10.285 17.747 29.703 27.127 63.781 27.127 98.548 0 99.756-76.098 181.587-172.935 191.458-113.541 11.476-211.946-77.882-211.946-191.457 0-106.111 86.329-192.44 192.441-192.44 57.596 0 111.694 25.494 148.423 69.943 2.638 3.192 7.366 3.643 10.559 1.004 3.193-2.638 3.642-7.365 1.004-10.558zm-278.989 344.887c11.857-13.56 23.873-22.085 29.457-25.678 25.621 12.295 52.59 18.855 80.197 20.079-8.016 30.673-24.443 62.018-48.844 82.323h-92.712c1.587-28.527 12.299-54.305 31.902-76.724zm119.003 15.209c6.323 17.793 17.488 41.439 36.351 61.515h-72.703c18.864-20.076 30.029-43.722 36.352-61.515zm89.546-40.887c12.574 8.1 57.869 41.394 61.354 102.402h-92.708c-19.485-15.906-38.989-44.768-48.844-82.323 27.353-1.197 54.413-7.704 80.198-20.079z"/></g></g></svg>