<svg id="Capa_1" enable-background="new 0 0 512 512" height="512" viewBox="0 0 512 512" width="512" xmlns="http://www.w3.org/2000/svg"><g><g><path d="m332.295 428.126c-14.029-17.616-33.933-30.277-56.686-34.919-6.258-1.277-12.732-1.947-19.358-1.947-30.716 0-58.156 14.406-76.042 36.866-13.424 16.856-21.469 38.247-21.469 61.502v14.872h97.513 97.513v-14.873c-.001-23.254-8.047-44.645-21.471-61.501z" fill="#c77464"/><path d="m275.609 393.207c-6.258-1.277-12.731-1.947-19.358-1.947-30.716 0-58.156 14.405-76.042 36.866-13.424 16.856-21.469 38.247-21.469 61.502v14.872h38.747v-14.873c-.001-47.479 33.626-87.328 78.122-96.42z" fill="#ac6757"/></g><g><path d="m371.351 425.152c-1.399-33.207-29.469-59.068-62.706-59.068h-52.393v104.598h71.371c23.608 0 44.846-19 43.728-45.53z" fill="#e8b5b1"/><path d="m203.86 366.084c-33.237 0-61.307 25.86-62.706 59.068-1.117 26.504 20.098 45.53 43.727 45.53h71.371v-104.598z" fill="#d6948c"/></g><g><path d="m303.908 403.831 18.843 6.346c11.692 3.937 14.742 19.052 5.492 27.215l-37.723 33.291v4.105c0 6.338-3.405 12.188-8.917 15.318l-25.351 14.394-25.165-46.388 25.165-54.281z" fill="#efedff"/><path d="m208.597 403.831-18.843 6.346c-11.692 3.937-14.742 19.052-5.492 27.215l37.723 33.291v4.105c0 6.338 3.405 12.188 8.917 15.318l25.351 14.395v-100.67z" fill="#d4d4ff"/></g><path d="m256.252 366.084-47.655 37.747c5.313 25.176 23.379 45.754 47.655 54.281 24.276-8.528 42.342-29.106 47.655-54.281z" fill="#ffcbbe"/><g><path d="m286.635 47.78c-9.882-1.657-20.03-2.533-30.383-2.533s-20.5.876-30.383 2.533c-86.297 14.468-152.06 89.503-152.06 179.91s65.764 165.443 152.06 179.91c9.882 1.657 20.029 2.533 30.383 2.533 10.353 0 20.501-.876 30.383-2.533 86.297-14.468 151.556-89.738 151.556-180.145s-65.259-165.207-151.556-179.675z" fill="#ffddcf"/><path d="m134.329 227.944c0-90.568 66.268-165.673 152.693-180.099-9.882-1.657-20.416-2.598-30.769-2.598s-20.5.876-30.383 2.533c-86.297 14.468-152.06 89.503-152.06 179.91s65.764 165.443 152.06 179.91c9.882 1.657 20.029 2.533 30.383 2.533 10.353 0 20.501-.876 30.383-2.533-86.425-14.426-152.307-89.091-152.307-179.656z" fill="#ffcbbe"/></g><g><path d="m438.147 186.251c.093-20.261.929-41.831-11.365-68.774-10.223-22.404-24.705-42.433-42.384-59.061-33.592-31.597-78.73-50.916-128.146-50.916-72.5 0-140.462 42.975-171.034 109.977-12.293 26.942-11.457 48.512-11.365 68.774l-.045.037v166.977c0 8.284 6.716 15 15 15s15-6.716 15-15v-76.6c17.52-4.304 30.52-20.108 30.52-38.955v-.005c0-.711.033-1.416.05-2.123 1.049-45.017 35.246-82.745 80.251-87.353 13.712-1.404 27.521-2.121 41.371-2.138 13.85.016 27.659.734 41.371 2.138 45.713 4.68 80.301 43.525 80.301 89.477v.005c0 18.848 13 34.652 30.52 38.955v76.6c0 8.284 6.716 15 15 15s15-6.716 15-15v-166.977z" fill="#c77464"/><path d="m316.709 45.442c23.918 0 46.757 4.608 67.689 12.974-33.592-31.597-78.73-50.916-128.146-50.916-72.5 0-140.462 42.975-171.034 109.977-12.293 26.942-11.457 48.512-11.365 68.774l-.045.037v166.977c0 8.284 6.716 15 15 15s15-6.716 15-15v-76.6c17.515-4.302 30.52-20.1 30.52-38.96 0-6.763-.121-4.725-.121-9.761.001-100.793 81.709-182.502 182.502-182.502z" fill="#ac6757"/></g><g><path d="m438.191 227.455v-41.167l-.045-.037c.042-9.238.239-18.75-.725-28.917-22.307-21.069-48.114-38.117-76.169-50.364v50.08c30.589 16.812 57.134 40.845 76.939 70.405z" fill="#676fb2"/><path d="m113.78 127.018c-14.103 9.026-27.218 19.267-39.225 30.563-.937 10.074-.744 19.507-.702 28.67l-.045.037v41.189c19.897-29.662 46.621-53.761 77.443-70.585v-49.888c-12.909 5.631-25.439 12.313-37.471 20.014z" fill="#4c5699"/></g><g><path d="m338.753 75.433h-35c-14.679 0-27.963 6.063-37.5 15.808h-20c-9.537-9.745-22.821-15.808-37.5-15.808h-35c-28.949 0-52.5 23.551-52.5 52.5v15c0 28.949 23.551 52.5 52.5 52.5h35c14.679 0 27.963-6.063 37.5-15.808h20c9.537 9.744 22.821 15.808 37.5 15.808h35c28.949 0 52.5-23.551 52.5-52.5v-15c0-28.949-23.552-52.5-52.5-52.5z" fill="#676fb2"/><path d="m204.252 142.933v-15c0-20.301 11.59-37.952 28.493-46.683-7.196-3.719-15.349-5.817-23.993-5.817h-35c-28.949 0-52.5 23.551-52.5 52.5v15c0 28.949 23.551 52.5 52.5 52.5h35c8.644 0 16.796-2.098 23.993-5.817-16.903-8.731-28.493-26.382-28.493-46.683z" fill="#4c5699"/><path d="m208.752 165.433h-35c-12.375 0-22.5-10.125-22.5-22.5v-15c0-12.375 10.125-22.5 22.5-22.5h35c12.375 0 22.5 10.125 22.5 22.5v15c0 12.375-10.125 22.5-22.5 22.5z" fill="#7ce3ff"/><path d="m338.753 165.433h-35c-12.375 0-22.5-10.125-22.5-22.5v-15c0-12.375 10.125-22.5 22.5-22.5h35c12.375 0 22.5 10.125 22.5 22.5v15c0 12.375-10.125 22.5-22.5 22.5z" fill="#b9f0ff"/></g><g><g><g><ellipse cx="172.248" cy="273.492" fill="#ff8e9e" rx="30.996" ry="24.684"/></g><g><ellipse cx="340.256" cy="273.492" fill="#ff8e9e" rx="30.996" ry="24.684"/></g></g></g><g><path d="m445.692 176.949c0-17.464-.934-38.143-12.087-62.584-30.631-67.136-98.401-114.365-177.353-114.365-38.193 0-75.464 11.298-107.782 32.671-3.455 2.285-4.403 6.938-2.119 10.393 2.285 3.455 6.938 4.402 10.393 2.119 29.857-19.746 64.266-30.183 99.508-30.183 71.376 0 134.787 42.209 163.706 105.591 2.711 5.941 4.723 11.598 6.243 17.035-9.003-7.236-18.485-13.898-28.345-19.951-4.883-28.212-29.519-49.743-59.105-49.743h-35c-15.16 0-29.432 5.59-40.536 15.808h-13.928c-11.104-10.218-25.376-15.808-40.536-15.808h-35c-29.572 0-54.199 21.511-59.098 49.703-9.971 6.072-19.609 12.85-28.955 20.352 6.386-23.142 23.216-52.047 48.361-75.091 3.054-2.799 3.26-7.543.462-10.597-2.799-3.054-7.543-3.26-10.597-.462-19.388 17.769-34.707 38.805-45.529 62.525-11.153 24.443-12.087 45.121-12.087 62.584 0 6.927.001 169.197.001 176.316 0 12.407 10.093 22.5 22.5 22.5s22.5-10.093 22.5-22.5v-2.824c11.106 13.126 23.823 24.55 37.754 34.083-9.367 11.439-14.776 25.45-15.402 40.313-.718 17.041 6.605 32.674 19.885 42.767-1.523 7.214-2.306 14.598-2.306 22.025v14.874c0 4.142 3.358 7.5 7.5 7.5h195.025c4.143 0 7.5-3.358 7.5-7.5v-14.873c0-7.421-.782-14.798-2.302-22.006 4.344-3.315 8.189-7.328 11.328-11.973 2.319-3.432 1.418-8.094-2.015-10.414-3.432-2.32-8.093-1.418-10.413 2.014-6.642 9.828-18.229 15.933-30.239 15.933h-17.27l22.853-20.168c13.001-11.474 9.462-32.281-6.034-39.146 8.047-3.251 15.856-7.041 23.369-11.362 7.651 8.698 12.294 19.52 13.198 31.007.309 3.929 3.593 6.912 7.469 6.912.197 0 .396-.008.597-.023 4.129-.325 7.213-3.936 6.888-8.065-1.098-13.948-6.472-27.119-15.336-37.919 13.772-9.471 26.346-20.801 37.335-33.808v2.655c0 12.407 10.094 22.5 22.5 22.5s22.5-10.093 22.5-22.5c-.001 0-.001-176.314-.001-176.315zm-15 0v27.939c-11.126-13.448-23.76-25.555-37.769-36.178 3.734-7.814 5.83-16.555 5.83-25.777v-6.887c11.122 7.456 21.644 15.779 31.444 24.833.413 5.542.495 10.875.495 16.07zm-301.94-49.016c0-24.813 20.187-45 45-45h35c12.172 0 23.586 4.813 32.14 13.553 1.411 1.442 3.343 2.254 5.36 2.254h20c2.017 0 3.949-.813 5.36-2.254 8.553-8.74 19.967-13.553 32.14-13.553h35c24.813 0 45 20.187 45 45v15c0 17.057-9.539 31.928-23.564 39.558-.008.004-.016.008-.023.012-6.371 3.461-13.666 5.429-21.413 5.429h-35c-12.172 0-23.586-4.813-32.14-13.554-1.411-1.441-3.343-2.254-5.36-2.254h-20c-2.017 0-3.949.813-5.36 2.254-8.554 8.74-19.968 13.554-32.14 13.554h-35c-24.813 0-45-20.187-45-45zm-15 8.074c0 8.24-.67 18.955 5.735 32.494-14.176 10.685-26.947 22.878-38.177 36.432 0-2.219-.001-2.754-.001-27.985 0-5.119.081-10.374.48-15.829 9.948-9.155 20.669-17.582 31.963-25.112zm-17.443 217.258c0 4.135-3.364 7.5-7.5 7.5s-7.5-3.365-7.5-7.5v-123.46c12.753-18.586 28.285-34.903 46.264-48.61 3.195 3.849 6.866 7.286 10.914 10.237-7.929 14.764-11.658 30.868-11.658 46.277 0 15.06-10.202 28.083-24.809 31.671-3.354.824-5.711 3.831-5.711 7.284zm52.338 72.202c.515-12.208 5.177-23.697 13.242-32.889 7.518 4.305 15.328 8.083 23.375 11.322-15.403 6.884-18.971 27.639-5.966 39.115l22.852 20.167h-17.27c-9.955 0-19.599-4.104-26.459-11.259-6.725-7.017-10.197-16.412-9.774-26.456zm78.301 39.592-37.723-33.291c-4.963-4.379-3.257-12.402 2.923-14.483l11.28-3.799c7.187 22.194 23.822 40.519 45.325 49.746v28.384l-14.147-8.033c-3.158-1.793-5.12-5.164-5.12-8.796v-4.105c-.001-2.152-.926-4.2-2.538-5.623zm29.304-14.954c-16.574-6.595-29.796-19.759-36.627-36.027 11.938 2.335 24.191 3.555 36.627 3.555 12.441 0 24.697-1.226 36.635-3.571-6.83 16.276-20.056 29.446-36.635 36.043zm-90.012 39.522c0-4.878.389-9.733 1.155-14.516 5.569 2.003 11.488 3.071 17.488 3.071h29.836c1.028 7.5 5.253 14.341 13.138 18.818h-61.617zm178.874-14.491c.763 4.775 1.151 9.622 1.151 14.491v7.373h-61.615c7.859-4.463 12.107-11.292 13.138-18.818h29.836c6.061 0 11.962-1.069 17.49-3.046zm-21.833-43.368-37.723 33.291c-1.542 1.361-2.538 3.424-2.538 5.624v4.105c0 3.632-1.962 7.003-5.12 8.796l-14.148 8.033v-28.384c21.503-9.227 38.138-27.553 45.325-49.747l11.281 3.799c6.222 2.095 7.855 10.13 2.923 14.483zm-67.029-29.135c-58.273 0-112.279-28.752-144.943-77.005v-43.464c18.234-6.974 30.52-24.489 30.52-44.458 0-13.051 3.174-26.636 9.791-39.02 6.853 2.73 14.316 4.248 22.132 4.248h35c15.159 0 29.432-5.59 40.536-15.808h13.929c11.104 10.218 25.376 15.808 40.536 15.808h35c7.664 0 14.989-1.46 21.733-4.091 6.349 11.93 9.686 25.238 9.686 38.868 0 19.965 12.286 37.479 30.521 44.454v43.599c-32.652 48.369-86.539 76.869-144.441 76.869zm166.94-41.868c-4.136 0-7.5-3.365-7.5-7.5v-76.6c0-3.453-2.357-6.46-5.711-7.284-14.607-3.588-24.81-16.612-24.81-31.676 0-16.137-3.964-31.898-11.505-46.023 4.124-2.962 7.863-6.426 11.115-10.314 17.821 13.666 33.234 29.917 45.91 48.413v123.484c.001 4.135-3.364 7.5-7.499 7.5z"/><path d="m190.312 229.56c-4.142 0-7.5 3.358-7.5 7.5v12.671c0 4.142 3.358 7.5 7.5 7.5s7.5-3.358 7.5-7.5v-12.671c0-4.142-3.358-7.5-7.5-7.5z"/><path d="m322.192 229.56c-4.142 0-7.5 3.358-7.5 7.5v12.671c0 4.142 3.358 7.5 7.5 7.5s7.5-3.358 7.5-7.5v-12.671c0-4.142-3.358-7.5-7.5-7.5z"/><path d="m278.564 243.699c-3.123-2.721-7.861-2.396-10.582.727-2.961 3.398-7.237 5.347-11.73 5.347s-8.769-1.949-11.73-5.347c-2.721-3.124-7.459-3.448-10.582-.727s-3.448 7.459-.727 10.582c5.811 6.668 14.208 10.493 23.039 10.493s17.228-3.824 23.039-10.493c2.721-3.123 2.396-7.861-.727-10.582z"/><path d="m173.752 172.933h35c16.542 0 30-13.458 30-30v-15c0-16.542-13.458-30-30-30h-35c-16.542 0-30 13.458-30 30v15c0 16.542 13.458 30 30 30zm-15-45c0-8.271 6.729-15 15-15h35c8.271 0 15 6.729 15 15v15c0 8.271-6.729 15-15 15h-35c-8.271 0-15-6.729-15-15z"/><path d="m303.752 172.933h35.001c16.542 0 30-13.458 30-30v-15c0-16.542-13.458-30-30-30h-35.001c-16.542 0-30 13.458-30 30v15c0 16.542 13.458 30 30 30zm-15-45c0-8.271 6.729-15 15-15h35.001c8.271 0 15 6.729 15 15v15c0 8.271-6.729 15-15 15h-35.001c-8.271 0-15-6.729-15-15z"/></g></g></svg>